<svg width="1440" height="810" viewBox="0 0 1440 810" fill="none" xmlns="http://www.w3.org/2000/svg">
<path d="M118.065 -49.3753C147.219 -49.3753 176.373 -49.3753 205.527 -44.5164L336.025 -28.5512C417.928 -17.6658 501.209 -24.2905 580.361 -47.9871C609.951 -58.1032 640.771 -64.174 671.987 -66.0346C715.464 -67.3468 758.734 -59.544 799.014 -43.1281L907.3 1.2967C930.654 11.3548 955.52 17.4541 980.878 19.3443C1011.66 20.9898 1042.47 16.9905 1071.81 7.54395L1196.76 -32.0219C1234.35 -44.4861 1273.24 -52.6366 1312.68 -56.3167C1343.22 -56.3167 1373.76 -56.3167 1404.3 -59.7874C1421.66 -59.7874 1439.7 -59.7874 1457.06 -59.7874C1482.41 -63.5545 1507.46 -69.1216 1532.02 -76.4467V-97.2708C1479.23 -82.2725 1424.45 -75.4831 1369.6 -77.1408C1312.89 -78.906 1256.31 -70.9232 1202.31 -53.5402C1162.05 -41.7398 1121.09 -28.5512 1080.14 -15.3626C1020.78 5.06143 955.803 1.57602 898.97 -25.0805C870.51 -38.9633 841.357 -51.4577 812.203 -63.9522C772.049 -82.5222 728.674 -93.1301 684.482 -95.1884C651.507 -94.4954 618.699 -90.3072 586.608 -82.6939C550.513 -75.7526 517.194 -68.1171 478.323 -63.9522C421.343 -57.704 363.851 -57.704 306.871 -63.9522C243.94 -70.6518 180.637 -73.2025 117.371 -71.5877C44.875 -70.6525 -27.3735 -80.2389 -97.1173 -100.047L-203.32 -125.73V-104.212L-142.93 -88.247C-58.3654 -62.31 29.6124 -49.2069 118.065 -49.3753Z" fill="inherit"/>
<path d="M-23.5387 539.948C24.3306 526.882 70.8231 509.215 115.289 487.193C193.301 445.905 278.242 419.317 365.872 408.756C422.785 401.59 480.585 408.994 533.854 430.274C565.09 442.768 596.326 456.651 626.868 470.534C653.229 483.188 681.854 490.443 711.059 491.873C740.264 493.304 769.461 488.881 796.932 478.864L858.016 457.345C879.534 450.404 900.358 442.768 921.877 437.91C941.611 432.95 962.13 431.929 982.259 434.907C1002.39 437.885 1021.73 444.802 1039.19 455.263C1055.15 464.287 1070.42 474.005 1085.69 484.417C1114.15 505.241 1142.61 527.453 1171.77 548.277C1198.55 568.628 1228.27 584.778 1259.92 596.173C1303.99 608.32 1350.52 608.32 1394.58 596.173C1427.21 587.843 1458.45 576.737 1490.38 568.407L1532.02 557.301V535.089L1500.79 543.418C1464 553.83 1431.37 567.019 1392.5 576.043C1355.69 586.111 1316.86 586.111 1280.05 576.043C1248.28 566.398 1218.61 550.856 1192.59 530.23C1163.44 508.712 1134.98 485.805 1106.52 460.816C1084.58 443.797 1061.38 428.481 1037.1 415.003C1002.33 395.924 961.479 391.191 923.265 401.814L880.923 414.309C848.298 426.109 815.674 439.298 782.355 450.404C743.162 464.492 700.723 466.903 660.187 457.345C629.895 448.806 600.399 437.658 572.031 424.027C496.598 388.389 412.454 375.37 329.777 386.543C264.944 396.237 202.116 416.398 143.748 446.239C98.6295 467.757 53.5106 490.664 4.92096 508.017C-35.0662 525.222 -78.8542 531.683 -122.106 526.759L-203.32 514.959V535.783L-120.718 547.583C-88.1421 551.649 -55.0798 549.051 -23.5387 539.948Z" fill="inherit"/>
<path d="M-22.1504 576.044C30.0039 564.079 81.081 547.827 130.56 527.454C209.271 495.593 291.191 472.32 374.896 458.041C440.527 446.018 508.288 455.768 567.867 485.806L644.222 522.595C691.091 545.917 744.723 551.821 795.544 539.255L881.617 517.042C921.854 504.542 964.936 504.542 1005.17 517.042C1034.83 527.819 1063.22 541.784 1089.86 558.69C1120.4 576.738 1150.25 594.786 1180.79 611.445C1207.61 625.867 1236.73 635.498 1266.86 639.905C1312.11 645.444 1357.99 642.62 1402.22 631.575C1438.31 623.245 1471.63 612.139 1511.2 603.115L1532.02 598.256V578.82C1516.75 582.291 1502.18 585.762 1486.9 590.621C1440.45 606.235 1392.54 617.165 1343.91 623.245C1298.07 628.386 1251.72 619.938 1210.64 598.95C1188.43 587.15 1166.91 573.962 1145.39 560.079C1113.46 539.255 1082.22 517.042 1049.6 496.912C1027.57 482.293 1002.55 472.775 976.369 469.052C950.19 465.33 923.511 467.496 898.276 475.394L803.873 505.242C763.989 519.707 720.638 521.644 679.623 510.795C649.914 501.638 621.104 489.789 593.55 475.394C564.088 459.885 533.164 447.329 501.229 437.911C450.243 425.665 397.225 424.482 345.742 434.44C281.374 445.814 218.501 464.443 158.325 489.971C114.595 508.713 70.864 526.76 26.4392 543.419C-14.8407 560.578 -59.4029 568.4 -104.059 566.326C-133.907 562.855 -167.919 557.996 -199.155 553.137H-203.32V571.879L-143.624 579.515C-103.232 585.299 -62.1469 584.125 -22.1504 576.044Z" fill="inherit"/>
<path d="M-3.40865 489.968C36.1572 473.309 75.7231 455.955 114.595 436.519C179.223 400.94 249.786 377.419 322.836 367.105C389.839 359.908 457.604 367.49 521.359 389.318C551.901 399.73 581.749 412.224 612.292 423.331C648.143 437.772 687.095 442.791 725.436 437.908C754.777 432.966 783.593 425.297 811.509 415.001L914.936 376.129C944.888 366.076 977.303 366.076 1007.26 376.129C1032.26 384.499 1055.71 396.929 1076.67 412.919C1107.91 435.825 1138.45 459.426 1168.99 482.332C1192.87 501.56 1218.16 518.962 1244.65 534.393C1274.36 551.485 1308.27 559.902 1342.52 558.687C1374.74 557.589 1406.58 551.501 1436.93 540.64C1467.47 530.228 1498.01 519.122 1528.55 510.792V483.721L1512.59 487.191C1480.66 496.215 1449.42 508.71 1417.49 517.733C1383.01 529.021 1346.24 531.409 1310.59 524.675C1280.28 516.964 1251.91 503.015 1227.3 483.721C1192.59 459.426 1157.88 433.743 1124.57 408.06C1094.15 384.955 1061.05 365.61 1026 350.446C1004.01 341.559 980.113 338.452 956.584 341.422C932.779 345.225 909.488 351.746 887.17 360.858C846.91 375.435 806.65 390.706 765.696 403.895C716.336 420.205 663.039 420.205 613.68 403.895L525.524 378.906C439.787 348.633 347.497 341.921 258.281 359.47C213.581 368.911 170.217 383.832 129.172 403.895C85.6724 424.719 41.2475 444.849 -4.1028 464.285C-44.5368 483.325 -89.6689 490.083 -133.907 483.721L-203.32 471.92V495.521L-133.907 505.239C-89.8396 512.642 -44.5757 507.345 -3.40865 489.968Z" fill="inherit"/>
<path d="M-5.4911 442.073C27.8275 427.496 63.9227 414.307 93.7706 398.342C164.566 361.465 242.433 340.164 322.142 335.87C372.402 333.846 422.687 339.225 471.381 351.835C510.947 362.247 550.513 375.436 589.385 387.236C624.711 398.814 662.078 402.835 699.059 399.036C729.343 395.722 759.152 388.968 787.908 378.906L912.159 333.787C935.986 324.662 961.539 320.925 986.982 322.845C1012.43 324.766 1037.13 332.295 1059.32 344.894C1097.7 365.387 1134.59 388.584 1169.68 414.307C1200.67 436.899 1232.88 457.755 1266.17 476.78C1304.62 498.793 1349.73 506.188 1393.2 497.604C1418.3 492.514 1443.09 486.026 1467.47 478.168C1488.99 471.227 1511.2 464.979 1532.72 460.12V431.661L1440.4 454.567C1412.86 462.282 1384.28 465.562 1355.71 464.285C1319.9 461.707 1285.19 450.771 1254.37 432.355C1223.83 415.002 1193.98 396.26 1163.44 378.212C1125.98 354.239 1086.76 333.124 1046.13 315.046C1014.16 300.473 978.231 297.051 944.089 305.328C917.018 312.269 890.641 321.293 864.957 330.317C810.755 351.467 754.769 367.729 697.67 378.906C668.748 384.107 639.131 384.107 610.209 378.906C583.138 372.659 556.066 365.718 529.689 357.388C473.256 338.717 414.74 327.061 355.46 322.681C318.831 321.18 282.14 322.806 245.787 327.54C207.686 333.281 170.403 343.534 134.725 358.082L7.69751 410.837C-19.1457 423.021 -47.7113 430.982 -76.9873 434.437C-109.513 436.081 -142.119 433.985 -174.167 428.19L-203.32 424.719V450.403L-140.848 458.732C-95.0549 465.691 -48.2302 459.928 -5.4911 442.073Z" fill="inherit"/>
<path d="M79.8878 -7.03363C117.371 -7.03363 154.855 -0.0922546 191.644 5.46085C240.928 13.0964 288.823 24.2026 337.413 31.144C419.658 45.823 504.344 37.9061 582.443 8.23741C649.096 -17.4568 722.469 -19.9026 790.685 1.29603C826.78 12.4022 860.099 24.8967 898.276 36.697C924.243 45.7364 951.344 51.1099 978.796 52.6622C1009.14 53.7241 1039.44 49.4961 1068.34 40.1677L1205.78 -2.17466C1274.31 -23.1431 1345.87 -32.5272 1417.49 -29.9402C1440.69 -28.7336 1463.95 -29.8965 1486.9 -33.4109C1501.48 -33.4109 1516.75 -38.964 1531.33 -42.4346V-59.094C1487.1 -48.0055 1441.55 -43.0998 1395.97 -44.5171C1337.8 -46.7421 1279.66 -39.4741 1223.83 -22.9988C1178.01 -9.81017 1132.89 5.46085 1085 19.3436C1059.03 27.6122 1032.28 33.1945 1005.17 36.0029C968.441 37.5916 931.785 31.4428 897.582 17.9553C861.487 4.07258 828.168 -10.5043 788.602 -22.9988C748.294 -38.0574 705.146 -43.9843 662.269 -40.3522C632.159 -36.9534 602.563 -29.9623 574.114 -19.5281C512.234 2.15315 446.505 10.6647 381.144 5.46085C342.966 5.46085 304.788 -2.17466 266.611 -8.4219C209.971 -18.931 152.693 -25.6559 95.1589 -28.5519C24.81 -30.7852 -45.055 -41.0321 -113.082 -59.094L-203.32 -82.0005V-61.1764L-108.918 -38.2698C-47.0157 -22.3624 16.1611 -11.9104 79.8878 -7.03363Z" fill="inherit"/>
<path d="M-29.0918 607.281C9.08583 600.34 47.2634 593.398 84.7469 585.069C134.031 573.268 182.62 558.691 231.904 546.891C281.188 535.091 340.884 520.514 395.026 509.408C454.706 497.14 516.774 505.204 571.337 532.314L637.28 562.856C680.197 584.703 727.985 595.216 776.108 593.398C800.403 593.398 824.698 589.233 845.522 585.069C920.754 571.17 998.432 580.366 1068.34 611.446L1143.31 642.682C1174.2 655.578 1206.63 664.444 1239.79 669.059C1269.75 672.878 1300.07 672.878 1330.03 669.059C1362.65 664.894 1395.28 660.035 1427.9 653.788L1528.55 632.964V615.611L1493.15 622.552C1441.01 637.213 1387.89 648.115 1334.19 655.176C1301.3 658.297 1268.14 656.896 1235.63 651.012C1200.8 642.986 1167.19 630.382 1135.67 613.528C1102.35 596.869 1069.73 579.515 1036.41 564.939C991.491 543.564 941.081 536.536 892.029 544.809L808.038 561.468C762.054 573.008 713.652 570.346 669.211 553.832C640.057 542.032 610.903 528.149 582.444 514.266C556.081 501.161 528.388 490.922 499.841 483.724C459.778 475.398 418.43 475.398 378.367 483.724C311.585 496.44 245.727 513.6 181.232 535.091C122.924 553.832 65.311 573.962 6.30928 587.151C-42.4953 599.033 -92.9969 602.322 -142.93 596.869L-203.32 587.845V605.199L-148.483 609.363C-108.765 613.873 -68.6284 613.173 -29.0918 607.281Z" fill="inherit"/>
<path d="M-13.1266 394.181C16.0272 383.075 45.8751 372.663 75.0289 360.862C142.824 330.071 215.839 312.406 290.212 308.802C347.421 306.93 404.623 312.767 460.275 326.155C498.453 335.873 537.325 347.674 576.196 357.392C608.331 365.813 641.716 368.399 674.764 365.027C708.915 361.784 742.642 355.039 775.414 344.897C820.533 330.32 865.652 315.743 914.241 299.778C964.539 281.064 1020.21 283.061 1069.03 305.331C1096.8 317.826 1125.26 330.32 1153.02 344.203C1193.98 363.639 1233.54 385.157 1274.5 405.287C1327.7 433.002 1389.31 439.93 1447.34 424.723C1476.49 417.782 1505.65 411.534 1535.49 407.369V377.522C1508.73 379.625 1482.08 383.1 1455.67 387.934C1401.16 398.138 1344.89 392.847 1293.24 372.663L1184.95 330.32C1140.53 312.967 1096.8 294.225 1051.68 280.342C1020.13 271.071 986.824 269.406 954.501 275.483C931.017 280.653 907.842 287.142 885.088 294.919C828.661 314.709 771.193 331.393 712.941 344.897C674.977 353.785 635.774 356.132 597.02 351.838C562.758 346.513 528.898 338.86 495.676 328.932C431.231 309.713 364.4 299.665 297.153 299.084C242.648 298.123 188.323 305.616 136.113 321.296C96.5471 333.791 57.6754 346.979 18.8037 361.556C-38.5442 382.99 -100.138 390.6 -160.978 383.769C-174.861 383.769 -189.438 383.769 -203.32 379.604V405.981L-140.154 412.228C-96.989 415.985 -53.5371 409.811 -13.1266 394.181Z" fill="inherit"/>
<path d="M-40.8921 633.658C56.9813 625.329 154.161 611.446 251.34 596.175L399.885 569.104C441.384 561.119 484.025 561.119 525.524 569.104C558.253 576.887 590.29 587.334 621.315 600.34C647.634 611.043 674.513 620.311 701.835 628.105C743.819 638.361 787.129 642.106 830.251 639.211C920.172 634.774 1010.21 645.091 1096.8 669.754C1131.16 679.998 1166.18 687.884 1201.61 693.354C1267.61 700.291 1334.27 697.485 1399.44 685.025L1523 665.589H1532.02V651.012C1504.95 655.177 1477.88 659.341 1450.81 664.895C1398.28 676.35 1344.87 683.316 1291.16 685.719C1255.33 686.881 1219.53 682.67 1184.95 673.224C1149.55 663.506 1115.54 651.706 1079.45 639.906C1031.43 622.577 981.166 612.29 930.206 609.364C891.269 608.211 852.298 609.834 813.591 614.223C756.782 619.896 699.461 611.059 646.998 588.539L573.42 553.138C528.203 532.743 478.348 524.833 429.039 530.232C399.885 530.232 370.731 539.256 341.578 545.503C267.305 560.774 193.032 578.127 118.76 592.704C72.2523 601.728 25.7451 608.669 -20.068 615.611C-55.5765 621.798 -91.6502 624.125 -127.659 622.552H-203.32V638.517H-197.073C-144.963 640.371 -92.7866 638.747 -40.8921 633.658Z" fill="inherit"/>
<path d="M48.6516 26.2897C105.876 32.5688 162.667 42.3045 218.715 55.4435C276.926 69.7723 336.074 79.9783 395.72 85.9856C455.521 91.6523 515.826 83.5799 572.031 62.3849C634.456 38.0087 702.05 29.8879 768.472 38.7842C807.578 46.2617 846.271 55.761 884.393 67.2439C912.53 75.0744 941.353 80.1882 970.466 82.5149C1006.02 83.3746 1041.45 78.2114 1075.28 67.2439L1230.77 24.2073C1287.66 8.32944 1346.66 1.30577 1405.69 3.3832C1448.04 5.01753 1490.43 1.75663 1532.02 -6.33472V-23.6882C1487.94 -14.9149 1442.94 -11.6506 1398.06 -13.9702C1377.23 -13.9702 1355.71 -13.9702 1334.89 -13.9702C1290.42 -9.3353 1246.5 -0.503529 1203.7 12.407L1064.87 53.3611C1021.84 66.5321 976.064 67.9699 932.289 57.5259C900.359 49.8904 869.122 40.1725 837.886 31.1487C798.906 18.7856 758.595 11.0963 717.8 8.24217C667.896 6.67719 618.223 15.6656 572.031 34.6194C514.67 56.0652 453.285 64.5975 392.25 59.6084C340.112 55.0644 288.376 46.7124 237.457 34.6194C183.716 22.7267 129.209 14.6086 74.3347 10.3246C18.9325 5.89195 -36.0589 -2.69321 -90.1759 -15.3585L-203.32 -43.124V-22.2999C-179.025 -16.7468 -154.731 -11.8878 -133.907 -5.64058C-73.8657 9.21299 -12.8664 19.8821 48.6516 26.2897Z" fill="inherit"/>
<path d="M-29.7859 349.758L94.4648 312.969C144.663 296.182 197.046 286.828 249.952 285.203C275.635 285.203 301.318 285.203 327.695 285.203C360.63 286.863 393.369 291.275 425.568 298.392L535.936 325.463C577.348 336.327 620.381 339.619 662.964 335.181C698.619 330.31 733.879 322.887 768.473 312.969L918.406 267.85C951.234 257.933 985.877 255.561 1019.75 260.909C1053.65 267.012 1087.06 275.596 1119.71 286.592C1179.4 306.027 1238.4 325.463 1297.41 343.511C1342.11 358.238 1389.31 363.902 1436.23 360.17C1467.47 360.17 1498.01 354.617 1528.55 353.229V327.546H1482.74C1420.49 330.688 1358.1 325.08 1297.41 310.886L1073.89 257.438C1051.06 252.016 1027.86 248.303 1004.48 246.332C972.791 244.685 941.062 248.681 910.771 258.132L735.848 306.722C701.144 316.169 665.552 321.985 629.645 324.075C593.205 325.545 556.742 321.805 521.359 312.969C481.099 303.251 440.145 292.839 399.191 285.203C368.211 279.846 336.903 276.599 305.483 275.485C271.094 272.015 236.444 272.015 202.056 275.485C175.942 278.294 149.992 282.465 124.313 287.98C84.7468 296.31 46.5693 306.722 7.69756 317.134C-39.9378 330.346 -89.4022 335.738 -138.766 333.099L-203.32 327.546V353.229L-142.93 358.088C-105.012 361.223 -66.8363 358.413 -29.7859 349.758Z" fill="inherit"/>
<path d="M-64.4959 657.951L12.5534 653.092H93.0733L204.135 648.234C234.677 648.234 265.219 648.234 295.762 642.68L434.589 626.715C496.589 617.647 559.854 623.355 619.23 643.375C679.268 664.308 741.828 677.147 805.258 681.552C863.566 681.552 922.568 688.494 980.875 693.352C1016.28 693.352 1050.29 700.988 1086.38 705.847C1122.48 710.706 1162.74 718.341 1201.61 720.424C1244.35 723.891 1287.29 723.891 1330.03 720.424L1399.44 712.094L1481.35 701.682L1532.02 691.964V678.081L1462.61 685.717C1411.24 693.352 1359.87 701.682 1307.81 705.847C1243.39 710.89 1178.57 706.21 1115.54 691.964C1065.41 679.311 1014.34 670.722 962.828 666.281C913.544 662.81 863.566 661.422 813.588 659.34C778.413 658.388 743.367 654.674 708.773 648.234C675.922 640.374 643.678 630.167 612.288 617.691C578.385 604.444 542.928 595.58 506.779 591.314C466.589 589.014 426.269 591.578 386.694 598.95C292.985 615.609 198.582 625.327 104.18 632.962L4.91785 641.292C-33.9539 641.292 -72.1314 646.845 -111.003 647.539C-149.875 648.233 -170.699 647.539 -200.547 647.539V661.422H-111.697L-64.4959 657.951Z" fill="inherit"/>
<path d="M63.2285 60.9932C97.9354 65.8521 132.642 72.0994 167.349 79.0408C202.056 85.9821 245.093 96.3942 283.27 104.724C329.014 114.697 375.405 121.424 422.098 124.854C469.057 128.003 516.185 122.112 560.925 107.5C598.355 93.7719 637.258 84.4539 676.846 79.7349C730.523 74.7592 784.607 76.3911 837.886 84.5939L942.701 99.8649C977.201 104.171 1012.18 102.527 1046.13 95.0059C1082.92 86.6763 1119.71 76.9583 1157.19 67.2404C1212.35 52.1133 1268.47 40.7496 1325.17 33.2277C1361.91 30.4515 1398.8 30.4515 1435.54 33.2277C1456.57 34.6156 1477.67 34.6156 1498.71 33.2277L1532.02 25.5922V8.93287C1491.68 15.74 1450.71 18.0679 1409.86 15.8742C1377.18 13.7922 1344.37 15.1883 1311.98 20.0391C1270.32 26.4301 1229.07 35.2374 1188.43 46.4163C1139.14 59.6049 1090.55 72.7935 1041.27 84.5939C1016.94 90.2514 991.891 92.1244 966.996 90.1469C931.055 86.4513 895.362 80.6569 860.098 72.7935C825.392 66.5463 790.685 60.9932 754.59 57.5225C692.062 52.0541 629.115 61.0804 570.643 83.8997C546.186 93.0502 520.822 99.5657 494.982 103.336C445.991 109.71 396.289 108.069 347.825 98.4766C296.459 89.4528 245.787 77.6525 195.115 67.2404C161.102 60.9932 125.701 54.0518 93.7706 48.4987C61.8402 42.9456 35.463 40.8632 4.92096 36.6984C-54.0807 28.3687 -112.388 15.1801 -171.39 1.99148L-203.32 -2.17334V16.5684L-127.659 32.5335C-64.4928 42.2515 -0.632141 51.9694 63.2285 60.9932Z" fill="inherit"/>
<path d="M-45.7511 306.021C-2.71455 298.386 40.322 289.362 82.6644 280.338C130.18 268.83 178.852 262.775 227.739 262.29C258.281 262.29 289.517 262.29 320.059 266.455C347.063 267.758 373.957 270.772 400.579 275.479C440.145 283.115 479.711 292.832 519.971 302.55C558.603 311.667 598.49 314.248 637.974 310.186C678.083 305.699 717.774 298.04 756.672 287.279L926.042 242.855C953.845 235.383 982.775 233.031 1011.42 235.913C1045.43 235.913 1080.83 244.243 1114.15 249.796L1312.68 286.585C1358.43 295.744 1404.87 301.085 1451.5 302.55H1532.02V281.032C1493.15 281.032 1453.59 281.032 1414.71 274.091C1316.15 262.985 1218.27 249.102 1120.4 237.301L1015.59 226.889C971.741 225.212 927.912 230.602 885.781 242.855C816.368 259.514 746.954 276.173 677.54 291.444C615.765 306.705 551.204 306.705 489.429 291.444C443.813 278.814 397.445 269.077 350.602 262.29C303.15 256.541 255.407 253.528 207.609 253.267C152.486 254.173 97.5977 260.685 43.7927 272.702C-26.7243 287.188 -98.9354 291.628 -170.696 285.891L-203.32 281.726V306.021H-147.095C-113.442 310.188 -79.4039 310.188 -45.7511 306.021Z" fill="inherit"/>
<path d="M-30.48 675.998C32.6865 675.998 95.853 675.998 159.02 675.998C222.186 675.998 283.964 682.246 345.743 675.998C386.003 675.998 425.568 670.445 465.134 666.975C517.693 660.129 571.052 662.715 622.703 674.61C713.755 696.994 806.722 710.706 900.359 715.564L1135.67 732.224C1205.12 736.231 1274.78 734.374 1343.91 726.671C1377.23 723.2 1413.33 718.341 1444.56 716.258C1475.8 714.176 1504.26 716.258 1534.11 716.258V702.376H1481.35C1457.06 702.376 1432.76 707.929 1411.94 710.011L1339.05 718.341C1311.29 718.341 1283.52 723.2 1256.45 723.894C1222.03 726.666 1187.44 726.666 1153.02 723.894L1083.61 716.258C1061.4 716.258 1039.88 710.705 1017.67 709.317L939.23 703.764L837.886 698.211L749.037 691.964C709.995 686.538 671.459 677.949 633.81 666.281C588.982 651.925 542.028 645.352 494.982 646.845C470.687 646.845 445.698 646.845 421.404 653.092C364.044 660.132 306.347 664.071 248.563 664.892C170.82 664.892 93.0765 664.892 15.3331 664.892C-19.3738 664.892 -54.0807 664.892 -88.0935 669.751L-189.438 674.61H-203.32V691.964L-165.837 688.493C-120.718 682.246 -75.599 676.693 -30.48 675.998Z" fill="inherit"/>
<path d="M-4.08839 803.721C28.4452 806.85 60.6977 812.419 92.3968 820.38L245.107 859.252C282.875 868.581 321.47 874.162 360.334 875.911C416.658 876.261 472.893 871.381 528.315 861.334C561.493 855.206 595.26 852.877 628.965 854.393C669.919 858.558 710.179 864.111 751.133 868.97C792.087 873.829 825.406 877.994 862.889 880.076C920.31 882.957 977.869 881.332 1035.04 875.217L1139.85 864.805L1241.19 851.616C1280.99 845.967 1321.09 842.722 1361.28 841.899C1399.28 840.854 1437.26 844.35 1474.42 852.311L1532.04 866.193V849.534L1507.74 843.981C1471.36 835.227 1434.1 830.57 1396.68 830.098C1372.39 830.098 1348.09 830.098 1327.27 830.098C1306.44 830.098 1288.4 833.569 1269.65 835.651L1215.51 841.899L1159.29 848.84L1093.34 855.781L1023.93 860.64C994.082 860.64 964.234 865.499 935.08 865.499C905.926 865.499 859.419 865.499 821.241 860.64C794.17 860.64 767.793 854.393 741.415 850.228L654.648 838.428C617.28 834.267 579.566 834.267 542.198 838.428C505.409 843.981 469.313 848.146 432.524 852.311C398.851 856.128 364.854 856.128 331.18 852.311C293.732 847.552 256.633 840.364 220.118 830.792C153.901 812.055 86.6983 796.992 18.8182 785.673C-4.19551 782.282 -27.5819 782.282 -50.5956 785.673C-77.9234 789.905 -104.546 797.845 -129.727 809.274C-154.716 819.686 -179.011 831.486 -204 842.593V860.64L-123.48 830.792C-86.5834 811.897 -45.5263 802.588 -4.08839 803.721Z" fill="inherit"/>
<path d="M194.421 113.746C269.221 131.467 345.019 144.679 421.404 153.312C473.81 160.056 527.051 155.56 577.584 140.123C622.548 125.455 669.202 116.591 716.412 113.746C788.656 110.278 861.059 112.367 932.983 119.993C979.453 123.5 1026.19 120.462 1071.81 110.969L1223.13 77.6509C1296.5 60.1447 1372.16 54.2886 1447.34 60.2974C1476.41 63.4194 1505.73 63.4194 1534.8 60.2974V40.8616C1500.18 44.327 1465.3 44.327 1430.68 40.8616C1376.28 36.9493 1321.61 40.6878 1268.25 51.9678C1218.97 61.6857 1170.38 74.1802 1121.09 85.2864C1091.25 92.2278 1061.4 99.1691 1030.86 104.028C994.925 108.888 958.502 108.888 922.571 104.028C878.146 99.1691 834.415 94.3102 789.991 91.5336C719.651 85.6373 648.843 93.8983 581.749 115.828C538.631 131.364 492.863 138.206 447.087 135.958C419.881 135.135 392.755 132.585 365.872 128.323C312.424 123.464 261.058 113.746 213.162 102.64C165.267 91.5336 95.1588 78.345 37.5454 70.7095C-20.068 63.074 -58.2456 56.8267 -106.141 47.8029L-203.32 29.7554V47.1088C-133.907 58.9092 -64.4928 71.4036 4.92096 81.1216C74.3347 90.8395 130.56 99.1691 194.421 113.746Z" fill="inherit"/>
<path d="M53.5106 251.884C96.2086 244.86 139.356 240.916 182.62 240.083C241.423 239.613 300.164 244.024 358.237 253.272C401.274 260.213 444.31 269.931 488.041 278.955C514.047 285.199 540.507 289.377 567.172 291.449C605.937 291.793 644.609 287.599 682.399 278.955C751.813 264.378 821.227 248.413 890.641 233.142C923.746 224.283 957.739 219.16 991.985 217.871C1023.92 217.871 1056.54 217.871 1088.47 222.036L1207.86 231.754C1255.76 235.918 1303.65 238.695 1351.55 244.942C1412.63 251.884 1474.41 256.743 1535.49 260.907V239.389L1445.95 232.448C1400.83 228.283 1355.71 222.036 1311.29 219.259C1245.34 215.788 1179.4 213.706 1113.46 211.624H1062.09C1004.38 208.031 946.442 212.47 889.947 224.812L740.707 257.437C695.058 268.627 648.662 276.514 601.879 281.037C581.092 282.776 560.195 282.776 539.407 281.037C513.03 281.037 487.347 272.014 461.664 266.46C407.539 253.392 352.569 244.114 297.153 238.695C267.305 238.695 237.457 232.448 207.609 232.448C177.761 232.448 132.642 232.448 95.1589 232.448C57.6754 232.448 31.2982 238.001 -0.632111 240.777C-55.6078 245.292 -110.861 245.292 -165.837 240.777L-203.32 238.001V260.907H-171.39C-96.3322 266.913 -20.8248 263.883 53.5106 251.884Z" fill="inherit"/>
<path d="M33.3806 222.038C63.9227 222.038 93.7706 217.873 123.618 217.873C153.466 217.873 193.032 217.873 233.292 222.732C256.199 222.732 279.105 222.732 302.706 228.979C326.307 235.226 366.567 238.003 398.497 243.556C430.427 249.109 467.911 258.827 506.782 265.074C525.987 268.785 545.536 270.414 565.09 269.933C591.644 269.221 618.102 266.436 644.222 261.603C683.093 255.356 721.965 247.026 760.837 239.391L907.3 209.543C939.336 203.478 971.874 200.457 1004.48 200.519C1091.94 200.519 1178.71 200.519 1265.47 200.519C1310.59 200.519 1355.71 200.519 1400.83 208.155C1445.95 215.79 1486.21 215.79 1529.25 219.261V201.908L1464 196.354C1394.94 187.686 1325.35 183.974 1255.76 185.248L1011.42 192.19C992.679 192.19 974.631 192.19 955.89 192.19C919.1 197.049 882.311 201.908 846.216 208.849C768.472 222.038 691.423 237.309 614.374 251.191C587.916 256.742 560.851 258.841 533.854 257.439C506.088 257.439 479.017 249.803 451.251 244.944C423.486 240.085 392.944 233.144 363.096 228.285C333.248 223.426 308.953 219.955 281.882 216.484L185.397 206.072C137.773 203.298 90.0281 203.298 42.4044 206.072C-17.9452 209.194 -78.4159 209.194 -138.766 206.072L-203.32 199.131V219.955L-110.306 224.12C-62.4104 226.203 -14.4344 225.508 33.3806 222.038Z" fill="inherit"/>
<path d="M32.6865 780.122C79.8878 789.146 127.089 799.558 171.514 810.664C215.939 821.77 261.752 832.877 310.341 839.818C358.243 846.409 406.821 846.409 454.722 839.818C489.429 836.347 524.136 831.488 558.149 826.629C595.916 821.419 634.22 821.419 671.987 826.629C711.553 832.182 751.119 839.124 790.685 843.983C830.25 848.842 860.099 851.618 898.97 851.618C937.842 851.618 989.208 851.618 1034.33 847.453C1079.45 843.289 1103.74 841.9 1142.61 838.43C1181.48 834.959 1212.03 831.488 1247.43 827.323C1289.77 821.443 1332.41 817.966 1375.15 816.911C1419.67 816.182 1464.13 820.372 1507.73 829.406L1532.02 834.959V821.076C1496.06 813.79 1459.66 808.92 1423.04 806.499C1363.87 805.815 1304.72 809.295 1246.04 816.911L1127.34 830.794L1024.61 837.735C931.888 844.523 838.69 840.329 746.954 825.241C713.635 819.688 677.54 815.523 646.304 811.358C601.734 808.667 557.001 811.23 513.03 818.994C464.905 827.289 416.075 830.776 367.261 829.406C320.419 826.546 273.943 819.342 228.433 807.888C163.184 793.311 97.9354 776.651 31.9923 766.933C-14.554 759.505 -62.2104 763.556 -106.835 778.734L-203.32 813.441V830.794L-138.766 804.417C-85.4722 778.883 -25.6028 770.399 32.6865 780.122Z" fill="inherit"/>
<path d="M-133.907 90.1451L-69.3518 99.1689L-6.87938 106.804L62.5344 115.828L125.007 124.852C149.996 129.017 174.985 134.57 199.279 139.429L282.576 154.7L351.99 166.5L413.074 175.524C435.286 175.524 458.193 181.077 482.488 182.465C519.569 184.11 556.659 179.416 592.161 168.583C622.574 160.674 653.392 154.417 684.482 149.841C712.302 145.505 740.342 142.724 768.472 141.511C810.121 141.511 851.075 141.511 892.723 141.511C939.026 143.275 985.394 142.116 1031.55 138.041C1050.06 138.041 1068.8 135.264 1087.78 129.711L1157.19 117.216L1226.6 104.028C1246.73 100.557 1266.17 97.0865 1286.3 95.0041C1304.46 92.117 1322.77 90.2629 1341.14 89.451H1421.66C1443.17 89.451 1464.69 92.9216 1486.9 92.9216C1509.12 92.9216 1520.92 92.9216 1537.58 92.9216V73.4858C1515.62 74.8738 1493.59 74.8738 1471.63 73.4858C1446.64 73.4858 1422.35 73.4858 1397.36 69.321C1349.59 68.5106 1301.87 72.9332 1255.06 82.5096C1198.14 92.9217 1140.53 105.416 1082.92 117.216C1044.57 125.253 1005.48 129.208 966.302 129.017L856.628 124.852C810.391 122.159 764.037 122.159 717.8 124.852C673.057 128.339 628.831 136.719 585.914 149.841C546.873 161.963 505.908 166.672 465.134 163.724C427.188 160.022 389.01 155.163 350.602 149.147C292.294 145.676 240.928 136.652 190.256 124.852C139.584 113.052 106.265 108.887 63.9226 101.945C21.5803 95.0041 -17.9856 91.5334 -58.9397 85.9803L-203.32 63.0737V80.4272H-199.85L-133.907 90.1451Z" fill="inherit"/>
<path d="M-107.529 701.685C-80.2258 696.72 -52.6374 693.474 -24.927 691.967C7.00337 691.967 39.6278 691.967 71.5582 695.438L119.454 698.908L188.867 705.85L254.116 712.791L327.695 718.344C388.721 719.375 449.74 715.894 510.253 707.932C549.118 704.233 588.292 705.399 626.868 711.403C665.74 717.65 703.917 725.286 742.789 730.839C781.661 736.392 820.533 741.945 859.404 745.416C898.276 748.886 935.759 750.274 973.937 751.663C1035.02 751.663 1096.11 756.522 1157.88 757.91H1221.74L1300.18 752.357L1345.3 748.192L1407.77 742.639C1425.82 742.639 1444.56 742.639 1462.61 742.639C1480.66 742.639 1509.12 742.639 1532.02 742.639V729.45H1506.34C1441.79 729.45 1377.93 739.168 1314.06 744.027C1273.11 744.027 1232.16 750.275 1191.2 750.275C1150.25 750.275 1117.62 750.274 1080.83 746.11L887.17 735.698C817.249 731.519 747.683 722.707 678.929 709.32C648.386 703.073 618.539 696.826 587.997 692.661C547.672 687.46 506.847 687.46 466.522 692.661C413.352 699.357 359.742 701.909 306.177 700.297C226.351 696.826 143.748 691.967 61.1461 685.72C11.7182 681.563 -37.9714 681.563 -87.3993 685.72L-203.32 701.685V715.568C-169.308 710.709 -138.766 705.156 -107.529 701.685Z" fill="inherit"/>
<path d="M-1.32628 136.657C38.2396 141.516 78.4995 144.292 118.065 149.845C157.631 155.398 213.162 163.728 260.364 171.364L451.251 201.906C494.084 209.44 537.995 208.259 580.361 198.435C697.099 172.483 816.184 158.528 935.759 156.787C988.926 155.384 1041.98 151.214 1094.72 144.292C1152.33 135.268 1209.94 126.245 1268.25 118.609C1317.45 111.669 1367.28 110.272 1416.8 114.444C1454.97 114.444 1493.85 119.997 1532.02 119.997V104.032H1527.86C1489.15 104.26 1450.45 102.406 1411.94 98.4792C1365.59 95.523 1319.07 97.384 1273.11 104.032L1184.95 117.915C1141.92 124.856 1098.88 133.186 1055.85 139.433C1031.47 143.121 1006.9 145.438 982.267 146.375C929.512 146.375 877.452 146.375 825.392 150.539C783.743 150.539 742.095 156.787 700.447 160.257C661.33 164.911 622.592 172.334 584.526 182.47C560.122 189.491 534.94 193.454 509.559 194.27C488.041 194.27 465.828 194.27 444.31 190.105C422.792 185.941 395.72 183.858 374.896 179.693L305.483 167.893L220.798 153.316L143.748 136.657L65.3109 127.633L-12.4325 119.303L-81.8462 111.668L-151.26 101.95L-203.32 95.7026V113.056H-193.602L-1.32628 136.657Z" fill="inherit"/>
<path d="M48.6517 192.187C84.0527 192.187 118.065 192.187 154.855 192.187C213.856 197.74 272.858 204.681 331.86 213.705C390.862 222.729 429.039 230.364 477.629 239.388C518.895 247.369 561.307 247.369 602.573 239.388C637.974 233.141 671.987 226.2 709.471 220.646L883.699 191.493C921.089 185.012 958.907 181.3 996.844 180.387H1066.26L1262.7 169.28C1318.73 166.046 1374.93 167.672 1430.68 174.139C1464 178.304 1500.09 181.081 1530.64 183.163V167.892C1499.4 167.892 1468.86 163.727 1438.32 160.257C1407.77 156.786 1393.2 155.398 1365.43 154.703C1301.91 153.925 1238.4 156.938 1175.24 163.727L1089.16 171.363C1055.15 171.363 1019.75 175.528 985.737 177.61C951.725 179.692 921.183 182.469 889.252 185.94C857.322 189.41 819.839 194.269 791.379 199.128L685.87 216.482L576.89 235.223C552.745 239.031 528.151 239.031 504.006 235.223C479.017 235.223 454.028 226.894 429.039 222.729L306.177 206.07L220.104 192.881C190.256 188.716 159.714 184.551 129.172 181.775C98.6296 178.998 59.7578 177.61 27.8275 176.916C-36.0331 176.916 -99.1997 169.974 -162.366 165.115L-203.32 163.033V181.081H-179.025C-103.364 188.022 -27.0093 192.881 48.6517 192.187Z" fill="inherit"/>
<path d="M-45.7511 713.482C-16.4026 711.406 13.0559 711.406 42.4044 713.482L151.384 726.67C199.279 732.918 246.481 740.553 293.682 747.495C356.109 755.828 419.367 755.828 481.793 747.495C509.559 744.024 537.324 741.247 565.09 739.859C616.15 739.749 667.088 744.867 717.106 755.13C756.672 760.683 796.238 767.625 835.804 771.095C875.37 774.566 924.653 777.342 969.772 778.037C1031.55 778.037 1094.02 778.037 1156.5 778.037C1205.08 778.037 1252.98 771.789 1301.57 768.319L1407.08 761.377C1448.66 757.91 1490.45 757.91 1532.02 761.377V748.883H1509.81C1467.44 746.916 1424.98 748.076 1382.78 752.354L1319.62 757.907L1254.37 763.46L1159.97 767.625C1128.04 767.625 1096.11 767.625 1064.17 767.625H931.595H902.441C878.84 767.625 855.24 764.154 833.027 761.377C810.815 758.601 795.544 757.907 777.496 755.13L708.082 744.024L633.115 732.918C609.185 727.637 584.736 725.076 560.231 725.282C519.971 725.282 479.711 732.918 440.145 735.694C400.579 738.471 381.143 735.694 351.296 735.694C332.031 735.318 312.8 733.928 293.682 731.529C274.246 731.529 254.81 727.365 236.069 725.282L184.008 718.341L127.783 712.094L72.9464 705.846L4.92096 703.764C-20.7621 703.764 -47.1394 703.764 -72.8224 703.764C-98.5055 703.764 -120.718 710.705 -142.236 714.87L-203.32 728.059V742.636L-147.095 729.447C-113.806 721.371 -79.9112 716.032 -45.7511 713.482Z" fill="inherit"/>
<path d="M-114.471 154.011L-30.4801 160.259L54.2047 165.117L110.43 169.282L170.126 176.224L225.657 184.553L288.129 193.577L351.99 206.072L413.768 217.178C440.839 221.343 467.911 226.896 494.982 229.672C513.434 231.753 532.061 231.753 550.513 229.672C582.443 225.507 614.374 218.566 646.304 213.013L715.718 201.213L771.249 192.883L823.309 186.636L869.122 181.083L926.736 175.53H974.631L1046.13 166.506L1089.86 162.341L1152.33 155.4L1204.39 149.846L1263.39 144.293L1316.15 140.823C1343.91 140.823 1371.68 140.823 1399.44 140.823C1427.21 140.823 1453.59 147.07 1481.35 148.458H1529.25V136.658C1493.85 136.658 1459.83 136.658 1423.74 130.411C1377.62 125.043 1331.03 125.043 1284.91 130.411C1256.68 134.575 1227.07 136.658 1196.06 136.658L1087.08 150.541C1057.93 150.541 1027.39 156.788 997.538 158.87C967.69 160.953 939.924 158.87 910.77 163.035C864.957 163.035 818.45 171.365 771.943 176.224C711.903 182.361 652.317 192.331 593.55 206.072C549.394 216.463 503.601 217.879 458.887 210.236L342.272 192.883L190.95 168.588C134.031 159.564 74.3347 153.317 18.8037 149.152C-36.7273 144.987 -101.976 136.658 -162.366 132.493L-203.32 129.022V146.376H-190.132C-165.143 148.458 -139.46 151.929 -114.471 154.011Z" fill="inherit"/>
<path d="M35.463 756.517C86.1351 765.541 136.113 775.259 186.091 785.671C236.069 796.083 280.494 807.189 328.389 812.742C370.128 817.599 412.289 817.599 454.028 812.742L550.513 800.942C596.55 794.297 643.303 794.297 689.341 800.942C730.989 807.883 772.637 814.131 814.285 819.684C860.285 825.877 906.743 827.967 953.113 825.931C1016.28 825.931 1079.45 821.072 1141.92 816.907C1191.2 813.437 1239.79 807.189 1289.08 803.025C1323.78 803.025 1358.49 797.471 1393.2 796.083C1439.75 795.496 1486.24 799.448 1532.02 807.883V797.471L1466.77 788.448C1432.37 785.324 1397.75 785.324 1363.35 788.448L1269.64 796.777L1200.23 803.025L1115.54 810.66C1090.55 810.66 1065.56 810.66 1039.88 810.66H901.053C879.534 810.66 858.016 810.66 836.498 810.66L767.084 802.33L699.059 791.918C675.458 791.918 651.163 785.671 629.645 784.283C583.163 782.978 536.664 786.233 490.817 794.001C465.134 794.001 438.757 799.554 412.38 800.942C362.707 802.59 313.026 797.925 264.528 787.059L154.855 764.847C105.165 754.115 54.8602 746.465 4.22682 741.94C-28.9027 739.389 -62.2252 742.44 -94.3407 750.964L-203.32 783.589V798.86L-144.319 778.036C-87.5174 754.44 -25.3023 746.994 35.463 756.517Z" fill="inherit"/>
<path d="M-11.0442 732.227C25.479 734.062 61.866 738.002 97.9354 744.027L236.763 769.016C274.802 777.034 313.276 782.828 351.99 786.37C403.044 788.811 454.214 786.02 504.7 778.04C524.83 778.04 545.654 772.487 566.478 771.099C608.049 769.143 649.71 771.704 690.729 778.734L815.674 797.476C848.298 800.947 885.087 803.723 914.241 804.417C943.395 805.112 989.208 804.417 1026.69 804.417C1090.55 804.417 1155.11 804.417 1218.27 795.394L1287.69 789.146C1316.15 789.146 1344.61 783.593 1373.07 782.205C1408.41 779.429 1443.92 779.429 1479.27 782.205L1529.25 788.452V775.264C1502.87 775.264 1477.19 770.405 1450.81 769.711C1381.4 769.711 1315.45 777.346 1248.12 782.899C1212.72 782.899 1178.71 788.452 1142.61 789.841C1106.52 791.229 1064.17 789.841 1024.61 789.841C962.356 792.508 899.997 791.349 837.886 786.37C785.826 780.123 734.46 771.793 683.093 764.157C630.055 755.537 576.052 754.602 522.748 761.381C485.958 765.546 448.475 769.711 411.686 771.793C353.466 773.873 295.207 768.98 238.151 757.216C164.573 744.027 90.994 730.839 16.7213 724.592C-26.0631 720.998 -69.1459 724.042 -111 733.615L-203.32 755.134V769.711L-133.907 749.581C-94.1755 737.123 -52.6714 731.261 -11.0442 732.227Z" fill="inherit"/>
</svg>
