<svg width="1440" height="103" viewBox="0 0 1440 103" fill="none" xmlns="http://www.w3.org/2000/svg">
<rect x="-21" width="212" height="54" rx="20" fill="#05B851"/>
<rect x="182" y="49" width="72" height="54" rx="16" fill="#05B851"/>
<path d="M182 74.5C183.5 49 168 54 156 54L191 25C190.5 49.5 198.5 49 216 49L182 74.5Z" fill="#05B851"/>
<rect width="142" height="54" rx="20" transform="matrix(-1 0 0 1 1392 0)" fill="#05B851"/>
<rect width="72" height="54" rx="16" transform="matrix(-1 0 0 1 1259 49)" fill="#05B851"/>
<path d="M1259 74.5C1257.5 49 1273 54 1285 54L1250 25C1250.5 49.5 1242.5 49 1225 49L1259 74.5Z" fill="#05B851"/>
<rect width="64" height="54" rx="16" transform="matrix(-1 0 0 1 1465 24)" fill="#011945"/>
</svg>
