<svg width="1405" height="311" viewBox="0 0 1405 311" fill="none" xmlns="http://www.w3.org/2000/svg">
<path d="M-49 224.5C28.6667 168.167 264.7 55.5 587.5 55.5C910.3 55.5 1145.5 188 1224.5 270.5" stroke="url(#paint0_linear_3594_16488)"/>
<path d="M656 257.5C661.051 189.156 721 121.355 830.5 84.285C874 69.5584 1009 73.9745 1058 101.474" stroke="url(#paint1_linear_3594_16488)"/>
<path d="M338.502 255.5C403.999 195.5 564.648 69.4432 887.105 84.3055C1209.56 99.1678 1322.34 212.689 1396.5 272.5" stroke="url(#paint2_linear_3594_16488)"/>
<path d="M32.6 123.02H25.48V126.38H31.1V128.6H25.48V134H22.72V120.8H32.6V123.02ZM45.1861 120.8V128.8C45.1861 130.6 44.7061 131.953 43.7461 132.86C42.7861 133.753 41.3861 134.2 39.5461 134.2C37.7061 134.2 36.3061 133.753 35.3461 132.86C34.3861 131.953 33.9061 130.6 33.9061 128.8V120.8H36.6661V128.68C36.6661 129.787 36.8994 130.607 37.3661 131.14C37.8461 131.673 38.5728 131.94 39.5461 131.94C40.5194 131.94 41.2394 131.673 41.7061 131.14C42.1728 130.607 42.4061 129.787 42.4061 128.68V120.8H45.1861ZM58.9053 120.8V134H55.7453L51.1253 126.24L49.9853 124.08H49.9653L50.0453 126.36V134H47.5653V120.8H50.7053L55.3253 128.54L56.4653 130.72H56.5053L56.4253 128.44V120.8H58.9053ZM73.0105 134H70.1505L69.0505 130.78H63.9905L62.8905 134H60.0705L64.8905 120.8H68.1905L73.0105 134ZM64.6105 128.74H68.4305L66.5105 122.98L64.6105 128.74ZM76.9284 120.8V134H74.1684V120.8H76.9284Z" fill="#858484"/>
<path d="M50 143.5C47.8128 143.503 45.7158 144.373 44.1692 145.919C42.6226 147.466 41.7526 149.563 41.75 151.75C41.7474 153.537 42.3312 155.276 43.412 156.7C43.412 156.7 43.637 156.996 43.6738 157.039L50 164.5L56.3293 157.035C56.3623 156.996 56.588 156.7 56.588 156.7L56.5888 156.698C57.669 155.275 58.2526 153.537 58.25 151.75C58.2474 149.563 57.3774 147.466 55.8308 145.919C54.2842 144.373 52.1873 143.503 50 143.5ZM50 154.75C49.4067 154.75 48.8266 154.574 48.3333 154.244C47.84 153.915 47.4554 153.446 47.2284 152.898C47.0013 152.35 46.9419 151.747 47.0577 151.165C47.1734 150.583 47.4591 150.048 47.8787 149.629C48.2982 149.209 48.8328 148.923 49.4147 148.808C49.9967 148.692 50.5999 148.751 51.1481 148.978C51.6962 149.205 52.1648 149.59 52.4944 150.083C52.8241 150.577 53 151.157 53 151.75C52.999 152.545 52.6826 153.308 52.1202 153.87C51.5578 154.433 50.7954 154.749 50 154.75Z" fill="#858484"/>
<circle cx="50" cy="169" r="2" fill="#858484"/>
<path d="M299.24 36.8V44.8C299.24 46.6 298.76 47.9533 297.8 48.86C296.84 49.7533 295.44 50.2 293.6 50.2C291.76 50.2 290.36 49.7533 289.4 48.86C288.44 47.9533 287.96 46.6 287.96 44.8V36.8H290.72V44.68C290.72 45.7867 290.953 46.6067 291.42 47.14C291.9 47.6733 292.627 47.94 293.6 47.94C294.573 47.94 295.293 47.6733 295.76 47.14C296.227 46.6067 296.46 45.7867 296.46 44.68V36.8H299.24ZM312.959 36.8V50H309.799L305.179 42.24L304.039 40.08H304.019L304.099 42.36V50H301.619V36.8H304.759L309.379 44.54L310.519 46.72H310.559L310.479 44.44V36.8H312.959ZM326.944 36.8V50H323.784L319.164 42.24L318.024 40.08H318.004L318.084 42.36V50H315.604V36.8H318.744L323.364 44.54L324.504 46.72H324.544L324.464 44.44V36.8H326.944Z" fill="#858484"/>
<path d="M308 59.5C305.813 59.5026 303.716 60.3726 302.169 61.9192C300.623 63.4658 299.753 65.5628 299.75 67.75C299.747 69.5374 300.331 71.2763 301.412 72.7C301.412 72.7 301.637 72.9963 301.674 73.039L308 80.5L314.329 73.0353C314.362 72.9955 314.588 72.7 314.588 72.7L314.589 72.6978C315.669 71.2747 316.253 69.5366 316.25 67.75C316.247 65.5628 315.377 63.4658 313.831 61.9192C312.284 60.3726 310.187 59.5026 308 59.5ZM308 70.75C307.407 70.75 306.827 70.5741 306.333 70.2444C305.84 69.9148 305.455 69.4462 305.228 68.8981C305.001 68.3499 304.942 67.7467 305.058 67.1647C305.173 66.5828 305.459 66.0482 305.879 65.6287C306.298 65.2091 306.833 64.9234 307.415 64.8076C307.997 64.6919 308.6 64.7513 309.148 64.9784C309.696 65.2054 310.165 65.5899 310.494 66.0833C310.824 66.5766 311 67.1567 311 67.75C310.999 68.5453 310.683 69.3078 310.12 69.8702C309.558 70.4326 308.795 70.749 308 70.75Z" fill="#858484"/>
<circle cx="308" cy="85" r="2" fill="#858484"/>
<path d="M485.24 107.8V115.8C485.24 117.6 484.76 118.953 483.8 119.86C482.84 120.753 481.44 121.2 479.6 121.2C477.76 121.2 476.36 120.753 475.4 119.86C474.44 118.953 473.96 117.6 473.96 115.8V107.8H476.72V115.68C476.72 116.787 476.953 117.607 477.42 118.14C477.9 118.673 478.627 118.94 479.6 118.94C480.573 118.94 481.293 118.673 481.76 118.14C482.227 117.607 482.46 116.787 482.46 115.68V107.8H485.24ZM490.379 107.8V121H487.619V107.8H490.379Z" fill="#858484"/>
<path d="M482.5 130.5C480.313 130.503 478.216 131.373 476.669 132.919C475.123 134.466 474.253 136.563 474.25 138.75C474.247 140.537 474.831 142.276 475.912 143.7C475.912 143.7 476.137 143.996 476.174 144.039L482.5 151.5L488.829 144.035C488.862 143.996 489.088 143.7 489.088 143.7L489.089 143.698C490.169 142.275 490.753 140.537 490.75 138.75C490.747 136.563 489.877 134.466 488.331 132.919C486.784 131.373 484.687 130.503 482.5 130.5ZM482.5 141.75C481.907 141.75 481.327 141.574 480.833 141.244C480.34 140.915 479.955 140.446 479.728 139.898C479.501 139.35 479.442 138.747 479.558 138.165C479.673 137.583 479.959 137.048 480.379 136.629C480.798 136.209 481.333 135.923 481.915 135.808C482.497 135.692 483.1 135.751 483.648 135.978C484.196 136.205 484.665 136.59 484.994 137.083C485.324 137.577 485.5 138.157 485.5 138.75C485.499 139.545 485.183 140.308 484.62 140.87C484.058 141.433 483.295 141.749 482.5 141.75Z" fill="#858484"/>
<circle cx="482.5" cy="156" r="2" fill="#858484"/>
<path d="M259.18 274H256.32L255.22 270.78H250.16L249.06 274H246.24L251.06 260.8H254.36L259.18 274ZM250.78 268.74H254.6L252.68 262.98L250.78 268.74ZM270.85 260.8V268.8C270.85 270.6 270.37 271.953 269.41 272.86C268.45 273.753 267.05 274.2 265.21 274.2C263.37 274.2 261.97 273.753 261.01 272.86C260.05 271.953 259.57 270.6 259.57 268.8V260.8H262.33V268.68C262.33 269.787 262.563 270.607 263.03 271.14C263.51 271.673 264.237 271.94 265.21 271.94C266.183 271.94 266.903 271.673 267.37 271.14C267.837 270.607 268.07 269.787 268.07 268.68V260.8H270.85ZM284.569 260.8V274H281.409L276.789 266.24L275.649 264.08H275.629L275.709 266.36V274H273.229V260.8H276.369L280.989 268.54L282.129 270.72H282.169L282.089 268.44V260.8H284.569Z" fill="#858484"/>
<path d="M266.5 283.5C264.313 283.503 262.216 284.373 260.669 285.919C259.123 287.466 258.253 289.563 258.25 291.75C258.247 293.537 258.831 295.276 259.912 296.7C259.912 296.7 260.137 296.996 260.174 297.039L266.5 304.5L272.829 297.035C272.862 296.996 273.088 296.7 273.088 296.7L273.089 296.698C274.169 295.275 274.753 293.537 274.75 291.75C274.747 289.563 273.877 287.466 272.331 285.919C270.784 284.373 268.687 283.503 266.5 283.5ZM266.5 294.75C265.907 294.75 265.327 294.574 264.833 294.244C264.34 293.915 263.955 293.446 263.728 292.898C263.501 292.35 263.442 291.747 263.558 291.165C263.673 290.583 263.959 290.048 264.379 289.629C264.798 289.209 265.333 288.923 265.915 288.808C266.497 288.692 267.1 288.751 267.648 288.978C268.196 289.205 268.665 289.59 268.994 290.083C269.324 290.577 269.5 291.157 269.5 291.75C269.499 292.545 269.183 293.308 268.62 293.87C268.058 294.433 267.295 294.749 266.5 294.75Z" fill="#858484"/>
<circle cx="266.5" cy="309" r="2" fill="#858484"/>
<path d="M1039.24 112.8V120.8C1039.24 122.6 1038.76 123.953 1037.8 124.86C1036.84 125.753 1035.44 126.2 1033.6 126.2C1031.76 126.2 1030.36 125.753 1029.4 124.86C1028.44 123.953 1027.96 122.6 1027.96 120.8V112.8H1030.72V120.68C1030.72 121.787 1030.95 122.607 1031.42 123.14C1031.9 123.673 1032.63 123.94 1033.6 123.94C1034.57 123.94 1035.29 123.673 1035.76 123.14C1036.23 122.607 1036.46 121.787 1036.46 120.68V112.8H1039.24ZM1052.96 112.8V126H1049.8L1045.18 118.24L1044.04 116.08H1044.02L1044.1 118.36V126H1041.62V112.8H1044.76L1049.38 120.54L1050.52 122.72H1050.56L1050.48 120.44V112.8H1052.96ZM1058.36 112.8V126H1055.6V112.8H1058.36ZM1063.76 123.78H1070.72V126H1061V112.8H1063.76V123.78ZM1083.67 126H1080.81L1079.71 122.78H1074.65L1073.55 126H1070.73L1075.55 112.8H1078.85L1083.67 126ZM1075.27 120.74H1079.09L1077.17 114.98L1075.27 120.74ZM1089.76 126.2C1088.54 126.2 1087.48 125.933 1086.56 125.4C1085.65 124.867 1084.94 124.093 1084.44 123.08C1083.93 122.067 1083.68 120.847 1083.68 119.42C1083.68 118.007 1083.94 116.793 1084.48 115.78C1085.01 114.753 1085.76 113.967 1086.74 113.42C1087.72 112.873 1088.86 112.6 1090.16 112.6C1091.58 112.6 1092.74 112.867 1093.62 113.4C1094.5 113.92 1095.2 114.733 1095.72 115.84L1093.16 116.94C1092.94 116.233 1092.58 115.713 1092.06 115.38C1091.55 115.033 1090.92 114.86 1090.18 114.86C1089.43 114.86 1088.78 115.04 1088.24 115.4C1087.69 115.747 1087.27 116.26 1086.98 116.94C1086.68 117.607 1086.54 118.427 1086.54 119.4C1086.54 120.4 1086.68 121.247 1086.96 121.94C1087.24 122.62 1087.65 123.133 1088.2 123.48C1088.76 123.813 1089.44 123.98 1090.26 123.98C1090.7 123.98 1091.1 123.927 1091.48 123.82C1091.86 123.713 1092.2 123.553 1092.48 123.34C1092.76 123.127 1092.98 122.853 1093.14 122.52C1093.3 122.187 1093.38 121.8 1093.38 121.36V121.06H1089.92V119.04H1095.76V126H1093.82L1093.62 123.12L1094.1 123.46C1093.8 124.34 1093.28 125.02 1092.54 125.5C1091.8 125.967 1090.88 126.2 1089.76 126.2Z" fill="#858484"/>
<path d="M1062 135.5C1059.81 135.503 1057.72 136.373 1056.17 137.919C1054.62 139.466 1053.75 141.563 1053.75 143.75C1053.75 145.537 1054.33 147.276 1055.41 148.7C1055.41 148.7 1055.64 148.996 1055.67 149.039L1062 156.5L1068.33 149.035C1068.36 148.996 1068.59 148.7 1068.59 148.7L1068.59 148.698C1069.67 147.275 1070.25 145.537 1070.25 143.75C1070.25 141.563 1069.38 139.466 1067.83 137.919C1066.28 136.373 1064.19 135.503 1062 135.5ZM1062 146.75C1061.41 146.75 1060.83 146.574 1060.33 146.244C1059.84 145.915 1059.46 145.446 1059.23 144.898C1059 144.35 1058.94 143.747 1059.06 143.165C1059.17 142.583 1059.46 142.048 1059.88 141.629C1060.3 141.209 1060.83 140.923 1061.41 140.808C1062 140.692 1062.6 140.751 1063.15 140.978C1063.7 141.205 1064.16 141.59 1064.49 142.083C1064.82 142.577 1065 143.157 1065 143.75C1065 144.545 1064.68 145.308 1064.12 145.87C1063.56 146.433 1062.8 146.749 1062 146.75Z" fill="#858484"/>
<circle cx="1062" cy="161" r="2" fill="#858484"/>
<path d="M504.1 10.02H496.98V13.38H502.6V15.6H496.98V21H494.22V7.8H504.1V10.02ZM516.686 7.8V15.8C516.686 17.6 516.206 18.9533 515.246 19.86C514.286 20.7533 512.886 21.2 511.046 21.2C509.206 21.2 507.806 20.7533 506.846 19.86C505.886 18.9533 505.406 17.6 505.406 15.8V7.8H508.166V15.68C508.166 16.7867 508.399 17.6067 508.866 18.14C509.346 18.6733 510.073 18.94 511.046 18.94C512.019 18.94 512.739 18.6733 513.206 18.14C513.673 17.6067 513.906 16.7867 513.906 15.68V7.8H516.686ZM529.505 7.8V10.02H525.085V21H522.325V10.02H517.885V7.8H529.505ZM536.153 7.6C537.459 7.6 538.586 7.87333 539.533 8.42C540.479 8.96667 541.206 9.74667 541.713 10.76C542.233 11.7733 542.493 12.9867 542.493 14.4C542.493 15.8133 542.233 17.0267 541.713 18.04C541.206 19.0533 540.479 19.8333 539.533 20.38C538.586 20.9267 537.459 21.2 536.153 21.2C534.846 21.2 533.713 20.9267 532.753 20.38C531.806 19.8333 531.073 19.0533 530.553 18.04C530.046 17.0267 529.793 15.8133 529.793 14.4C529.793 12.9867 530.046 11.7733 530.553 10.76C531.073 9.74667 531.806 8.96667 532.753 8.42C533.713 7.87333 534.846 7.6 536.153 7.6ZM536.153 9.86C535.406 9.86 534.773 10.0333 534.253 10.38C533.733 10.7267 533.333 11.24 533.053 11.92C532.786 12.5867 532.653 13.4133 532.653 14.4C532.653 15.3733 532.786 16.2 533.053 16.88C533.333 17.56 533.733 18.0733 534.253 18.42C534.773 18.7667 535.406 18.94 536.153 18.94C536.886 18.94 537.513 18.7667 538.033 18.42C538.553 18.0733 538.946 17.56 539.213 16.88C539.493 16.2 539.633 15.3733 539.633 14.4C539.633 13.4133 539.493 12.5867 539.213 11.92C538.946 11.24 538.553 10.7267 538.033 10.38C537.513 10.0333 536.886 9.86 536.153 9.86Z" fill="#858484"/>
<path d="M518.5 30.5C516.313 30.5026 514.216 31.3726 512.669 32.9192C511.123 34.4658 510.253 36.5628 510.25 38.75C510.247 40.5374 510.831 42.2763 511.912 43.7C511.912 43.7 512.137 43.9963 512.174 44.039L518.5 51.5L524.829 44.0353C524.862 43.9955 525.088 43.7 525.088 43.7L525.089 43.6978C526.169 42.2747 526.753 40.5366 526.75 38.75C526.747 36.5628 525.877 34.4658 524.331 32.9192C522.784 31.3726 520.687 30.5026 518.5 30.5ZM518.5 41.75C517.907 41.75 517.327 41.5741 516.833 41.2444C516.34 40.9148 515.955 40.4462 515.728 39.8981C515.501 39.3499 515.442 38.7467 515.558 38.1647C515.673 37.5828 515.959 37.0482 516.379 36.6287C516.798 36.2091 517.333 35.9234 517.915 35.8076C518.497 35.6919 519.1 35.7513 519.648 35.9784C520.196 36.2054 520.665 36.5899 520.994 37.0833C521.324 37.5766 521.5 38.1567 521.5 38.75C521.499 39.5453 521.183 40.3078 520.62 40.8702C520.058 41.4326 519.295 41.749 518.5 41.75Z" fill="#858484"/>
<circle cx="518.5" cy="56" r="2" fill="#858484"/>
<path d="M1176.68 106H1173.82L1172.72 102.78H1167.66L1166.56 106H1163.74L1168.56 92.8H1171.86L1176.68 106ZM1168.28 100.74H1172.1L1170.18 94.98L1168.28 100.74ZM1177.84 106V92.8H1183.62C1185.22 92.8 1186.4 93.1133 1187.16 93.74C1187.92 94.3667 1188.3 95.2533 1188.3 96.4C1188.3 97.1067 1188.08 97.7333 1187.66 98.28C1187.23 98.8267 1186.6 99.1733 1185.78 99.32V99.34C1186.7 99.4733 1187.4 99.82 1187.9 100.38C1188.39 100.94 1188.64 101.607 1188.64 102.38C1188.64 103.513 1188.22 104.4 1187.4 105.04C1186.58 105.68 1185.39 106 1183.82 106H1177.84ZM1180.52 103.92H1183.58C1184.32 103.92 1184.88 103.767 1185.24 103.46C1185.6 103.153 1185.78 102.727 1185.78 102.18C1185.78 101.62 1185.6 101.193 1185.24 100.9C1184.88 100.607 1184.32 100.46 1183.58 100.46H1180.52V103.92ZM1180.52 98.34H1183.26C1184.71 98.34 1185.44 97.7733 1185.44 96.64C1185.44 95.5067 1184.71 94.94 1183.26 94.94H1180.52V98.34ZM1195.3 92.6C1196.5 92.6 1197.55 92.8067 1198.46 93.22C1199.36 93.6333 1200.14 94.2467 1200.78 95.06L1199.24 96.84C1198.69 96.1467 1198.09 95.64 1197.44 95.32C1196.8 94.9867 1196.05 94.82 1195.2 94.82C1194.64 94.82 1194.17 94.8933 1193.8 95.04C1193.44 95.1867 1193.17 95.38 1193 95.62C1192.84 95.86 1192.76 96.1267 1192.76 96.42C1192.76 96.78 1192.9 97.0867 1193.18 97.34C1193.46 97.58 1193.94 97.78 1194.62 97.94L1197.08 98.5C1198.38 98.7933 1199.32 99.2333 1199.88 99.82C1200.45 100.393 1200.74 101.14 1200.74 102.06C1200.74 102.927 1200.51 103.673 1200.06 104.3C1199.6 104.913 1198.97 105.387 1198.16 105.72C1197.34 106.04 1196.41 106.2 1195.36 106.2C1194.44 106.2 1193.59 106.093 1192.82 105.88C1192.06 105.653 1191.38 105.347 1190.78 104.96C1190.18 104.573 1189.68 104.127 1189.28 103.62L1190.84 101.76C1191.14 102.187 1191.52 102.567 1191.98 102.9C1192.43 103.233 1192.94 103.5 1193.52 103.7C1194.1 103.887 1194.72 103.98 1195.36 103.98C1195.9 103.98 1196.36 103.92 1196.74 103.8C1197.12 103.667 1197.41 103.487 1197.6 103.26C1197.8 103.02 1197.9 102.733 1197.9 102.4C1197.9 102.053 1197.78 101.76 1197.54 101.52C1197.31 101.267 1196.88 101.073 1196.26 100.94L1193.58 100.34C1192.8 100.153 1192.14 99.9133 1191.58 99.62C1191.03 99.3133 1190.61 98.9267 1190.32 98.46C1190.04 97.98 1189.9 97.4133 1189.9 96.76C1189.9 95.9733 1190.11 95.2667 1190.54 94.64C1190.96 94.0133 1191.58 93.52 1192.38 93.16C1193.19 92.7867 1194.16 92.6 1195.3 92.6ZM1213.57 92.8V100.8C1213.57 102.6 1213.09 103.953 1212.13 104.86C1211.17 105.753 1209.77 106.2 1207.93 106.2C1206.09 106.2 1204.69 105.753 1203.73 104.86C1202.77 103.953 1202.29 102.6 1202.29 100.8V92.8H1205.05V100.68C1205.05 101.787 1205.28 102.607 1205.75 103.14C1206.23 103.673 1206.95 103.94 1207.93 103.94C1208.9 103.94 1209.62 103.673 1210.09 103.14C1210.55 102.607 1210.79 101.787 1210.79 100.68V92.8H1213.57Z" fill="#858484"/>
<path d="M1189.5 115.5C1187.31 115.503 1185.22 116.373 1183.67 117.919C1182.12 119.466 1181.25 121.563 1181.25 123.75C1181.25 125.537 1181.83 127.276 1182.91 128.7C1182.91 128.7 1183.14 128.996 1183.17 129.039L1189.5 136.5L1195.83 129.035C1195.86 128.996 1196.09 128.7 1196.09 128.7L1196.09 128.698C1197.17 127.275 1197.75 125.537 1197.75 123.75C1197.75 121.563 1196.88 119.466 1195.33 117.919C1193.78 116.373 1191.69 115.503 1189.5 115.5ZM1189.5 126.75C1188.91 126.75 1188.33 126.574 1187.83 126.244C1187.34 125.915 1186.96 125.446 1186.73 124.898C1186.5 124.35 1186.44 123.747 1186.56 123.165C1186.67 122.583 1186.96 122.048 1187.38 121.629C1187.8 121.209 1188.33 120.923 1188.91 120.808C1189.5 120.692 1190.1 120.751 1190.65 120.978C1191.2 121.205 1191.66 121.59 1191.99 122.083C1192.32 122.577 1192.5 123.157 1192.5 123.75C1192.5 124.545 1192.18 125.308 1191.62 125.87C1191.06 126.433 1190.3 126.749 1189.5 126.75Z" fill="#858484"/>
<circle cx="1189.5" cy="141" r="2" fill="#858484"/>
<path d="M1330.22 203V189.8H1340.12V192.02H1332.98V195.3H1338.6V197.42H1332.98V200.78H1340.4V203H1330.22ZM1346.9 189.6C1348.1 189.6 1349.15 189.807 1350.06 190.22C1350.96 190.633 1351.74 191.247 1352.38 192.06L1350.84 193.84C1350.29 193.147 1349.69 192.64 1349.04 192.32C1348.4 191.987 1347.65 191.82 1346.8 191.82C1346.24 191.82 1345.77 191.893 1345.4 192.04C1345.04 192.187 1344.77 192.38 1344.6 192.62C1344.44 192.86 1344.36 193.127 1344.36 193.42C1344.36 193.78 1344.5 194.087 1344.78 194.34C1345.06 194.58 1345.54 194.78 1346.22 194.94L1348.68 195.5C1349.98 195.793 1350.92 196.233 1351.48 196.82C1352.05 197.393 1352.34 198.14 1352.34 199.06C1352.34 199.927 1352.11 200.673 1351.66 201.3C1351.2 201.913 1350.57 202.387 1349.76 202.72C1348.94 203.04 1348.01 203.2 1346.96 203.2C1346.04 203.2 1345.19 203.093 1344.42 202.88C1343.66 202.653 1342.98 202.347 1342.38 201.96C1341.78 201.573 1341.28 201.127 1340.88 200.62L1342.44 198.76C1342.74 199.187 1343.12 199.567 1343.58 199.9C1344.03 200.233 1344.54 200.5 1345.12 200.7C1345.7 200.887 1346.32 200.98 1346.96 200.98C1347.5 200.98 1347.96 200.92 1348.34 200.8C1348.72 200.667 1349.01 200.487 1349.2 200.26C1349.4 200.02 1349.5 199.733 1349.5 199.4C1349.5 199.053 1349.38 198.76 1349.14 198.52C1348.91 198.267 1348.48 198.073 1347.86 197.94L1345.18 197.34C1344.4 197.153 1343.74 196.913 1343.18 196.62C1342.63 196.313 1342.21 195.927 1341.92 195.46C1341.64 194.98 1341.5 194.413 1341.5 193.76C1341.5 192.973 1341.71 192.267 1342.14 191.64C1342.56 191.013 1343.18 190.52 1343.98 190.16C1344.79 189.787 1345.76 189.6 1346.9 189.6ZM1365.17 189.8V197.8C1365.17 199.6 1364.69 200.953 1363.73 201.86C1362.77 202.753 1361.37 203.2 1359.53 203.2C1357.69 203.2 1356.29 202.753 1355.33 201.86C1354.37 200.953 1353.89 199.6 1353.89 197.8V189.8H1356.65V197.68C1356.65 198.787 1356.88 199.607 1357.35 200.14C1357.83 200.673 1358.55 200.94 1359.53 200.94C1360.5 200.94 1361.22 200.673 1361.69 200.14C1362.15 199.607 1362.39 198.787 1362.39 197.68V189.8H1365.17ZM1377.99 189.8V192.02H1373.57V203H1370.81V192.02H1366.37V189.8H1377.99Z" fill="#858484"/>
<path d="M1354 212.5C1351.81 212.503 1349.72 213.373 1348.17 214.919C1346.62 216.466 1345.75 218.563 1345.75 220.75C1345.75 222.537 1346.33 224.276 1347.41 225.7C1347.41 225.7 1347.64 225.996 1347.67 226.039L1354 233.5L1360.33 226.035C1360.36 225.996 1360.59 225.7 1360.59 225.7L1360.59 225.698C1361.67 224.275 1362.25 222.537 1362.25 220.75C1362.25 218.563 1361.38 216.466 1359.83 214.919C1358.28 213.373 1356.19 212.503 1354 212.5ZM1354 223.75C1353.41 223.75 1352.83 223.574 1352.33 223.244C1351.84 222.915 1351.46 222.446 1351.23 221.898C1351 221.35 1350.94 220.747 1351.06 220.165C1351.17 219.583 1351.46 219.048 1351.88 218.629C1352.3 218.209 1352.83 217.923 1353.41 217.808C1354 217.692 1354.6 217.751 1355.15 217.978C1355.7 218.205 1356.16 218.59 1356.49 219.083C1356.82 219.577 1357 220.157 1357 220.75C1357 221.545 1356.68 222.308 1356.12 222.87C1355.56 223.433 1354.8 223.749 1354 223.75Z" fill="#858484"/>
<circle cx="1354" cy="238" r="2" fill="#858484"/>
<path d="M903.52 38.36C903.267 39.2133 902.867 39.9267 902.32 40.5C901.773 41.0733 901.127 41.5 900.38 41.78C899.633 42.06 898.813 42.2 897.92 42.2C896.613 42.2 895.48 41.9267 894.52 41.38C893.573 40.8333 892.84 40.0533 892.32 39.04C891.813 38.0267 891.56 36.8133 891.56 35.4C891.56 33.9867 891.813 32.7733 892.32 31.76C892.84 30.7467 893.573 29.9667 894.52 29.42C895.48 28.8733 896.6 28.6 897.88 28.6C898.787 28.6 899.607 28.7267 900.34 28.98C901.073 29.22 901.693 29.5933 902.2 30.1C902.72 30.6067 903.1 31.2467 903.34 32.02L900.84 33.08C900.613 32.28 900.267 31.7133 899.8 31.38C899.333 31.0333 898.733 30.86 898 30.86C897.28 30.86 896.647 31.0333 896.1 31.38C895.567 31.7267 895.153 32.24 894.86 32.92C894.567 33.5867 894.42 34.4133 894.42 35.4C894.42 36.3733 894.553 37.2 894.82 37.88C895.1 38.56 895.507 39.0733 896.04 39.42C896.573 39.7667 897.227 39.94 898 39.94C898.72 39.94 899.34 39.7467 899.86 39.36C900.393 38.9733 900.767 38.3867 900.98 37.6L903.52 38.36ZM910.772 28.6C912.079 28.6 913.206 28.8733 914.152 29.42C915.099 29.9667 915.826 30.7467 916.332 31.76C916.852 32.7733 917.112 33.9867 917.112 35.4C917.112 36.8133 916.852 38.0267 916.332 39.04C915.826 40.0533 915.099 40.8333 914.152 41.38C913.206 41.9267 912.079 42.2 910.772 42.2C909.466 42.2 908.332 41.9267 907.372 41.38C906.426 40.8333 905.692 40.0533 905.172 39.04C904.666 38.0267 904.412 36.8133 904.412 35.4C904.412 33.9867 904.666 32.7733 905.172 31.76C905.692 30.7467 906.426 29.9667 907.372 29.42C908.332 28.8733 909.466 28.6 910.772 28.6ZM910.772 30.86C910.026 30.86 909.392 31.0333 908.872 31.38C908.352 31.7267 907.952 32.24 907.672 32.92C907.406 33.5867 907.272 34.4133 907.272 35.4C907.272 36.3733 907.406 37.2 907.672 37.88C907.952 38.56 908.352 39.0733 908.872 39.42C909.392 39.7667 910.026 39.94 910.772 39.94C911.506 39.94 912.132 39.7667 912.652 39.42C913.172 39.0733 913.566 38.56 913.832 37.88C914.112 37.2 914.252 36.3733 914.252 35.4C914.252 34.4133 914.112 33.5867 913.832 32.92C913.566 32.24 913.172 31.7267 912.652 31.38C912.132 31.0333 911.506 30.86 910.772 30.86ZM930.145 28.8L925.345 42H922.125L917.305 28.8H920.225L923.005 37.2L923.765 39.8L924.505 37.22L927.305 28.8H930.145ZM931.343 42V28.8H941.243V31.02H934.103V34.3H939.723V36.42H934.103V39.78H941.523V42H931.343ZM954.54 28.8V42H951.38L946.76 34.24L945.62 32.08H945.6L945.68 34.36V42H943.2V28.8H946.34L950.96 36.54L952.1 38.72H952.14L952.06 36.44V28.8H954.54ZM968.645 42H965.785L964.685 38.78H959.625L958.525 42H955.705L960.525 28.8H963.825L968.645 42ZM960.245 36.74H964.065L962.145 30.98L960.245 36.74ZM981.143 28.8V42H977.983L973.363 34.24L972.223 32.08H972.203L972.283 34.36V42H969.803V28.8H972.943L977.563 36.54L978.703 38.72H978.743L978.663 36.44V28.8H981.143ZM994.228 28.8V31.02H989.808V42H987.048V31.02H982.608V28.8H994.228Z" fill="#858484"/>
<path d="M943 51.5C940.813 51.5026 938.716 52.3726 937.169 53.9192C935.623 55.4658 934.753 57.5628 934.75 59.75C934.747 61.5374 935.331 63.2763 936.412 64.7C936.412 64.7 936.637 64.9963 936.674 65.039L943 72.5L949.329 65.0353C949.362 64.9955 949.588 64.7 949.588 64.7L949.589 64.6978C950.669 63.2747 951.253 61.5366 951.25 59.75C951.247 57.5628 950.377 55.4658 948.831 53.9192C947.284 52.3726 945.187 51.5026 943 51.5ZM943 62.75C942.407 62.75 941.827 62.5741 941.333 62.2444C940.84 61.9148 940.455 61.4462 940.228 60.8981C940.001 60.3499 939.942 59.7467 940.058 59.1647C940.173 58.5828 940.459 58.0482 940.879 57.6287C941.298 57.2091 941.833 56.9234 942.415 56.8076C942.997 56.6919 943.6 56.7513 944.148 56.9784C944.696 57.2054 945.165 57.5899 945.494 58.0833C945.824 58.5766 946 59.1567 946 59.75C945.999 60.5453 945.683 61.3078 945.12 61.8702C944.558 62.4326 943.795 62.749 943 62.75Z" fill="#858484"/>
<circle cx="943" cy="77" r="2" fill="#858484"/>
<path d="M729.24 73.8V81.8C729.24 83.6 728.76 84.9533 727.8 85.86C726.84 86.7533 725.44 87.2 723.6 87.2C721.76 87.2 720.36 86.7533 719.4 85.86C718.44 84.9533 717.96 83.6 717.96 81.8V73.8H720.72V81.68C720.72 82.7867 720.953 83.6067 721.42 84.14C721.9 84.6733 722.627 84.94 723.6 84.94C724.573 84.94 725.293 84.6733 725.76 84.14C726.227 83.6067 726.46 82.7867 726.46 81.68V73.8H729.24ZM742.959 73.8V87H739.799L735.179 79.24L734.039 77.08H734.019L734.099 79.36V87H731.619V73.8H734.759L739.379 81.54L740.519 83.72H740.559L740.479 81.44V73.8H742.959ZM748.364 73.8V87H745.604V73.8H748.364ZM752.396 85.76L751.896 84.8H761.136V87H750.156V84.92L758.676 75.04L759.156 76H750.316V73.8H760.896V75.88L752.396 85.76ZM765.612 73.8V87H762.852V73.8H765.612ZM779.623 73.8L773.583 80.66L773.363 80.44L770.063 84.18L769.643 81.62L776.423 73.8H779.623ZM771.003 73.8V87H768.243V73.8H771.003ZM774.343 78.36L779.783 87H776.623L772.223 79.9L774.343 78.36Z" fill="#858484"/>
<path d="M748.5 96.5C746.313 96.5026 744.216 97.3726 742.669 98.9192C741.123 100.466 740.253 102.563 740.25 104.75C740.247 106.537 740.831 108.276 741.912 109.7C741.912 109.7 742.137 109.996 742.174 110.039L748.5 117.5L754.829 110.035C754.862 109.996 755.088 109.7 755.088 109.7L755.089 109.698C756.169 108.275 756.753 106.537 756.75 104.75C756.747 102.563 755.877 100.466 754.331 98.9192C752.784 97.3726 750.687 96.5026 748.5 96.5ZM748.5 107.75C747.907 107.75 747.327 107.574 746.833 107.244C746.34 106.915 745.955 106.446 745.728 105.898C745.501 105.35 745.442 104.747 745.558 104.165C745.673 103.583 745.959 103.048 746.379 102.629C746.798 102.209 747.333 101.923 747.915 101.808C748.497 101.692 749.1 101.751 749.648 101.978C750.196 102.205 750.665 102.59 750.994 103.083C751.324 103.577 751.5 104.157 751.5 104.75C751.499 105.545 751.183 106.308 750.62 106.87C750.058 107.433 749.295 107.749 748.5 107.75Z" fill="#858484"/>
<circle cx="748.5" cy="122" r="2" fill="#858484"/>
<path d="M604.74 224.8V232.8C604.74 234.6 604.26 235.953 603.3 236.86C602.34 237.753 600.94 238.2 599.1 238.2C597.26 238.2 595.86 237.753 594.9 236.86C593.94 235.953 593.46 234.6 593.46 232.8V224.8H596.22V232.68C596.22 233.787 596.453 234.607 596.92 235.14C597.4 235.673 598.127 235.94 599.1 235.94C600.073 235.94 600.793 235.673 601.26 235.14C601.727 234.607 601.96 233.787 601.96 232.68V224.8H604.74ZM618.459 224.8V238H615.299L610.679 230.24L609.539 228.08H609.519L609.599 230.36V238H607.119V224.8H610.259L614.879 232.54L616.019 234.72H616.059L615.979 232.44V224.8H618.459ZM623.864 224.8V238H621.104V224.8H623.864ZM635.236 224.8V233.14C635.236 234.727 634.789 235.967 633.896 236.86C633.002 237.753 631.736 238.2 630.096 238.2C628.922 238.2 627.969 237.987 627.236 237.56C626.502 237.133 625.996 236.533 625.716 235.76C625.436 234.987 625.382 234.1 625.556 233.1L628.236 232.62C628.076 233.793 628.149 234.64 628.456 235.16C628.762 235.68 629.329 235.94 630.156 235.94C631.022 235.94 631.622 235.673 631.956 235.14C632.302 234.607 632.476 233.813 632.476 232.76V224.8H635.236ZM643.368 224.6C644.675 224.6 645.802 224.873 646.748 225.42C647.695 225.967 648.422 226.747 648.928 227.76C649.448 228.773 649.708 229.987 649.708 231.4C649.708 232.813 649.448 234.027 648.928 235.04C648.422 236.053 647.695 236.833 646.748 237.38C645.802 237.927 644.675 238.2 643.368 238.2C642.062 238.2 640.928 237.927 639.968 237.38C639.022 236.833 638.288 236.053 637.768 235.04C637.262 234.027 637.008 232.813 637.008 231.4C637.008 229.987 637.262 228.773 637.768 227.76C638.288 226.747 639.022 225.967 639.968 225.42C640.928 224.873 642.062 224.6 643.368 224.6ZM643.368 226.86C642.622 226.86 641.988 227.033 641.468 227.38C640.948 227.727 640.548 228.24 640.268 228.92C640.002 229.587 639.868 230.413 639.868 231.4C639.868 232.373 640.002 233.2 640.268 233.88C640.548 234.56 640.948 235.073 641.468 235.42C641.988 235.767 642.622 235.94 643.368 235.94C644.102 235.94 644.728 235.767 645.248 235.42C645.768 235.073 646.162 234.56 646.428 233.88C646.708 233.2 646.848 232.373 646.848 231.4C646.848 230.413 646.708 229.587 646.428 228.92C646.162 228.24 645.768 227.727 645.248 227.38C644.728 227.033 644.102 226.86 643.368 226.86ZM656.435 224.6C657.635 224.6 658.688 224.807 659.595 225.22C660.501 225.633 661.275 226.247 661.915 227.06L660.375 228.84C659.828 228.147 659.228 227.64 658.575 227.32C657.935 226.987 657.188 226.82 656.335 226.82C655.775 226.82 655.308 226.893 654.935 227.04C654.575 227.187 654.308 227.38 654.135 227.62C653.975 227.86 653.895 228.127 653.895 228.42C653.895 228.78 654.035 229.087 654.315 229.34C654.595 229.58 655.075 229.78 655.755 229.94L658.215 230.5C659.521 230.793 660.455 231.233 661.015 231.82C661.588 232.393 661.875 233.14 661.875 234.06C661.875 234.927 661.648 235.673 661.195 236.3C660.741 236.913 660.108 237.387 659.295 237.72C658.481 238.04 657.548 238.2 656.495 238.2C655.575 238.2 654.728 238.093 653.955 237.88C653.195 237.653 652.515 237.347 651.915 236.96C651.315 236.573 650.815 236.127 650.415 235.62L651.975 233.76C652.281 234.187 652.661 234.567 653.115 234.9C653.568 235.233 654.081 235.5 654.655 235.7C655.241 235.887 655.855 235.98 656.495 235.98C657.041 235.98 657.501 235.92 657.875 235.8C658.261 235.667 658.548 235.487 658.735 235.26C658.935 235.02 659.035 234.733 659.035 234.4C659.035 234.053 658.915 233.76 658.675 233.52C658.448 233.267 658.021 233.073 657.395 232.94L654.715 232.34C653.941 232.153 653.275 231.913 652.715 231.62C652.168 231.313 651.748 230.927 651.455 230.46C651.175 229.98 651.035 229.413 651.035 228.76C651.035 227.973 651.248 227.267 651.675 226.64C652.101 226.013 652.715 225.52 653.515 225.16C654.328 224.787 655.301 224.6 656.435 224.6Z" fill="#858484"/>
<path d="M627.5 247.5C625.313 247.503 623.216 248.373 621.669 249.919C620.123 251.466 619.253 253.563 619.25 255.75C619.247 257.537 619.831 259.276 620.912 260.7C620.912 260.7 621.137 260.996 621.174 261.039L627.5 268.5L633.829 261.035C633.862 260.996 634.088 260.7 634.088 260.7L634.089 260.698C635.169 259.275 635.753 257.537 635.75 255.75C635.747 253.563 634.877 251.466 633.331 249.919C631.784 248.373 629.687 247.503 627.5 247.5ZM627.5 258.75C626.907 258.75 626.327 258.574 625.833 258.244C625.34 257.915 624.955 257.446 624.728 256.898C624.501 256.35 624.442 255.747 624.558 255.165C624.673 254.583 624.959 254.048 625.379 253.629C625.798 253.209 626.333 252.923 626.915 252.808C627.497 252.692 628.1 252.751 628.648 252.978C629.196 253.205 629.665 253.59 629.994 254.083C630.324 254.577 630.5 255.157 630.5 255.75C630.499 256.545 630.183 257.308 629.62 257.87C629.058 258.433 628.295 258.749 627.5 258.75Z" fill="#858484"/>
<circle cx="627.5" cy="273" r="2" fill="#858484"/>
<path d="M627.68 68H624.82L623.72 64.78H618.66L617.56 68H614.74L619.56 54.8H622.86L627.68 68ZM619.28 62.74H623.1L621.18 56.98L619.28 62.74ZM628.838 68V54.8H634.618C636.218 54.8 637.398 55.1133 638.158 55.74C638.918 56.3667 639.298 57.2533 639.298 58.4C639.298 59.1067 639.085 59.7333 638.658 60.28C638.231 60.8267 637.605 61.1733 636.778 61.32V61.34C637.698 61.4733 638.405 61.82 638.898 62.38C639.391 62.94 639.638 63.6067 639.638 64.38C639.638 65.5133 639.225 66.4 638.398 67.04C637.585 67.68 636.391 68 634.818 68H628.838ZM631.518 65.92H634.578C635.325 65.92 635.878 65.7667 636.238 65.46C636.598 65.1533 636.778 64.7267 636.778 64.18C636.778 63.62 636.598 63.1933 636.238 62.9C635.878 62.6067 635.325 62.46 634.578 62.46H631.518V65.92ZM631.518 60.34H634.258C635.711 60.34 636.438 59.7733 636.438 58.64C636.438 57.5067 635.711 56.94 634.258 56.94H631.518V60.34ZM652.495 54.8V62.8C652.495 64.6 652.015 65.9533 651.055 66.86C650.095 67.7533 648.695 68.2 646.855 68.2C645.015 68.2 643.615 67.7533 642.655 66.86C641.695 65.9533 641.215 64.6 641.215 62.8V54.8H643.975V62.68C643.975 63.7867 644.209 64.6067 644.675 65.14C645.155 65.6733 645.882 65.94 646.855 65.94C647.829 65.94 648.549 65.6733 649.015 65.14C649.482 64.6067 649.715 63.7867 649.715 62.68V54.8H652.495Z" fill="#858484"/>
<path d="M634.5 77.5C632.313 77.5026 630.216 78.3726 628.669 79.9192C627.123 81.4658 626.253 83.5628 626.25 85.75C626.247 87.5374 626.831 89.2763 627.912 90.7C627.912 90.7 628.137 90.9963 628.174 91.039L634.5 98.5L640.829 91.0353C640.862 90.9955 641.088 90.7 641.088 90.7L641.089 90.6978C642.169 89.2747 642.753 87.5366 642.75 85.75C642.747 83.5628 641.877 81.4658 640.331 79.9192C638.784 78.3726 636.687 77.5026 634.5 77.5ZM634.5 88.75C633.907 88.75 633.327 88.5741 632.833 88.2444C632.34 87.9148 631.955 87.4462 631.728 86.8981C631.501 86.3499 631.442 85.7467 631.558 85.1647C631.673 84.5828 631.959 84.0482 632.379 83.6287C632.798 83.2091 633.333 82.9234 633.915 82.8076C634.497 82.6919 635.1 82.7513 635.648 82.9784C636.196 83.2054 636.665 83.5899 636.994 84.0833C637.324 84.5766 637.5 85.1567 637.5 85.75C637.499 86.5453 637.183 87.3078 636.62 87.8702C636.058 88.4326 635.295 88.749 634.5 88.75Z" fill="#858484"/>
<circle cx="634.5" cy="103" r="2" fill="#858484"/>
<defs>
<linearGradient id="paint0_linear_3594_16488" x1="587.75" y1="55.5" x2="587.75" y2="270.5" gradientUnits="userSpaceOnUse">
<stop stop-color="#6A6A6A"/>
<stop offset="1" stop-color="#6A6A6A" stop-opacity="0"/>
</linearGradient>
<linearGradient id="paint1_linear_3594_16488" x1="1100" y1="109.474" x2="694" y2="258.285" gradientUnits="userSpaceOnUse">
<stop stop-color="#272727" stop-opacity="0"/>
<stop offset="0.523958" stop-color="#797979"/>
<stop offset="1" stop-color="#9C9C9C" stop-opacity="0"/>
</linearGradient>
<linearGradient id="paint2_linear_3594_16488" x1="875.806" y1="83.7847" x2="866.769" y2="279.848" gradientUnits="userSpaceOnUse">
<stop stop-color="#6A6A6A"/>
<stop offset="1" stop-color="#6A6A6A" stop-opacity="0"/>
</linearGradient>
</defs>
</svg>
