<svg width="67" height="67" viewBox="0 0 67 67" fill="none" xmlns="http://www.w3.org/2000/svg">
<g id="logos:telegram" clip-path="url(#clip0_3594_16664)">
<path id="Vector" d="M33.5 0C24.6173 0 16.0905 3.53163 9.81445 9.81184C3.53196 16.0945 0.00174027 24.6151 0 33.5C0 42.3812 3.5332 50.908 9.81445 57.1882C16.0905 63.4684 24.6173 67 33.5 67C42.3827 67 50.9095 63.4684 57.1855 57.1882C63.4668 50.908 67 42.3812 67 33.5C67 24.6188 63.4668 16.092 57.1855 9.81184C50.9095 3.53163 42.3827 0 33.5 0Z" fill="url(#paint0_linear_3594_16664)"/>
<path id="Vector_2" d="M15.1646 33.1462C24.9319 28.8917 31.4435 26.0865 34.6993 24.7314C44.006 20.8616 45.9375 20.1895 47.199 20.1667C47.4764 20.1623 48.094 20.2309 48.4971 20.5567C48.8321 20.8315 48.9263 21.2031 48.9734 21.4641C49.0153 21.7247 49.0729 22.3188 49.0258 22.7826C48.5233 28.0798 46.3405 40.9344 45.2308 46.8675C44.765 49.3779 43.8385 50.2196 42.9434 50.3018C40.9962 50.4808 39.5201 49.0163 37.6358 47.7815C34.6888 45.8484 33.0243 44.6455 30.1611 42.7596C26.8529 40.58 28.999 39.3819 30.8834 37.4242C31.3754 36.9118 39.9494 29.1152 40.1116 28.408C40.1326 28.3195 40.1535 27.9898 39.9546 27.816C39.7609 27.6417 39.473 27.7014 39.2637 27.7485C38.9653 27.8155 34.2596 30.9289 25.1308 37.0882C23.7961 38.0063 22.5869 38.4538 21.4982 38.4303C20.3047 38.4046 18.0016 37.754 16.29 37.1981C14.1962 36.516 12.5265 36.1554 12.673 34.997C12.7463 34.394 13.5786 33.7769 15.1646 33.1462Z" fill="white"/>
</g>
<defs>
<linearGradient id="paint0_linear_3594_16664" x1="3350" y1="0" x2="3350" y2="6700" gradientUnits="userSpaceOnUse">
<stop stop-color="#2AABEE"/>
<stop offset="1" stop-color="#229ED9"/>
</linearGradient>
<clipPath id="clip0_3594_16664">
<rect width="67" height="67" fill="white"/>
</clipPath>
</defs>
</svg>
