<svg width="78" height="63" viewBox="0 0 78 63" fill="none" xmlns="http://www.w3.org/2000/svg">
<path id="Vector" d="M1.12418 31.2601C0.890703 31.848 0.195312 49.1824 0.195312 49.1824C11.5903 45.6215 16.07 51.0469 21.4618 62.7207L38.3427 60.3019C44.44 43.4715 49.731 43.1187 54.7532 48.5105L57.9614 48.2586C60.6657 39.9609 65.9736 29.1437 72.222 17.3859L77.7986 14.6312L75.4638 9.60896L68.006 0.254785L62.5974 4.71771C53.0232 0.0565814 48.5552 3.08842 44.5239 6.78709C37.8724 2.21162 32.4134 2.16291 27.8446 5.51053C26.1146 -1.55592 9.4 -2.46463 9.04223 6.55193C5.05969 8.68514 5.9852 12.834 5.20582 16.2941C7.39109 21.7867 5.60895 26.0867 1.12418 31.2601Z" fill="#4D525F"/>
</svg>
