<svg width="2324" height="2029" viewBox="0 0 2324 2029" fill="none" xmlns="http://www.w3.org/2000/svg">
<g opacity="0.5">
<path opacity="0.4" d="M2090.32 1043.25C2090.32 1586.92 1622.59 2027.72 1045.51 2027.72C468.44 2027.72 0.70263 1586.92 0.70263 1043.25C0.70263 499.583 468.44 58.7837 1045.51 58.7837C1622.59 58.7837 2090.32 499.583 2090.32 1043.25Z" stroke="url(#paint0_linear_193_404)" stroke-width="1.40526"/>
<path opacity="0.4" d="M2322.84 1055.88C2322.84 1576.9 1874.58 1999.34 1321.55 1999.34C768.511 1999.34 320.256 1576.9 320.256 1055.88C320.256 534.855 768.511 112.416 1321.55 112.416C1874.58 112.416 2322.84 534.855 2322.84 1055.88Z" stroke="url(#paint1_linear_193_404)" stroke-width="1.34673"/>
<path d="M946.691 171.402C944.575 169.702 942.614 167.838 940.828 165.829C938.148 162.813 934.966 158.322 934.966 154.041C934.963 149.571 937.82 145.54 942.203 143.829C946.587 142.118 951.632 143.065 954.985 146.227C957.19 148.296 958.425 151.109 958.415 154.041C958.415 158.322 955.233 162.813 952.553 165.829C950.767 167.838 948.806 169.702 946.691 171.402ZM946.691 149.306C944.895 149.306 943.237 150.209 942.339 151.674C941.441 153.139 941.441 154.944 942.339 156.409C943.237 157.874 944.895 158.776 946.691 158.776C949.466 158.776 951.715 156.656 951.715 154.041C951.715 151.426 949.466 149.306 946.691 149.306Z" fill="#A2ABB3"/>
<path d="M925.095 106.46V117.145C925.095 118.415 925.425 119.372 926.084 120.015C926.759 120.658 927.692 120.98 928.882 120.98C930.088 120.98 931.02 120.658 931.68 120.015C932.355 119.372 932.693 118.415 932.693 117.145V106.46H935.442V117.096C935.442 118.463 935.145 119.621 934.55 120.57C933.955 121.518 933.159 122.226 932.162 122.692C931.165 123.158 930.064 123.391 928.858 123.391C927.652 123.391 926.55 123.158 925.553 122.692C924.572 122.226 923.793 121.518 923.214 120.57C922.635 119.621 922.345 118.463 922.345 117.096V106.46H925.095ZM952.795 123.223H950.045L941.772 110.705V123.223H939.022V106.435H941.772L950.045 118.929V106.435H952.795V123.223ZM970.178 123.223H967.428L959.155 110.705V123.223H956.405V106.435H959.155L967.428 118.929V106.435H970.178V123.223Z" fill="#A2ABB3"/>
<ellipse cx="947.36" cy="180.556" rx="2.67994" ry="2.52527" fill="#A2ABB3"/>
<path d="M1296.42 351.327C1294.31 349.627 1292.35 347.763 1290.56 345.755C1287.88 342.738 1284.7 338.247 1284.7 333.966C1284.7 329.496 1287.55 325.465 1291.94 323.754C1296.32 322.043 1301.36 322.99 1304.72 326.152C1306.92 328.221 1308.16 331.034 1308.15 333.966C1308.15 338.247 1304.97 342.738 1302.29 345.755C1300.5 347.763 1298.54 349.627 1296.42 351.327ZM1296.42 329.231C1294.63 329.231 1292.97 330.134 1292.07 331.599C1291.17 333.064 1291.17 334.869 1292.07 336.334C1292.97 337.799 1294.63 338.701 1296.42 338.701C1299.2 338.701 1301.45 336.581 1301.45 333.966C1301.45 331.351 1299.2 329.231 1296.42 329.231Z" fill="#A2ABB3"/>
<path d="M1255.4 285.754V296.438C1255.4 297.709 1255.73 298.666 1256.39 299.309C1257.06 299.952 1258 300.273 1259.19 300.273C1260.39 300.273 1261.32 299.952 1261.98 299.309C1262.66 298.666 1263 297.709 1263 296.438V285.754H1265.75V296.39C1265.75 297.757 1265.45 298.915 1264.85 299.863C1264.26 300.812 1263.46 301.52 1262.47 301.986C1261.47 302.452 1260.37 302.685 1259.16 302.685C1257.96 302.685 1256.85 302.452 1255.86 301.986C1254.88 301.52 1254.1 300.812 1253.52 299.863C1252.94 298.915 1252.65 297.757 1252.65 296.39V285.754H1255.4ZM1283.1 302.517H1280.35L1272.08 289.999V302.517H1269.33V285.729H1272.08L1280.35 298.223V285.729H1283.1V302.517ZM1289.46 285.754V302.517H1286.71V285.754H1289.46ZM1295.82 300.298H1301.49V302.517H1293.07V285.754H1295.82V300.298ZM1313.89 299.092H1306.87L1305.67 302.517H1302.8L1308.8 285.729H1311.99L1317.99 302.517H1315.1L1313.89 299.092ZM1313.12 296.849L1310.39 289.058L1307.64 296.849H1313.12ZM1332.74 290.577C1332.3 289.741 1331.7 289.114 1330.93 288.696C1330.15 288.262 1329.26 288.045 1328.25 288.045C1327.14 288.045 1326.15 288.294 1325.28 288.793C1324.41 289.291 1323.73 289.999 1323.23 290.915C1322.75 291.832 1322.51 292.893 1322.51 294.099C1322.51 295.305 1322.75 296.374 1323.23 297.307C1323.73 298.223 1324.41 298.931 1325.28 299.429C1326.15 299.928 1327.14 300.177 1328.25 300.177C1329.74 300.177 1330.96 299.759 1331.89 298.923C1332.82 298.087 1333.39 296.953 1333.6 295.522H1327.31V293.327H1336.55V295.474C1336.37 296.776 1335.9 297.974 1335.15 299.068C1334.41 300.161 1333.44 301.037 1332.23 301.697C1331.04 302.34 1329.71 302.661 1328.25 302.661C1326.67 302.661 1325.23 302.3 1323.93 301.576C1322.63 300.836 1321.59 299.815 1320.82 298.513C1320.06 297.21 1319.69 295.739 1319.69 294.099C1319.69 292.459 1320.06 290.987 1320.82 289.685C1321.59 288.383 1322.63 287.37 1323.93 286.646C1325.25 285.906 1326.69 285.536 1328.25 285.536C1330.03 285.536 1331.62 285.979 1333 286.863C1334.4 287.731 1335.41 288.969 1336.04 290.577H1332.74Z" fill="#A2ABB3"/>
<ellipse cx="1297.09" cy="360.482" rx="2.67994" ry="2.52527" fill="#A2ABB3"/>
<path d="M1280.34 74.811C1278.23 73.1106 1276.27 71.2464 1274.48 69.238C1271.8 66.2219 1268.62 61.7301 1268.62 57.4498C1268.62 52.9793 1271.47 48.9481 1275.86 47.2373C1280.24 45.5264 1285.28 46.4731 1288.64 49.6357C1290.84 51.7042 1292.08 54.5179 1292.07 57.4498C1292.07 61.7301 1288.89 66.2219 1286.21 69.238C1284.42 71.2464 1282.46 73.1106 1280.34 74.811ZM1280.34 52.7149C1278.55 52.7149 1276.89 53.6174 1275.99 55.0823C1275.09 56.5473 1275.09 58.3522 1275.99 59.8172C1276.89 61.2822 1278.55 62.1846 1280.34 62.1846C1283.12 62.1846 1285.37 60.0648 1285.37 57.4498C1285.37 54.8348 1283.12 52.7149 1280.34 52.7149Z" fill="#A2ABB3"/>
<path d="M1253.16 9.23695V11.4801H1246.04V16.4246H1251.59V18.6677H1246.04V26H1243.29V9.23695H1253.16ZM1258.43 9.23695V19.9219C1258.43 21.1922 1258.76 22.1489 1259.42 22.7921C1260.1 23.4353 1261.03 23.7569 1262.22 23.7569C1263.42 23.7569 1264.36 23.4353 1265.02 22.7921C1265.69 22.1489 1266.03 21.1922 1266.03 19.9219V9.23695H1268.78V19.8736C1268.78 21.2404 1268.48 22.3982 1267.89 23.3469C1267.29 24.2956 1266.5 25.0031 1265.5 25.4694C1264.5 25.9357 1263.4 26.1688 1262.19 26.1688C1260.99 26.1688 1259.89 25.9357 1258.89 25.4694C1257.91 25.0031 1257.13 24.2956 1256.55 23.3469C1255.97 22.3982 1255.68 21.2404 1255.68 19.8736V9.23695H1258.43ZM1283.19 9.23695V11.4801H1278.73V26H1275.98V11.4801H1271.49V9.23695H1283.19ZM1293.62 26.1688C1292.06 26.1688 1290.62 25.807 1289.3 25.0835C1288 24.3438 1286.96 23.3227 1286.19 22.0203C1285.43 20.7018 1285.06 19.2224 1285.06 17.5823C1285.06 15.9422 1285.43 14.4709 1286.19 13.1684C1286.96 11.866 1288 10.853 1289.3 10.1294C1290.62 9.3897 1292.06 9.01987 1293.62 9.01987C1295.2 9.01987 1296.63 9.3897 1297.94 10.1294C1299.26 10.853 1300.29 11.866 1301.05 13.1684C1301.8 14.4709 1302.18 15.9422 1302.18 17.5823C1302.18 19.2224 1301.8 20.7018 1301.05 22.0203C1300.29 23.3227 1299.26 24.3438 1297.94 25.0835C1296.63 25.807 1295.2 26.1688 1293.62 26.1688ZM1293.62 23.781C1294.73 23.781 1295.72 23.5318 1296.59 23.0333C1297.45 22.5188 1298.13 21.7952 1298.61 20.8625C1299.11 19.9138 1299.36 18.8204 1299.36 17.5823C1299.36 16.3442 1299.11 15.2588 1298.61 14.3262C1298.13 13.3935 1297.45 12.678 1296.59 12.1795C1295.72 11.6811 1294.73 11.4318 1293.62 11.4318C1292.51 11.4318 1291.52 11.6811 1290.65 12.1795C1289.78 12.678 1289.1 13.3935 1288.6 14.3262C1288.12 15.2588 1287.88 16.3442 1287.88 17.5823C1287.88 18.8204 1288.12 19.9138 1288.6 20.8625C1289.1 21.7952 1289.78 22.5188 1290.65 23.0333C1291.52 23.5318 1292.51 23.781 1293.62 23.781Z" fill="#A2ABB3"/>
<ellipse cx="1281.01" cy="83.9651" rx="2.67994" ry="2.52527" fill="#A2ABB3"/>
<path d="M707.505 101.958C705.389 100.257 703.428 98.393 701.643 96.3846C698.963 93.3685 695.78 88.8767 695.78 84.5964C695.778 80.1259 698.635 76.0947 703.018 74.3839C707.401 72.673 712.446 73.6197 715.799 76.7823C718.004 78.8508 719.24 81.6645 719.23 84.5964C719.23 88.8767 716.047 93.3685 713.367 96.3846C711.582 98.393 709.621 100.257 707.505 101.958ZM707.505 79.8615C705.71 79.8615 704.051 80.764 703.153 82.2289C702.256 83.6939 702.256 85.4988 703.153 86.9638C704.051 88.4288 705.71 89.3312 707.505 89.3312C710.28 89.3312 712.53 87.2114 712.53 84.5964C712.53 81.9814 710.28 79.8615 707.505 79.8615Z" fill="#A2ABB3"/>
<path d="M686.35 37.0149V39.258H679.234V44.2025H684.782V46.4456H679.234V53.778H676.485V37.0149H686.35ZM691.623 37.0149V47.6998C691.623 48.9701 691.953 49.9269 692.612 50.5701C693.288 51.2132 694.22 51.5348 695.41 51.5348C696.616 51.5348 697.549 51.2132 698.208 50.5701C698.883 49.9269 699.221 48.9701 699.221 47.6998V37.0149H701.971V47.6516C701.971 49.0184 701.673 50.1761 701.078 51.1248C700.483 52.0735 699.687 52.781 698.69 53.2473C697.693 53.7136 696.592 53.9468 695.386 53.9468C694.18 53.9468 693.079 53.7136 692.082 53.2473C691.101 52.781 690.321 52.0735 689.742 51.1248C689.163 50.1761 688.874 49.0184 688.874 47.6516V37.0149H691.623ZM719.323 53.778H716.573L708.3 41.2599V53.778H705.551V36.9908H708.3L716.573 49.4847V36.9908H719.323V53.778ZM733.04 50.353H726.021L724.815 53.778H721.945L727.95 36.9908H731.134L737.14 53.778H734.246L733.04 50.353ZM732.268 48.1099L729.542 40.3193L726.793 48.1099H732.268ZM742.501 37.0149V53.778H739.751V37.0149H742.501Z" fill="#A2ABB3"/>
<ellipse cx="708.175" cy="111.112" rx="2.67994" ry="2.52527" fill="#A2ABB3"/>
<path d="M1726.55 184.029C1724.44 182.328 1722.48 180.464 1720.69 178.456C1718.01 175.44 1714.83 170.948 1714.83 166.667C1714.83 162.197 1717.68 158.166 1722.07 156.455C1726.45 154.744 1731.5 155.691 1734.85 158.853C1737.05 160.922 1738.29 163.736 1738.28 166.667C1738.28 170.948 1735.1 175.44 1732.42 178.456C1730.63 180.464 1728.67 182.328 1726.55 184.029ZM1726.55 161.933C1724.76 161.933 1723.1 162.835 1722.2 164.3C1721.3 165.765 1721.3 167.57 1722.2 169.035C1723.1 170.5 1724.76 171.402 1726.55 171.402C1729.33 171.402 1731.58 169.282 1731.58 166.667C1731.58 164.052 1729.33 161.933 1726.55 161.933Z" fill="#A2ABB3"/>
<path d="M1692.9 119.086V129.771C1692.9 131.041 1693.23 131.998 1693.89 132.641C1694.56 133.284 1695.5 133.606 1696.69 133.606C1697.89 133.606 1698.82 133.284 1699.48 132.641C1700.16 131.998 1700.5 131.041 1700.5 129.771V119.086H1703.25V129.723C1703.25 131.09 1702.95 132.247 1702.35 133.196C1701.76 134.145 1700.96 134.852 1699.97 135.318C1698.97 135.785 1697.87 136.018 1696.66 136.018C1695.46 136.018 1694.35 135.785 1693.36 135.318C1692.38 134.852 1691.6 134.145 1691.02 133.196C1690.44 132.247 1690.15 131.09 1690.15 129.723V119.086H1692.9ZM1720.6 135.849H1717.85L1709.58 123.331V135.849H1706.83V119.062H1709.58L1717.85 131.556V119.062H1720.6V135.849ZM1726.96 119.086V135.849H1724.21V119.086H1726.96ZM1733.22 133.461H1741.01V135.849H1729.97V133.702L1737.73 121.474H1729.97V119.086H1741.01V121.233L1733.22 133.461ZM1746.77 119.086V135.849H1744.02V119.086H1746.77ZM1759.62 135.849L1753.13 128.348V135.849H1750.38V119.086H1753.13V126.732L1759.64 119.086H1763.09L1755.8 127.48L1763.21 135.849H1759.62Z" fill="#A2ABB3"/>
<ellipse cx="1726.55" cy="193.183" rx="2.67994" ry="2.52527" fill="#A2ABB3"/>
</g>
<defs>
<linearGradient id="paint0_linear_193_404" x1="1045.51" y1="58.0811" x2="1045.51" y2="2028.42" gradientUnits="userSpaceOnUse">
<stop stop-color="#A2ABB3"/>
<stop offset="0.174846" stop-color="#A2ABB3" stop-opacity="0"/>
</linearGradient>
<linearGradient id="paint1_linear_193_404" x1="1321.55" y1="111.743" x2="1321.55" y2="2000.01" gradientUnits="userSpaceOnUse">
<stop stop-color="#A2ABB3"/>
<stop offset="0.174846" stop-color="#A2ABB3" stop-opacity="0"/>
</linearGradient>
</defs>
</svg>
