<svg width="140" height="33" viewBox="0 0 140 33" fill="none" xmlns="http://www.w3.org/2000/svg">
<path d="M9.46614 10.6001H6.42569V24.3605H1.97473V10.6001H0V6.99543H1.97473V6.11778C1.97473 3.98633 2.58073 2.41908 3.79273 1.41605C5.00473 0.413014 6.83318 -0.0571586 9.27808 0.00553152V3.70422C8.21235 3.68333 7.47052 3.86095 7.05259 4.23709C6.63466 4.61322 6.42569 5.29236 6.42569 6.2745V6.99543H9.46614V10.6001Z" fill="#05B851"/>
<path d="M10.5546 15.6153C10.5546 13.86 10.8994 12.3032 11.589 10.9449C12.2995 9.58661 13.2503 8.54178 14.4414 7.8104C15.6534 7.07902 17.0012 6.71333 18.4849 6.71333C19.7805 6.71333 20.9089 6.97454 21.8701 7.49695C22.8523 8.01936 23.6359 8.67761 24.221 9.47168V6.99543H28.6406V24.3605H24.221V21.8215C23.6568 22.6365 22.8732 23.3157 21.8701 23.859C20.888 24.3814 19.7491 24.6426 18.4535 24.6426C16.9908 24.6426 15.6534 24.2664 14.4414 23.5142C13.2503 22.7619 12.2995 21.7066 11.589 20.3483C10.8994 18.9692 10.5546 17.3915 10.5546 15.6153ZM24.221 15.678C24.221 14.6122 24.012 13.7032 23.5941 12.951C23.1762 12.1778 22.612 11.5927 21.9015 11.1956C21.191 10.7777 20.4283 10.5687 19.6133 10.5687C18.7983 10.5687 18.0461 10.7673 17.3565 11.1643C16.6669 11.5613 16.1027 12.1464 15.6639 12.9196C15.2459 13.6719 15.037 14.5704 15.037 15.6153C15.037 16.6601 15.2459 17.5795 15.6639 18.3736C16.1027 19.1468 16.6669 19.7423 17.3565 20.1603C18.067 20.5782 18.8192 20.7872 19.6133 20.7872C20.4283 20.7872 21.191 20.5887 21.9015 20.1916C22.612 19.7737 23.1762 19.1886 23.5941 18.4363C24.012 17.6631 24.221 16.7437 24.221 15.678Z" fill="#05B851"/>
<path d="M51.6972 15.6153C51.6972 13.86 52.042 12.3032 52.7316 10.9449C53.4421 9.58661 54.3929 8.54178 55.584 7.8104C56.796 7.07902 58.1438 6.71333 59.6274 6.71333C60.923 6.71333 62.0515 6.97454 63.0127 7.49695C63.9948 8.01936 64.7785 8.67761 65.3636 9.47168V6.99543H69.7832V24.3605H65.3636V21.8215C64.7994 22.6365 64.0157 23.3157 63.0127 23.859C62.0306 24.3814 60.8917 24.6426 59.5961 24.6426C58.1333 24.6426 56.796 24.2664 55.584 23.5142C54.3929 22.7619 53.4421 21.7066 52.7316 20.3483C52.042 18.9692 51.6972 17.3915 51.6972 15.6153ZM65.3636 15.678C65.3636 14.6122 65.1546 13.7032 64.7367 12.951C64.3187 12.1778 63.7545 11.5927 63.044 11.1956C62.3336 10.7777 61.5708 10.5687 60.7559 10.5687C59.9409 10.5687 59.1886 10.7673 58.499 11.1643C57.8094 11.5613 57.2452 12.1464 56.8064 12.9196C56.3885 13.6719 56.1795 14.5704 56.1795 15.6153C56.1795 16.6601 56.3885 17.5795 56.8064 18.3736C57.2452 19.1468 57.8094 19.7423 58.499 20.1603C59.2095 20.5782 59.9618 20.7872 60.7559 20.7872C61.5708 20.7872 62.3336 20.5887 63.044 20.1916C63.7545 19.7737 64.3187 19.1886 64.7367 18.4363C65.1546 17.6631 65.3636 16.7437 65.3636 15.678Z" fill="#05B851"/>
<path d="M72.3138 15.6153C72.3138 13.86 72.6586 12.3032 73.3482 10.9449C74.0586 9.58661 75.0199 8.54178 76.2319 7.8104C77.4439 7.07902 78.7917 6.71333 80.2754 6.71333C81.4038 6.71333 82.48 6.96409 83.5039 7.46561C84.5278 7.94623 85.3428 8.59402 85.9488 9.40899V1.16529H90.3998V24.3605H85.9488V21.7902C85.4055 22.647 84.6428 23.3365 83.6606 23.859C82.6785 24.3814 81.5396 24.6426 80.244 24.6426C78.7813 24.6426 77.4439 24.2664 76.2319 23.5142C75.0199 22.7619 74.0586 21.7066 73.3482 20.3483C72.6586 18.9692 72.3138 17.3915 72.3138 15.6153ZM85.9801 15.678C85.9801 14.6122 85.7712 13.7032 85.3532 12.951C84.9353 12.1778 84.3711 11.5927 83.6606 11.1956C82.9501 10.7777 82.1874 10.5687 81.3724 10.5687C80.5575 10.5687 79.8052 10.7673 79.1156 11.1643C78.426 11.5613 77.8618 12.1464 77.423 12.9196C77.0051 13.6719 76.7961 14.5704 76.7961 15.6153C76.7961 16.6601 77.0051 17.5795 77.423 18.3736C77.8618 19.1468 78.426 19.7423 79.1156 20.1603C79.8261 20.5782 80.5784 20.7872 81.3724 20.7872C82.1874 20.7872 82.9501 20.5887 83.6606 20.1916C84.3711 19.7737 84.9353 19.1886 85.3532 18.4363C85.7712 17.6631 85.9801 16.7437 85.9801 15.678Z" fill="#05B851"/>
<path d="M92.9304 15.6153C92.9304 13.86 93.2752 12.3032 93.9648 10.9449C94.6752 9.58661 95.626 8.54178 96.8171 7.8104C98.0291 7.07902 99.377 6.71333 100.861 6.71333C102.156 6.71333 103.285 6.97454 104.246 7.49695C105.228 8.01936 106.012 8.67761 106.597 9.47168V6.99543H111.016V24.3605H106.597V21.8215C106.033 22.6365 105.249 23.3157 104.246 23.859C103.264 24.3814 102.125 24.6426 100.829 24.6426C99.3665 24.6426 98.0291 24.2664 96.8171 23.5142C95.626 22.7619 94.6752 21.7066 93.9648 20.3483C93.2752 18.9692 92.9304 17.3915 92.9304 15.6153ZM106.597 15.678C106.597 14.6122 106.388 13.7032 105.97 12.951C105.552 12.1778 104.988 11.5927 104.277 11.1956C103.567 10.7777 102.804 10.5687 101.989 10.5687C101.174 10.5687 100.422 10.7673 99.7322 11.1643C99.0426 11.5613 98.4784 12.1464 98.0396 12.9196C97.6216 13.6719 97.4127 14.5704 97.4127 15.6153C97.4127 16.6601 97.6216 17.5795 98.0396 18.3736C98.4784 19.1468 99.0426 19.7423 99.7322 20.1603C100.443 20.5782 101.195 20.7872 101.989 20.7872C102.804 20.7872 103.567 20.5887 104.277 20.1916C104.988 19.7737 105.552 19.1886 105.97 18.4363C106.388 17.6631 106.597 16.7437 106.597 15.678Z" fill="#05B851"/>
<path d="M131.288 6.99543L120.537 32.5728H115.866L119.628 23.9217L112.669 6.99543H117.59L122.073 19.1259L126.618 6.99543H131.288Z" fill="#05B851"/>
<g clip-path="url(#clip0_69_597)">
<path fill-rule="evenodd" clip-rule="evenodd" d="M31.1562 9.58339V21.9616C31.1562 22.7442 31.4693 23.5268 32.0562 24.0224C32.4084 24.3224 32.8388 24.5181 33.3736 24.5181H46.417C46.8996 24.5181 47.33 24.3224 47.604 24.1137C48.3474 23.5659 48.6213 22.8615 48.6344 21.9485C48.6344 21.8833 48.6474 21.8572 48.6474 21.792V21.6876C48.6344 19.3137 48.6474 16.9138 48.6474 14.5268C48.0344 14.7355 47.3561 14.9964 46.9779 15.192C46.9387 15.2051 46.8996 15.2181 46.8605 15.2442V19.379C46.8605 19.6137 46.8474 19.8224 46.8474 20.0442C46.8474 20.4877 46.8474 20.9442 46.8474 21.4007C46.8474 22.2746 46.9127 22.7311 46.1822 22.7702C46.0648 22.7702 45.9605 22.7572 45.8561 22.7702C45.5822 22.8094 35.7606 22.7833 35.4867 22.7833C35.2127 22.7833 34.978 22.7702 34.7171 22.7702C34.3519 22.7702 33.5301 22.8094 33.2432 22.6789C33.0606 22.6007 32.9562 22.4181 32.9562 22.1702C32.9562 22.105 32.9432 22.0789 32.9432 22.0007C32.9432 21.9355 32.9432 21.8703 32.9432 21.805C32.9432 21.6616 32.9301 21.5572 32.9301 21.4268L32.9171 17.4485C32.9171 16.8877 32.9301 16.3659 32.9301 15.8181V13.366C32.9301 13.079 32.9432 12.8442 32.9432 12.5573V10.1051C32.9432 9.80513 32.9171 9.23122 33.1258 9.04861C33.3084 8.87905 33.5301 8.87905 33.778 8.87905C33.8693 8.87905 33.8954 8.866 33.9736 8.866C37.2475 8.82687 40.6127 8.866 43.8735 8.866C44.2779 8.866 46.0518 8.83992 46.3648 8.90513C46.6127 8.95731 46.7692 9.0747 46.8214 9.32252C46.8605 9.57034 46.8214 9.87034 46.8474 10.1312C46.8735 10.3921 46.8605 10.7051 46.8605 10.979C46.8605 11.279 46.8735 11.5269 46.8735 11.8138V12.5181C47.4213 12.2964 47.9953 12.0877 48.5561 11.9312L48.6474 11.8921V10.066C48.6474 9.40078 48.5692 8.69644 48.217 8.16166C48.1779 8.0834 48.1257 8.03123 48.0735 7.95297C47.6822 7.45732 46.8996 7.0921 46.2474 7.0921H33.5823C33.2562 7.0921 32.878 7.19645 32.578 7.31384C31.678 7.6921 31.1562 8.59209 31.1562 9.58339Z" fill="#05B851"/>
<path fill-rule="evenodd" clip-rule="evenodd" d="M40.6131 16.6515C40.5218 16.5863 40.2739 16.3255 40.1826 16.2211C39.9609 16.0124 39.7392 15.8037 39.4913 15.6342L39.3609 15.5429C39.3218 15.5168 39.2696 15.4907 39.2305 15.4646C39.1913 15.4255 39.1392 15.3994 39.1 15.3733C38.5392 15.0994 37.9913 14.9037 37.3522 14.7342C36.7914 14.6037 36.1522 14.4472 35.5522 14.5124C35.487 14.5255 35.4218 14.5385 35.3566 14.5516C35.3566 14.7733 35.3435 14.9429 35.3435 15.1646C35.3435 15.3603 35.3175 15.582 35.3175 15.7776C35.3175 16.195 35.2783 16.5994 35.2783 17.0168C35.3305 17.0168 35.3305 17.0037 35.3957 17.0037C36.1914 17.0037 36.5305 17.0168 37.2479 17.2907C37.6913 17.4472 38.0957 17.7081 38.4479 18.0081C38.4739 18.0341 38.487 18.0472 38.5131 18.0733C38.6435 18.1646 38.7739 18.3081 38.8783 18.4254L38.9957 18.5689C39.3087 18.9472 39.5435 19.2863 39.7783 19.7167C40.0131 20.1602 40.1957 20.6167 40.3522 21.0863C40.3652 21.1515 40.3913 21.2428 40.4174 21.295C40.4957 21.2559 40.6131 21.2298 40.7044 21.2037L41.5913 20.9167C41.6957 20.8776 41.787 20.8515 41.8783 20.8254L42.4783 20.6298C42.5696 20.6037 42.7 20.5776 42.7783 20.5385C42.7783 20.4993 42.7652 20.4472 42.7652 20.395C42.7391 20.1733 42.7 19.9254 42.7 19.6907C42.7 19.6254 42.687 19.6124 42.687 19.5472C42.6609 18.8168 42.7261 18.1776 42.9609 17.4863C43.1043 17.0429 43.3261 16.6515 43.587 16.2733L43.7696 16.0255C43.9261 15.8429 44.213 15.5168 44.3956 15.3733C44.5783 15.2168 44.7609 15.0603 44.9565 14.9037L45.2174 14.7211C45.4 14.5907 45.5826 14.4733 45.7782 14.369C46.0261 14.2124 46.4043 13.9907 46.6782 13.8864C46.7304 13.8603 46.7695 13.8342 46.8217 13.8081C46.8739 13.782 46.9261 13.769 46.9782 13.7429C47.6043 13.4298 49.013 12.9342 49.6652 12.7516L50.3695 12.5429C50.4869 12.5038 50.6043 12.4646 50.7347 12.4385C50.6956 12.3733 50.4478 11.3299 50.4217 11.2255L50.1869 10.3255C50.1608 10.2342 50.1478 10.1038 50.1086 10.0255C49.9521 10.0386 48.7 10.4299 48.5565 10.482C47.8782 10.6777 47.1739 10.9385 46.5217 11.2125C46.4565 11.2385 46.4043 11.2646 46.3391 11.2907L45.8174 11.5125C45.7652 11.5516 45.713 11.5777 45.6478 11.6038C45.5304 11.6429 45.413 11.7081 45.3087 11.7603C44.9826 11.9429 44.6565 12.1125 44.3435 12.3211C43.9391 12.582 43.5478 12.8559 43.1696 13.1559C43.0391 13.2733 42.8957 13.3777 42.7652 13.5081C42.7261 13.5603 42.687 13.5864 42.6348 13.6255C42.4261 13.8342 42.2044 14.0429 42.0217 14.2777L41.6957 14.695C41.3174 15.1907 41.0044 15.7124 40.7565 16.2733C40.7174 16.3516 40.6131 16.5602 40.6131 16.6515Z" fill="#05B851"/>
</g>
<path d="M134.829 1.68122H133.626V5H132.961V1.68122H131.768V1.14046H134.829V1.68122ZM136.208 1.14046L137.321 4.09873L138.432 1.14046H139.299V5H138.631V3.72762L138.697 2.02582L137.557 5H137.077L135.94 2.02847L136.006 3.72762V5H135.338V1.14046H136.208Z" fill="#05B851"/>
<defs>
<clipPath id="clip0_69_597">
<rect width="19.5781" height="17.4283" fill="white" transform="translate(31.1562 7.08954)"/>
</clipPath>
</defs>
</svg>
