<svg width="132" height="33" viewBox="0 0 132 33" fill="none" xmlns="http://www.w3.org/2000/svg">
<path d="M9.46614 10.6001H6.42569V24.3605H1.97473V10.6001H0V6.99543H1.97473V6.11778C1.97473 3.98633 2.58073 2.41908 3.79273 1.41605C5.00473 0.413014 6.83318 -0.0571586 9.27808 0.00553152V3.70422C8.21235 3.68333 7.47052 3.86095 7.05259 4.23709C6.63466 4.61322 6.42569 5.29236 6.42569 6.2745V6.99543H9.46614V10.6001Z" fill="#FFFFFA"/>
<path d="M10.5546 15.6153C10.5546 13.86 10.8994 12.3032 11.589 10.9449C12.2995 9.58661 13.2503 8.54178 14.4414 7.8104C15.6534 7.07902 17.0012 6.71333 18.4849 6.71333C19.7805 6.71333 20.9089 6.97454 21.8701 7.49695C22.8523 8.01936 23.6359 8.67761 24.221 9.47167V6.99543H28.6406V24.3605H24.221V21.8215C23.6568 22.6365 22.8732 23.3157 21.8701 23.859C20.888 24.3814 19.7491 24.6426 18.4535 24.6426C16.9908 24.6426 15.6534 24.2664 14.4414 23.5142C13.2503 22.7619 12.2995 21.7066 11.589 20.3483C10.8994 18.9692 10.5546 17.3915 10.5546 15.6153ZM24.221 15.678C24.221 14.6122 24.012 13.7032 23.5941 12.951C23.1762 12.1778 22.612 11.5927 21.9015 11.1956C21.191 10.7777 20.4283 10.5687 19.6133 10.5687C18.7983 10.5687 18.0461 10.7673 17.3565 11.1643C16.6669 11.5613 16.1027 12.1464 15.6639 12.9196C15.2459 13.6719 15.037 14.5704 15.037 15.6153C15.037 16.6601 15.2459 17.5795 15.6639 18.3736C16.1027 19.1468 16.6669 19.7423 17.3565 20.1603C18.067 20.5782 18.8192 20.7872 19.6133 20.7872C20.4283 20.7872 21.191 20.5886 21.9015 20.1916C22.612 19.7737 23.1762 19.1886 23.5941 18.4363C24.012 17.6631 24.221 16.7437 24.221 15.678Z" fill="#FFFFFA"/>
<path d="M51.6972 15.6153C51.6972 13.86 52.042 12.3032 52.7316 10.9449C53.4421 9.58661 54.3929 8.54178 55.584 7.8104C56.796 7.07902 58.1438 6.71333 59.6274 6.71333C60.923 6.71333 62.0515 6.97454 63.0127 7.49695C63.9948 8.01936 64.7785 8.67761 65.3636 9.47167V6.99543H69.7832V24.3605H65.3636V21.8215C64.7993 22.6365 64.0157 23.3157 63.0127 23.859C62.0306 24.3814 60.8917 24.6426 59.5961 24.6426C58.1333 24.6426 56.796 24.2664 55.584 23.5142C54.3929 22.7619 53.4421 21.7066 52.7316 20.3483C52.042 18.9692 51.6972 17.3915 51.6972 15.6153ZM65.3636 15.678C65.3636 14.6122 65.1546 13.7032 64.7367 12.951C64.3187 12.1778 63.7545 11.5927 63.044 11.1956C62.3336 10.7777 61.5708 10.5687 60.7559 10.5687C59.9409 10.5687 59.1886 10.7673 58.499 11.1643C57.8094 11.5613 57.2452 12.1464 56.8064 12.9196C56.3885 13.6719 56.1795 14.5704 56.1795 15.6153C56.1795 16.6601 56.3885 17.5795 56.8064 18.3736C57.2452 19.1468 57.8094 19.7423 58.499 20.1603C59.2095 20.5782 59.9618 20.7872 60.7559 20.7872C61.5708 20.7872 62.3336 20.5886 63.044 20.1916C63.7545 19.7737 64.3187 19.1886 64.7367 18.4363C65.1546 17.6631 65.3636 16.7437 65.3636 15.678Z" fill="#FFFFFA"/>
<path d="M72.3138 15.6153C72.3138 13.86 72.6586 12.3032 73.3482 10.9449C74.0586 9.58661 75.0199 8.54178 76.2319 7.8104C77.4439 7.07902 78.7917 6.71333 80.2754 6.71333C81.4038 6.71333 82.48 6.96409 83.5039 7.46561C84.5278 7.94623 85.3428 8.59402 85.9488 9.40899V1.16529H90.3998V24.3605H85.9488V21.7902C85.4055 22.647 84.6428 23.3365 83.6606 23.859C82.6785 24.3814 81.5396 24.6426 80.244 24.6426C78.7813 24.6426 77.4439 24.2664 76.2319 23.5142C75.0199 22.7619 74.0586 21.7066 73.3482 20.3483C72.6586 18.9692 72.3138 17.3915 72.3138 15.6153ZM85.9801 15.678C85.9801 14.6122 85.7712 13.7032 85.3532 12.951C84.9353 12.1778 84.3711 11.5927 83.6606 11.1956C82.9501 10.7777 82.1874 10.5687 81.3724 10.5687C80.5575 10.5687 79.8052 10.7673 79.1156 11.1643C78.426 11.5613 77.8618 12.1464 77.423 12.9196C77.0051 13.6719 76.7961 14.5704 76.7961 15.6153C76.7961 16.6601 77.0051 17.5795 77.423 18.3736C77.8618 19.1468 78.426 19.7423 79.1156 20.1603C79.8261 20.5782 80.5784 20.7872 81.3724 20.7872C82.1874 20.7872 82.9501 20.5886 83.6606 20.1916C84.3711 19.7737 84.9353 19.1886 85.3532 18.4363C85.7712 17.6631 85.9801 16.7437 85.9801 15.678Z" fill="#FFFFFA"/>
<path d="M92.9304 15.6153C92.9304 13.86 93.2752 12.3032 93.9648 10.9449C94.6752 9.58661 95.626 8.54178 96.8171 7.8104C98.0291 7.07902 99.377 6.71333 100.861 6.71333C102.156 6.71333 103.285 6.97454 104.246 7.49695C105.228 8.01936 106.012 8.67761 106.597 9.47167V6.99543H111.016V24.3605H106.597V21.8215C106.033 22.6365 105.249 23.3157 104.246 23.859C103.264 24.3814 102.125 24.6426 100.829 24.6426C99.3665 24.6426 98.0291 24.2664 96.8171 23.5142C95.626 22.7619 94.6752 21.7066 93.9648 20.3483C93.2752 18.9692 92.9304 17.3915 92.9304 15.6153ZM106.597 15.678C106.597 14.6122 106.388 13.7032 105.97 12.951C105.552 12.1778 104.988 11.5927 104.277 11.1956C103.567 10.7777 102.804 10.5687 101.989 10.5687C101.174 10.5687 100.422 10.7673 99.7322 11.1643C99.0426 11.5613 98.4784 12.1464 98.0396 12.9196C97.6217 13.6719 97.4127 14.5704 97.4127 15.6153C97.4127 16.6601 97.6217 17.5795 98.0396 18.3736C98.4784 19.1468 99.0426 19.7423 99.7322 20.1603C100.443 20.5782 101.195 20.7872 101.989 20.7872C102.804 20.7872 103.567 20.5886 104.277 20.1916C104.988 19.7737 105.552 19.1886 105.97 18.4363C106.388 17.6631 106.597 16.7437 106.597 15.678Z" fill="#FFFFFA"/>
<path d="M131.288 6.99543L120.537 32.5728H115.866L119.628 23.9217L112.669 6.99543H117.59L122.073 19.1259L126.618 6.99543H131.288Z" fill="#FFFFFA"/>
<g clip-path="url(#clip0_3581_16406)">
<path fill-rule="evenodd" clip-rule="evenodd" d="M31.1562 9.58418V21.9623C31.1562 22.745 31.4693 23.5276 32.0562 24.0232C32.4084 24.3232 32.8388 24.5189 33.3736 24.5189H46.417C46.8996 24.5189 47.33 24.3232 47.604 24.1145C48.3474 23.5667 48.6213 22.8623 48.6344 21.9493C48.6344 21.8841 48.6474 21.858 48.6474 21.7928V21.6884C48.6344 19.3145 48.6474 16.9146 48.6474 14.5276C48.0344 14.7363 47.3561 14.9972 46.9779 15.1928C46.9387 15.2059 46.8996 15.2189 46.8605 15.245V19.3798C46.8605 19.6145 46.8474 19.8232 46.8474 20.045C46.8474 20.4884 46.8474 20.945 46.8474 21.4015C46.8474 22.2754 46.9127 22.7319 46.1822 22.771C46.0648 22.771 45.9605 22.758 45.8561 22.771C45.5822 22.8102 35.7606 22.7841 35.4867 22.7841C35.2127 22.7841 34.978 22.771 34.7171 22.771C34.3519 22.771 33.5301 22.8102 33.2432 22.6797C33.0606 22.6015 32.9562 22.4189 32.9562 22.171C32.9562 22.1058 32.9432 22.0797 32.9432 22.0015C32.9432 21.9363 32.9432 21.871 32.9432 21.8058C32.9432 21.6624 32.9301 21.558 32.9301 21.4276L32.9171 17.4493C32.9171 16.8885 32.9301 16.3667 32.9301 15.8189V13.3668C32.9301 13.0798 32.9432 12.845 32.9432 12.5581V10.1059C32.9432 9.80592 32.9171 9.23201 33.1258 9.0494C33.3084 8.87984 33.5301 8.87984 33.778 8.87984C33.8693 8.87984 33.8954 8.8668 33.9736 8.8668C37.2475 8.82767 40.6127 8.8668 43.8735 8.8668C44.2779 8.8668 46.0518 8.84071 46.3648 8.90593C46.6127 8.9581 46.7692 9.07549 46.8214 9.32331C46.8605 9.57114 46.8214 9.87114 46.8474 10.132C46.8735 10.3929 46.8605 10.7059 46.8605 10.9798C46.8605 11.2798 46.8735 11.5276 46.8735 11.8146V12.5189C47.4213 12.2972 47.9953 12.0885 48.5561 11.932L48.6474 11.8929V10.0668C48.6474 9.40157 48.5692 8.69723 48.217 8.16245C48.1779 8.08419 48.1257 8.03202 48.0735 7.95376C47.6822 7.45811 46.8996 7.0929 46.2474 7.0929H33.5823C33.2562 7.0929 32.878 7.19724 32.578 7.31463C31.678 7.69289 31.1562 8.59288 31.1562 9.58418Z" fill="#FFFFFA"/>
<path fill-rule="evenodd" clip-rule="evenodd" d="M40.616 16.6513C40.5247 16.5861 40.2769 16.3252 40.1856 16.2209C39.9638 16.0122 39.7421 15.8035 39.4943 15.6339L39.3638 15.5426C39.3247 15.5165 39.2725 15.4904 39.2334 15.4644C39.1943 15.4252 39.1421 15.3991 39.103 15.3731C38.5421 15.0991 37.9943 14.9035 37.3551 14.7339C36.7943 14.6035 36.1552 14.447 35.5552 14.5122C35.4899 14.5252 35.4247 14.5383 35.3595 14.5513C35.3595 14.7731 35.3465 14.9426 35.3465 15.1644C35.3465 15.36 35.3204 15.5817 35.3204 15.7774C35.3204 16.1948 35.2812 16.5991 35.2812 17.0165C35.3334 17.0165 35.3334 17.0035 35.3986 17.0035C36.1943 17.0035 36.5334 17.0165 37.2508 17.2904C37.6943 17.447 38.0986 17.7078 38.4508 18.0078C38.4769 18.0339 38.4899 18.0469 38.516 18.073C38.6464 18.1643 38.7769 18.3078 38.8812 18.4252L38.9986 18.5687C39.3117 18.9469 39.5464 19.2861 39.7812 19.7165C40.016 20.16 40.1986 20.6165 40.3551 21.0861C40.3682 21.1513 40.3943 21.2426 40.4203 21.2947C40.4986 21.2556 40.616 21.2295 40.7073 21.2034L41.5942 20.9165C41.6986 20.8774 41.7899 20.8513 41.8812 20.8252L42.4812 20.6295C42.5725 20.6034 42.7029 20.5774 42.7812 20.5382C42.7812 20.4991 42.7682 20.4469 42.7682 20.3948C42.7421 20.173 42.7029 19.9252 42.7029 19.6904C42.7029 19.6252 42.6899 19.6122 42.6899 19.5469C42.6638 18.8165 42.729 18.1774 42.9638 17.4861C43.1073 17.0426 43.329 16.6513 43.5899 16.273L43.7725 16.0252C43.929 15.8426 44.216 15.5165 44.3986 15.3731C44.5812 15.2165 44.7638 15.06 44.9594 14.9035L45.2203 14.7209C45.4029 14.5905 45.5855 14.4731 45.7812 14.3687C46.029 14.2122 46.4073 13.9905 46.6812 13.8861C46.7333 13.86 46.7725 13.8339 46.8246 13.8078C46.8768 13.7818 46.929 13.7687 46.9812 13.7426C47.6072 13.4296 49.0159 12.9339 49.6681 12.7513L50.3724 12.5426C50.4898 12.5035 50.6072 12.4644 50.7377 12.4383C50.6985 12.3731 50.4507 11.3296 50.4246 11.2253L50.1898 10.3253C50.1637 10.234 50.1507 10.1035 50.1116 10.0253C49.9551 10.0383 48.7029 10.4296 48.5594 10.4818C47.8812 10.6774 47.1768 10.9383 46.5246 11.2122C46.4594 11.2383 46.4073 11.2644 46.342 11.2905L45.8203 11.5122C45.7681 11.5513 45.716 11.5774 45.6507 11.6035C45.5333 11.6426 45.416 11.7079 45.3116 11.76C44.9855 11.9426 44.6594 12.1122 44.3464 12.3209C43.9421 12.5818 43.5508 12.8557 43.1725 13.1557C43.0421 13.2731 42.8986 13.3774 42.7682 13.5079C42.729 13.56 42.6899 13.5861 42.6377 13.6252C42.429 13.8339 42.2073 14.0426 42.0247 14.2774L41.6986 14.6948C41.3203 15.1904 41.0073 15.7122 40.7595 16.273C40.7203 16.3513 40.616 16.56 40.616 16.6513Z" fill="#FFFFFA"/>
</g>
<defs>
<clipPath id="clip0_3581_16406">
<rect width="19.5781" height="17.4283" fill="white" transform="translate(31.1484 7.08948)"/>
</clipPath>
</defs>
</svg>
