<svg width="158" height="20" viewBox="0 0 158 20" fill="none" xmlns="http://www.w3.org/2000/svg">
<path d="M95.3515 4.20119V7.87313H99.6714V9.5471H95.3515V13.381H100.211V15.055H93.2995V2.52722L100.211 2.52722V4.20119H95.3515Z" fill="#3F3F41"/>
<path d="M108.013 13.219L110.821 5.13718H112.999L109.219 15.055H106.771L103.009 5.13718H105.205L108.013 13.219Z" fill="#3F3F41"/>
<path d="M125.08 9.8531C125.08 10.2251 125.056 10.5611 125.008 10.8611H117.43C117.49 11.6531 117.784 12.2891 118.312 12.7691C118.84 13.249 119.488 13.489 120.256 13.489C121.36 13.489 122.14 13.027 122.596 12.1031H124.81C124.51 13.015 123.964 13.765 123.172 14.353C122.392 14.929 121.42 15.217 120.256 15.217C119.308 15.217 118.456 15.007 117.7 14.587C116.956 14.155 116.368 13.555 115.936 12.7871C115.516 12.0071 115.306 11.1071 115.306 10.0871C115.306 9.06711 115.51 8.17313 115.918 7.40514C116.338 6.62515 116.92 6.02516 117.664 5.60517C118.42 5.18518 119.284 4.97518 120.256 4.97518C121.192 4.97518 122.026 5.17918 122.758 5.58717C123.49 5.99516 124.06 6.57115 124.468 7.31514C124.876 8.04713 125.08 8.89312 125.08 9.8531ZM122.938 9.20511C122.926 8.44912 122.656 7.84313 122.128 7.38714C121.6 6.93115 120.946 6.70315 120.166 6.70315C119.458 6.70315 118.852 6.93115 118.348 7.38714C117.844 7.83113 117.544 8.43712 117.448 9.20511L122.938 9.20511Z" fill="#3F3F41"/>
<path d="M133.543 4.97518C134.323 4.97518 135.019 5.13718 135.631 5.46117C136.255 5.78517 136.741 6.26516 137.089 6.90115C137.437 7.53714 137.611 8.30513 137.611 9.20511V15.055H135.577V9.51111C135.577 8.62312 135.355 7.94513 134.911 7.47714C134.467 6.99715 133.861 6.75715 133.093 6.75715C132.325 6.75715 131.713 6.99715 131.257 7.47714C130.813 7.94513 130.591 8.62312 130.591 9.51111V15.055H128.539V5.13718H130.591V6.27116C130.927 5.86317 131.353 5.54517 131.869 5.31718C132.397 5.08918 132.955 4.97518 133.543 4.97518Z" fill="#3F3F41"/>
<path d="M144.062 6.81115V12.3011C144.062 12.6731 144.146 12.943 144.314 13.111C144.494 13.267 144.794 13.345 145.214 13.345H146.474V15.055H144.854C143.93 15.055 143.222 14.839 142.73 14.407C142.238 13.975 141.992 13.273 141.992 12.3011V6.81115H140.822V5.13718H141.992V2.67122H144.062V5.13718L146.474 5.13718V6.81115H144.062Z" fill="#3F3F41"/>
<path d="M153.405 15.217C152.625 15.217 151.923 15.079 151.299 14.803C150.687 14.515 150.201 14.131 149.841 13.651C149.481 13.159 149.289 12.6131 149.265 12.0131H151.389C151.425 12.4331 151.623 12.7871 151.983 13.075C152.355 13.351 152.817 13.489 153.369 13.489C153.945 13.489 154.389 13.381 154.701 13.165C155.025 12.937 155.187 12.6491 155.187 12.3011C155.187 11.9291 155.007 11.6531 154.647 11.4731C154.299 11.2931 153.741 11.0951 152.973 10.8791C152.229 10.6751 151.623 10.4771 151.155 10.2851C150.687 10.0931 150.279 9.7991 149.931 9.40311C149.595 9.00711 149.427 8.48512 149.427 7.83713C149.427 7.30914 149.583 6.82915 149.895 6.39716C150.207 5.95316 150.651 5.60517 151.227 5.35317C151.815 5.10118 152.487 4.97518 153.243 4.97518C154.371 4.97518 155.277 5.26318 155.961 5.83917C156.657 6.40316 157.029 7.17714 157.077 8.16113H155.025C154.989 7.71714 154.809 7.36314 154.485 7.09915C154.161 6.83515 153.723 6.70315 153.171 6.70315C152.631 6.70315 152.217 6.80515 151.929 7.00915C151.641 7.21314 151.497 7.48314 151.497 7.81913C151.497 8.08313 151.593 8.30513 151.785 8.48512C151.977 8.66512 152.211 8.80912 152.487 8.91712C152.763 9.01311 153.171 9.13911 153.711 9.29511C154.431 9.48711 155.019 9.6851 155.475 9.8891C155.943 10.0811 156.345 10.3691 156.681 10.7531C157.017 11.1371 157.191 11.6471 157.203 12.2831C157.203 12.847 157.047 13.351 156.735 13.795C156.423 14.239 155.979 14.587 155.403 14.839C154.839 15.091 154.173 15.217 153.405 15.217Z" fill="#3F3F41"/>
<path d="M5.8122 6.50868H3.94537V14.9575H1.21248V6.50868H0L0 4.29543H1.21248V3.75655C1.21248 2.44784 1.58456 1.48556 2.32873 0.869696C3.07289 0.253834 4.19556 -0.0348512 5.69672 0.00364049V2.27463C5.04237 2.2618 4.58689 2.37086 4.33028 2.60181C4.07367 2.83276 3.94537 3.24975 3.94537 3.85278V4.29543H5.8122V6.50868Z" fill="#05B851"/>
<path d="M6.48054 9.588C6.48054 8.51024 6.69224 7.55437 7.11564 6.72039C7.55188 5.88641 8.13566 5.24488 8.867 4.79582C9.61117 4.34675 10.4387 4.12222 11.3497 4.12222C12.1452 4.12222 12.838 4.2826 13.4282 4.60336C14.0313 4.92412 14.5124 5.32828 14.8717 5.81584V4.29543H17.5853V14.9575H14.8717V13.3986C14.5252 13.899 14.0441 14.316 13.4282 14.6496C12.8252 14.9704 12.1259 15.1308 11.3304 15.1308C10.4323 15.1308 9.61117 14.8998 8.867 14.4379C8.13566 13.976 7.55188 13.3281 7.11564 12.4941C6.69224 11.6473 6.48054 10.6786 6.48054 9.588ZM14.8717 9.62649C14.8717 8.97213 14.7434 8.41401 14.4867 7.95211C14.2301 7.47738 13.8837 7.11813 13.4475 6.87435C13.0112 6.61774 12.5429 6.48944 12.0425 6.48944C11.5422 6.48944 11.0803 6.61133 10.6568 6.85511C10.2334 7.09889 9.88702 7.45814 9.61758 7.93287C9.36097 8.39476 9.23267 8.94647 9.23267 9.588C9.23267 10.2295 9.36097 10.7941 9.61758 11.2816C9.88702 11.7563 10.2334 12.122 10.6568 12.3786C11.0931 12.6352 11.555 12.7635 12.0425 12.7635C12.5429 12.7635 13.0112 12.6416 13.4475 12.3979C13.8837 12.1413 14.2301 11.782 14.4867 11.3201C14.7434 10.8454 14.8717 10.2808 14.8717 9.62649Z" fill="#05B851"/>
<path d="M31.742 9.588C31.742 8.51024 31.9537 7.55437 32.3771 6.72039C32.8133 5.88641 33.3971 5.24488 34.1285 4.79582C34.8726 4.34675 35.7002 4.12222 36.6112 4.12222C37.4067 4.12222 38.0995 4.2826 38.6897 4.60336C39.2927 4.92412 39.7739 5.32828 40.1331 5.81584V4.29543H42.8468V14.9575H40.1331V13.3986C39.7867 13.899 39.3056 14.316 38.6897 14.6496C38.0867 14.9704 37.3874 15.1308 36.5919 15.1308C35.6938 15.1308 34.8726 14.8998 34.1285 14.4379C33.3971 13.976 32.8133 13.3281 32.3771 12.4941C31.9537 11.6473 31.742 10.6786 31.742 9.588ZM40.1331 9.62649C40.1331 8.97213 40.0048 8.41401 39.7482 7.95211C39.4916 7.47738 39.1452 7.11813 38.7089 6.87435C38.2727 6.61774 37.8044 6.48944 37.304 6.48944C36.8036 6.48944 36.3417 6.61133 35.9183 6.85511C35.4949 7.09889 35.1485 7.45814 34.8791 7.93287C34.6224 8.39476 34.4941 8.94647 34.4941 9.588C34.4941 10.2295 34.6224 10.7941 34.8791 11.2816C35.1485 11.7563 35.4949 12.122 35.9183 12.3786C36.3546 12.6352 36.8165 12.7635 37.304 12.7635C37.8044 12.7635 38.2727 12.6416 38.7089 12.3979C39.1452 12.1413 39.4916 11.782 39.7482 11.3201C40.0048 10.8454 40.1331 10.2808 40.1331 9.62649Z" fill="#05B851"/>
<path d="M44.4006 9.588C44.4006 8.51024 44.6123 7.55437 45.0357 6.72039C45.4719 5.88641 46.0621 5.24488 46.8063 4.79582C47.5504 4.34675 48.378 4.12222 49.289 4.12222C49.9818 4.12222 50.6426 4.27618 51.2713 4.58412C51.9 4.87922 52.4003 5.27696 52.7724 5.77735V0.715731H55.5053V14.9575H52.7724V13.3794C52.4388 13.9054 51.9705 14.3289 51.3675 14.6496C50.7645 14.9704 50.0652 15.1308 49.2697 15.1308C48.3716 15.1308 47.5504 14.8998 46.8063 14.4379C46.0621 13.976 45.4719 13.3281 45.0357 12.4941C44.6123 11.6473 44.4006 10.6786 44.4006 9.588ZM52.7917 9.62649C52.7917 8.97213 52.6634 8.41401 52.4068 7.95211C52.1502 7.47738 51.8037 7.11813 51.3675 6.87435C50.9313 6.61774 50.4629 6.48944 49.9626 6.48944C49.4622 6.48944 49.0003 6.61133 48.5769 6.85511C48.1535 7.09889 47.807 7.45814 47.5376 7.93287C47.281 8.39476 47.1527 8.94647 47.1527 9.588C47.1527 10.2295 47.281 10.7941 47.5376 11.2816C47.807 11.7563 48.1535 12.122 48.5769 12.3786C49.0131 12.6352 49.475 12.7635 49.9626 12.7635C50.4629 12.7635 50.9313 12.6416 51.3675 12.3979C51.8037 12.1413 52.1502 11.782 52.4068 11.3201C52.6634 10.8454 52.7917 10.2808 52.7917 9.62649Z" fill="#05B851"/>
<path d="M57.0591 9.588C57.0591 8.51024 57.2708 7.55437 57.6942 6.72039C58.1305 5.88641 58.7142 5.24488 59.4456 4.79582C60.1897 4.34675 61.0173 4.12222 61.9283 4.12222C62.7238 4.12222 63.4166 4.2826 64.0068 4.60336C64.6098 4.92412 65.091 5.32828 65.4502 5.81584V4.29543H68.1639V14.9575H65.4502V13.3986C65.1038 13.899 64.6227 14.316 64.0068 14.6496C63.4038 14.9704 62.7045 15.1308 61.909 15.1308C61.0109 15.1308 60.1897 14.8998 59.4456 14.4379C58.7142 13.976 58.1305 13.3281 57.6942 12.4941C57.2708 11.6473 57.0591 10.6786 57.0591 9.588ZM65.4502 9.62649C65.4502 8.97213 65.3219 8.41401 65.0653 7.95211C64.8087 7.47738 64.4623 7.11813 64.026 6.87435C63.5898 6.61774 63.1215 6.48944 62.6211 6.48944C62.1207 6.48944 61.6588 6.61133 61.2354 6.85511C60.812 7.09889 60.4656 7.45814 60.1962 7.93287C59.9395 8.39476 59.8112 8.94647 59.8112 9.588C59.8112 10.2295 59.9395 10.7941 60.1962 11.2816C60.4656 11.7563 60.812 12.122 61.2354 12.3786C61.6717 12.6352 62.1336 12.7635 62.6211 12.7635C63.1215 12.7635 63.5898 12.6416 64.026 12.3979C64.4623 12.1413 64.8087 11.782 65.0653 11.3201C65.3219 10.8454 65.4502 10.2808 65.4502 9.62649Z" fill="#05B851"/>
<path d="M80.6107 4.29543L74.0095 19.9999H71.1418L73.4513 14.6881L69.1788 4.29543H72.2003L74.9525 11.7435L77.7431 4.29543H80.6107Z" fill="#05B851"/>
<g clip-path="url(#clip0_102_252)">
<path fill-rule="evenodd" clip-rule="evenodd" d="M19.1299 5.88597V13.4861C19.1299 13.9667 19.3221 14.4472 19.6825 14.7515C19.8987 14.9357 20.163 15.0558 20.4913 15.0558H28.5C28.7963 15.0558 29.0606 14.9357 29.2287 14.8076C29.6852 14.4712 29.8534 14.0387 29.8614 13.4781C29.8614 13.4381 29.8694 13.4221 29.8694 13.382V13.318C29.8614 11.8604 29.8694 10.3868 29.8694 8.92123C29.493 9.04937 29.0766 9.20954 28.8443 9.32967C28.8203 9.33768 28.7963 9.34569 28.7723 9.36171V11.9004C28.7723 12.0446 28.7642 12.1727 28.7642 12.3089C28.7642 12.5812 28.7642 12.8615 28.7642 13.1418C28.7642 13.6784 28.8043 13.9587 28.3558 13.9827C28.2837 13.9827 28.2197 13.9747 28.1556 13.9827C27.9874 14.0067 21.9569 13.9907 21.7887 13.9907C21.6206 13.9907 21.4764 13.9827 21.3162 13.9827C21.092 13.9827 20.5875 14.0067 20.4113 13.9266C20.2991 13.8786 20.2351 13.7664 20.2351 13.6143C20.2351 13.5742 20.2271 13.5582 20.2271 13.5102C20.2271 13.4701 20.2271 13.4301 20.2271 13.39C20.2271 13.3019 20.2191 13.2379 20.2191 13.1578L20.211 10.7152C20.211 10.3708 20.2191 10.0504 20.2191 9.71409V8.20847C20.2191 8.03228 20.2271 7.88812 20.2271 7.71193V6.20631C20.2271 6.02212 20.211 5.66974 20.3392 5.55762C20.4513 5.4535 20.5875 5.4535 20.7396 5.4535C20.7957 5.4535 20.8117 5.4455 20.8597 5.4455C22.8699 5.42147 24.9361 5.4455 26.9383 5.4455C27.1866 5.4455 28.2757 5.42948 28.4679 5.46952C28.6201 5.50156 28.7162 5.57363 28.7482 5.7258C28.7723 5.87796 28.7482 6.06216 28.7642 6.22233C28.7803 6.3825 28.7723 6.57471 28.7723 6.74289C28.7723 6.92709 28.7803 7.07925 28.7803 7.25544V7.68791C29.1166 7.55176 29.469 7.42362 29.8134 7.32752L29.8694 7.30349V6.18229C29.8694 5.77385 29.8214 5.34138 29.6052 5.01303C29.5811 4.96498 29.5491 4.93294 29.5171 4.88489C29.2768 4.58056 28.7963 4.35632 28.3959 4.35632H20.6195C20.4193 4.35632 20.187 4.42039 20.0028 4.49247C19.4502 4.72472 19.1299 5.27731 19.1299 5.88597Z" fill="#05B851"/>
<path fill-rule="evenodd" clip-rule="evenodd" d="M24.9357 10.2243C24.8796 10.1842 24.7275 10.024 24.6714 9.95998C24.5352 9.83184 24.3991 9.7037 24.2469 9.59959L24.1669 9.54353C24.1428 9.52751 24.1108 9.51149 24.0868 9.49548C24.0627 9.47145 24.0307 9.45543 24.0067 9.43942C23.6623 9.27124 23.3259 9.15111 22.9335 9.04699C22.5892 8.96691 22.1967 8.8708 21.8283 8.91085C21.7883 8.91886 21.7483 8.92686 21.7082 8.93487C21.7082 9.07102 21.7002 9.17513 21.7002 9.31128C21.7002 9.43141 21.6842 9.56755 21.6842 9.68768C21.6842 9.94396 21.6602 10.1922 21.6602 10.4485C21.6922 10.4485 21.6922 10.4405 21.7322 10.4405C22.2208 10.4405 22.429 10.4485 22.8695 10.6167C23.1418 10.7128 23.39 10.873 23.6062 11.0572C23.6223 11.0732 23.6303 11.0812 23.6463 11.0972C23.7264 11.1533 23.8065 11.2414 23.8705 11.3134L23.9426 11.4015C24.1348 11.6338 24.279 11.842 24.4231 12.1063C24.5673 12.3786 24.6794 12.6589 24.7755 12.9472C24.7835 12.9872 24.7995 13.0433 24.8156 13.0753C24.8636 13.0513 24.9357 13.0353 24.9917 13.0193L25.5363 12.8431C25.6004 12.8191 25.6565 12.803 25.7125 12.787L26.0809 12.6669C26.137 12.6509 26.2171 12.6349 26.2651 12.6108C26.2651 12.5868 26.2571 12.5548 26.2571 12.5227C26.2411 12.3866 26.2171 12.2344 26.2171 12.0903C26.2171 12.0502 26.2091 12.0422 26.2091 12.0022C26.193 11.5537 26.2331 11.1613 26.3772 10.7368C26.4653 10.4645 26.6015 10.2243 26.7616 9.99201L26.8738 9.83985C26.9699 9.72773 27.1461 9.52751 27.2582 9.43942C27.3703 9.34331 27.4824 9.24721 27.6025 9.15111L27.7627 9.03899C27.8748 8.9589 27.987 8.88682 28.1071 8.82275C28.2593 8.72665 28.4915 8.5905 28.6597 8.52643C28.6917 8.51042 28.7157 8.4944 28.7478 8.47838C28.7798 8.46237 28.8119 8.45436 28.8439 8.43834C29.2283 8.24613 30.0932 7.94181 30.4937 7.82968L30.9261 7.70155C30.9982 7.67752 31.0703 7.65349 31.1504 7.63748C31.1263 7.59743 30.9742 6.95675 30.9582 6.89268L30.814 6.34008C30.798 6.28402 30.79 6.20394 30.766 6.15588C30.6698 6.16389 29.901 6.40415 29.8129 6.43619C29.3965 6.55631 28.964 6.71649 28.5636 6.88467C28.5235 6.90069 28.4915 6.9167 28.4515 6.93272L28.1311 7.06887C28.0991 7.09289 28.067 7.10891 28.027 7.12493C27.9549 7.14895 27.8829 7.189 27.8188 7.22103C27.6186 7.33315 27.4184 7.43726 27.2261 7.5654C26.9779 7.72557 26.7376 7.89375 26.5054 8.07795C26.4253 8.15003 26.3372 8.2141 26.2571 8.29418C26.2331 8.32622 26.2091 8.34224 26.177 8.36626C26.0489 8.4944 25.9127 8.62254 25.8006 8.76669L25.6004 9.02297C25.3681 9.3273 25.1759 9.64764 25.0238 9.99201C24.9997 10.0401 24.9357 10.1682 24.9357 10.2243Z" fill="#05B851"/>
</g>
<path d="M82.4201 0.34409H81.8197V2H81.4877V0.34409H80.8925V0.0742772H82.4201V0.34409ZM83.1079 0.0742772L83.6634 1.55031L84.2176 0.0742772H84.6501V2H84.3168V1.36515L84.3498 0.51603L83.7811 2H83.5417L82.9743 0.517352L83.0074 1.36515V2H82.6741V0.0742772H83.1079Z" fill="#05B851"/>
<defs>
<clipPath id="clip0_102_252">
<rect width="12.0209" height="10.701" fill="white" transform="translate(19.1299 4.35315)"/>
</clipPath>
</defs>
</svg>
