<svg width="132" height="34" viewBox="0 0 132 34" fill="none" xmlns="http://www.w3.org/2000/svg">
<path d="M9.46614 11.3135H6.42569V25.0739H1.97473V11.3135H0V7.70881H1.97473V6.83116C1.97473 4.69971 2.58073 3.13246 3.79273 2.12943C5.00473 1.12639 6.83318 0.65622 9.27808 0.71891V4.4176C8.21235 4.39671 7.47052 4.57433 7.05259 4.95046C6.63466 5.3266 6.42569 6.00574 6.42569 6.98788V7.70881H9.46614V11.3135Z" fill="#35C567"/>
<path d="M10.5546 16.3286C10.5546 14.5733 10.8994 13.0165 11.589 11.6583C12.2995 10.3 13.2503 9.25516 14.4414 8.52378C15.6534 7.7924 17.0012 7.42671 18.4849 7.42671C19.7805 7.42671 20.9089 7.68791 21.8701 8.21033C22.8523 8.73274 23.6359 9.39099 24.221 10.1851V7.70881H28.6406V25.0739H24.221V22.5349C23.6568 23.3499 22.8732 24.029 21.8701 24.5723C20.888 25.0948 19.7491 25.356 18.4535 25.356C16.9908 25.356 15.6534 24.9798 14.4414 24.2275C13.2503 23.4753 12.2995 22.42 11.589 21.0617C10.8994 19.6825 10.5546 18.1049 10.5546 16.3286ZM24.221 16.3913C24.221 15.3256 24.012 14.4166 23.5941 13.6643C23.1762 12.8912 22.612 12.3061 21.9015 11.909C21.191 11.4911 20.4283 11.2821 19.6133 11.2821C18.7983 11.2821 18.0461 11.4806 17.3565 11.8777C16.6669 12.2747 16.1027 12.8598 15.6639 13.633C15.2459 14.3853 15.037 15.2838 15.037 16.3286C15.037 17.3735 15.2459 18.2929 15.6639 19.087C16.1027 19.8602 16.6669 20.4557 17.3565 20.8736C18.067 21.2916 18.8192 21.5005 19.6133 21.5005C20.4283 21.5005 21.191 21.302 21.9015 20.905C22.612 20.4871 23.1762 19.902 23.5941 19.1497C24.012 18.3765 24.221 17.4571 24.221 16.3913Z" fill="#35C567"/>
<path d="M51.6972 16.3286C51.6972 14.5733 52.042 13.0165 52.7316 11.6583C53.4421 10.3 54.3929 9.25516 55.584 8.52378C56.796 7.7924 58.1438 7.42671 59.6274 7.42671C60.923 7.42671 62.0515 7.68791 63.0127 8.21033C63.9948 8.73274 64.7785 9.39099 65.3636 10.1851V7.70881H69.7832V25.0739H65.3636V22.5349C64.7994 23.3499 64.0157 24.029 63.0127 24.5723C62.0306 25.0948 60.8917 25.356 59.5961 25.356C58.1333 25.356 56.796 24.9798 55.584 24.2275C54.3929 23.4753 53.4421 22.42 52.7316 21.0617C52.042 19.6825 51.6972 18.1049 51.6972 16.3286ZM65.3636 16.3913C65.3636 15.3256 65.1546 14.4166 64.7367 13.6643C64.3187 12.8912 63.7545 12.3061 63.044 11.909C62.3336 11.4911 61.5708 11.2821 60.7559 11.2821C59.9409 11.2821 59.1886 11.4806 58.499 11.8777C57.8094 12.2747 57.2452 12.8598 56.8064 13.633C56.3885 14.3853 56.1795 15.2838 56.1795 16.3286C56.1795 17.3735 56.3885 18.2929 56.8064 19.087C57.2452 19.8602 57.8094 20.4557 58.499 20.8736C59.2095 21.2916 59.9618 21.5005 60.7559 21.5005C61.5708 21.5005 62.3336 21.302 63.044 20.905C63.7545 20.4871 64.3187 19.902 64.7367 19.1497C65.1546 18.3765 65.3636 17.4571 65.3636 16.3913Z" fill="#35C567"/>
<path d="M72.3138 16.3286C72.3138 14.5733 72.6586 13.0165 73.3482 11.6583C74.0586 10.3 75.0199 9.25516 76.2319 8.52378C77.4439 7.7924 78.7917 7.42671 80.2754 7.42671C81.4038 7.42671 82.48 7.67747 83.5039 8.17898C84.5278 8.6596 85.3428 9.3074 85.9488 10.1224V1.87867H90.3998V25.0739H85.9488V22.5036C85.4055 23.3603 84.6428 24.0499 83.6606 24.5723C82.6785 25.0948 81.5396 25.356 80.244 25.356C78.7813 25.356 77.4439 24.9798 76.2319 24.2275C75.0199 23.4753 74.0586 22.42 73.3482 21.0617C72.6586 19.6825 72.3138 18.1049 72.3138 16.3286ZM85.9801 16.3913C85.9801 15.3256 85.7712 14.4166 85.3532 13.6643C84.9353 12.8912 84.3711 12.3061 83.6606 11.909C82.9501 11.4911 82.1874 11.2821 81.3724 11.2821C80.5575 11.2821 79.8052 11.4806 79.1156 11.8777C78.426 12.2747 77.8618 12.8598 77.423 13.633C77.0051 14.3853 76.7961 15.2838 76.7961 16.3286C76.7961 17.3735 77.0051 18.2929 77.423 19.087C77.8618 19.8602 78.426 20.4557 79.1156 20.8736C79.8261 21.2916 80.5784 21.5005 81.3724 21.5005C82.1874 21.5005 82.9501 21.302 83.6606 20.905C84.3711 20.4871 84.9353 19.902 85.3532 19.1497C85.7712 18.3765 85.9801 17.4571 85.9801 16.3913Z" fill="#35C567"/>
<path d="M92.9304 16.3286C92.9304 14.5733 93.2752 13.0165 93.9648 11.6583C94.6752 10.3 95.626 9.25516 96.8171 8.52378C98.0291 7.7924 99.377 7.42671 100.861 7.42671C102.156 7.42671 103.285 7.68791 104.246 8.21033C105.228 8.73274 106.012 9.39099 106.597 10.1851V7.70881H111.016V25.0739H106.597V22.5349C106.033 23.3499 105.249 24.029 104.246 24.5723C103.264 25.0948 102.125 25.356 100.829 25.356C99.3665 25.356 98.0291 24.9798 96.8171 24.2275C95.626 23.4753 94.6752 22.42 93.9648 21.0617C93.2752 19.6825 92.9304 18.1049 92.9304 16.3286ZM106.597 16.3913C106.597 15.3256 106.388 14.4166 105.97 13.6643C105.552 12.8912 104.988 12.3061 104.277 11.909C103.567 11.4911 102.804 11.2821 101.989 11.2821C101.174 11.2821 100.422 11.4806 99.7322 11.8777C99.0426 12.2747 98.4784 12.8598 98.0396 13.633C97.6216 14.3853 97.4127 15.2838 97.4127 16.3286C97.4127 17.3735 97.6216 18.2929 98.0396 19.087C98.4784 19.8602 99.0426 20.4557 99.7322 20.8736C100.443 21.2916 101.195 21.5005 101.989 21.5005C102.804 21.5005 103.567 21.302 104.277 20.905C104.988 20.4871 105.552 19.902 105.97 19.1497C106.388 18.3765 106.597 17.4571 106.597 16.3913Z" fill="#35C567"/>
<path d="M131.288 7.70881L120.537 33.2862H115.866L119.628 24.635L112.669 7.70881H117.59L122.073 19.8393L126.618 7.70881H131.288Z" fill="#35C567"/>
<g clip-path="url(#clip0_3594_16578)">
<path fill-rule="evenodd" clip-rule="evenodd" d="M31.1562 10.2974V22.6756C31.1562 23.4582 31.4693 24.2408 32.0562 24.7365C32.4084 25.0365 32.8388 25.2321 33.3736 25.2321H46.417C46.8996 25.2321 47.33 25.0365 47.604 24.8278C48.3474 24.2799 48.6213 23.5756 48.6344 22.6626C48.6344 22.5973 48.6474 22.5713 48.6474 22.506V22.4017C48.6344 20.0278 48.6474 17.6278 48.6474 15.2409C48.0344 15.4496 47.3561 15.7104 46.9779 15.9061C46.9387 15.9191 46.8996 15.9322 46.8605 15.9583V20.093C46.8605 20.3278 46.8474 20.5365 46.8474 20.7582C46.8474 21.2017 46.8474 21.6582 46.8474 22.1147C46.8474 22.9886 46.9127 23.4452 46.1822 23.4843C46.0648 23.4843 45.9605 23.4713 45.8561 23.4843C45.5822 23.5234 35.7606 23.4973 35.4867 23.4973C35.2127 23.4973 34.978 23.4843 34.7171 23.4843C34.3519 23.4843 33.5301 23.5234 33.2432 23.393C33.0606 23.3147 32.9562 23.1321 32.9562 22.8843C32.9562 22.8191 32.9432 22.793 32.9432 22.7147C32.9432 22.6495 32.9432 22.5843 32.9432 22.5191C32.9432 22.3756 32.9301 22.2713 32.9301 22.1408L32.9171 18.1626C32.9171 17.6017 32.9301 17.08 32.9301 16.5322V14.08C32.9301 13.7931 32.9432 13.5583 32.9432 13.2713V10.8192C32.9432 10.5192 32.9171 9.94527 33.1258 9.76266C33.3084 9.5931 33.5301 9.5931 33.778 9.5931C33.8693 9.5931 33.8954 9.58005 33.9736 9.58005C37.2475 9.54092 40.6127 9.58005 43.8735 9.58005C44.2779 9.58005 46.0518 9.55397 46.3648 9.61918C46.6127 9.67136 46.7692 9.78875 46.8214 10.0366C46.8605 10.2844 46.8214 10.5844 46.8474 10.8453C46.8735 11.1061 46.8605 11.4192 46.8605 11.6931C46.8605 11.9931 46.8735 12.2409 46.8735 12.5279V13.2322C47.4213 13.0105 47.9953 12.8018 48.5561 12.6452L48.6474 12.6061V10.78C48.6474 10.1148 48.5692 9.41049 48.217 8.87571C48.1779 8.79745 48.1257 8.74528 48.0735 8.66702C47.6822 8.17137 46.8996 7.80615 46.2474 7.80615H33.5823C33.2562 7.80615 32.878 7.9105 32.578 8.02789C31.678 8.40615 31.1562 9.30614 31.1562 10.2974Z" fill="#35C567"/>
<path fill-rule="evenodd" clip-rule="evenodd" d="M40.616 17.3648C40.5247 17.2996 40.2769 17.0387 40.1856 16.9344C39.9638 16.7257 39.7421 16.517 39.4943 16.3474L39.3638 16.2561C39.3247 16.23 39.2725 16.2039 39.2334 16.1779C39.1943 16.1387 39.1421 16.1126 39.103 16.0866C38.5421 15.8126 37.9943 15.617 37.3551 15.4474C36.7943 15.317 36.1552 15.1605 35.5552 15.2257C35.4899 15.2387 35.4247 15.2518 35.3595 15.2648C35.3595 15.4866 35.3465 15.6561 35.3465 15.8779C35.3465 16.0735 35.3204 16.2952 35.3204 16.4909C35.3204 16.9083 35.2812 17.3126 35.2812 17.73C35.3334 17.73 35.3334 17.717 35.3986 17.717C36.1943 17.717 36.5334 17.73 37.2508 18.0039C37.6943 18.1605 38.0986 18.4213 38.4508 18.7213C38.4769 18.7474 38.4899 18.7604 38.516 18.7865C38.6464 18.8778 38.7769 19.0213 38.8812 19.1387L38.9986 19.2822C39.3117 19.6604 39.5464 19.9996 39.7812 20.43C40.016 20.8735 40.1986 21.33 40.3551 21.7996C40.3682 21.8648 40.3943 21.9561 40.4203 22.0083C40.4986 21.9691 40.616 21.943 40.7073 21.9169L41.5942 21.63C41.6986 21.5909 41.7899 21.5648 41.8812 21.5387L42.4812 21.343C42.5725 21.317 42.7029 21.2909 42.7812 21.2517C42.7812 21.2126 42.7682 21.1604 42.7682 21.1083C42.7421 20.8865 42.7029 20.6387 42.7029 20.4039C42.7029 20.3387 42.6899 20.3257 42.6899 20.2604C42.6638 19.53 42.729 18.8909 42.9638 18.1996C43.1073 17.7561 43.329 17.3648 43.5899 16.9865L43.7725 16.7387C43.929 16.5561 44.216 16.23 44.3986 16.0866C44.5812 15.93 44.7638 15.7735 44.9594 15.617L45.2203 15.4344C45.4029 15.304 45.5855 15.1866 45.7812 15.0822C46.029 14.9257 46.4073 14.704 46.6812 14.5996C46.7333 14.5735 46.7725 14.5474 46.8246 14.5213C46.8768 14.4953 46.929 14.4822 46.9812 14.4561C47.6072 14.1431 49.0159 13.6474 49.6681 13.4648L50.3724 13.2561C50.4898 13.217 50.6072 13.1779 50.7377 13.1518C50.6985 13.0866 50.4507 12.0431 50.4246 11.9388L50.1898 11.0388C50.1637 10.9475 50.1507 10.817 50.1116 10.7388C49.9551 10.7518 48.7029 11.1431 48.5594 11.1953C47.8812 11.3909 47.1768 11.6518 46.5246 11.9257C46.4594 11.9518 46.4073 11.9779 46.342 12.004L45.8203 12.2257C45.7681 12.2648 45.716 12.2909 45.6507 12.317C45.5333 12.3561 45.416 12.4214 45.3116 12.4735C44.9855 12.6561 44.6594 12.8257 44.3464 13.0344C43.9421 13.2953 43.5508 13.5692 43.1725 13.8692C43.0421 13.9866 42.8986 14.0909 42.7682 14.2214C42.729 14.2735 42.6899 14.2996 42.6377 14.3387C42.429 14.5474 42.2073 14.7561 42.0247 14.9909L41.6986 15.4083C41.3203 15.9039 41.0073 16.4257 40.7595 16.9865C40.7203 17.0648 40.616 17.2735 40.616 17.3648Z" fill="#35C567"/>
</g>
<defs>
<clipPath id="clip0_3594_16578">
<rect width="19.5781" height="17.4283" fill="white" transform="translate(31.1484 7.80273)"/>
</clipPath>
</defs>
</svg>
