<svg width="89" height="29" viewBox="0 0 89 29" fill="none" xmlns="http://www.w3.org/2000/svg">
<g id="Traced Image" clip-path="url(#clip0_3710_17945)">
<path id="Vector" fill-rule="evenodd" clip-rule="evenodd" d="M8.18768 0.474997C7.0088 1.73448 6.0232 3.15257 5.31529 4.60789C4.73101 5.80897 4.38962 6.78936 4.16369 7.91458C3.87965 9.32944 3.8717 9.99014 4.10516 12.7641C4.16823 13.5131 4.02275 13.4672 3.77932 12.6612C3.6808 12.3352 3.57028 12.0695 3.53358 12.0708C3.49695 12.0721 2.84904 12.8163 2.09383 13.7245L0.720775 15.3758L0.715822 16.449L0.710938 17.5221H2.59696C4.04278 17.5221 4.49023 17.5427 4.51402 17.6101C4.53105 17.6585 4.56935 17.983 4.599 18.3314L4.65308 18.9647L5.36552 18.9848L6.07797 19.0047L6.11348 19.2311C6.13302 19.3555 6.23014 20.2015 6.32936 21.111C6.5968 23.5623 6.59226 23.534 6.71939 23.5587C6.84882 23.5839 6.88677 23.1386 6.96415 20.6888C6.9892 19.8953 7.03664 19.1733 7.06951 19.0842C7.12309 18.939 7.16754 18.9244 7.49595 18.9435L7.86261 18.9647L7.90817 19.5277C7.93322 19.8373 7.99169 21.1039 8.03809 22.3425C8.1186 24.4925 8.16703 24.8784 8.3349 24.7091C8.38981 24.6537 8.73679 18.1683 8.91959 13.7791C8.9618 12.7671 9.01392 12.4321 9.11363 12.5326C9.14872 12.568 9.18186 13.3264 9.36125 18.1906C9.43444 20.1753 9.45963 20.8463 9.56987 23.7499C9.60664 24.7174 9.65757 26.163 9.68311 26.9622C9.72916 28.4022 9.77095 28.6792 9.91957 28.5293C10.0003 28.4479 10.0696 27.2253 10.3383 21.1462C10.3776 20.256 10.4273 19.393 10.4487 19.2286L10.4877 18.9295H11.6663H12.845L12.8802 18.7008C12.8996 18.575 12.9349 18.2583 12.9587 17.9971L13.002 17.5221H14.7757H16.5493V16.4776V15.4331L15.6227 14.173C15.1131 13.4799 14.54 12.6992 14.3493 12.4379C14.1586 12.1767 13.9804 11.9629 13.9532 11.9629C13.909 11.9629 13.7035 12.5931 13.5804 13.1064C13.5549 13.2128 13.4866 13.2999 13.4288 13.2999C13.3432 13.2999 13.3314 13.2313 13.3654 12.9305C13.5859 10.98 13.6336 10.0774 13.5567 9.31227C13.3201 6.95776 12.6029 4.97959 11.2266 2.88517C10.9596 2.47878 10.5663 1.92462 10.3526 1.65369C9.80507 0.959354 8.87005 0 8.7409 0C8.68118 0 8.43223 0.213714 8.18768 0.474997ZM20.9074 2.83239C20.8891 2.88081 20.8823 8.06355 20.8921 14.3496C20.9064 23.4176 20.928 25.7849 20.9973 25.8082C21.0668 25.8315 21.0845 23.4969 21.0845 14.2909C21.0845 3.3798 21.0694 2.40278 20.9074 2.83239ZM72.2625 2.98277C71.4879 3.35278 71.237 3.82897 71.1836 5.03145L71.1462 5.87589L70.6403 5.89658L70.1345 5.91727V6.30121V6.68515H70.6578H71.1811V9.3592V12.0333H71.6346H72.0881V9.3592V6.68515H72.8207H73.5533V6.30057V5.916L72.8382 5.89595L72.123 5.87589L72.1249 5.13701C72.127 4.3134 72.235 3.97386 72.5642 3.75635C72.7627 3.62518 73.3388 3.5838 73.6057 3.68154C73.7573 3.73714 73.7626 3.72475 73.7626 3.31963C73.7626 2.82662 73.7462 2.81452 73.0766 2.8155C72.7331 2.81599 72.5201 2.85976 72.2625 2.98277ZM39.3004 3.2081C38.6883 3.7275 39.4512 4.65188 40.0802 4.15295C40.4275 3.87745 40.3776 3.33216 39.9865 3.12816C39.7061 2.98193 39.5448 3.00072 39.3004 3.2081ZM28.4804 7.74133V12.0397L28.9513 12.0189L29.4223 11.9981V8.35643C29.4223 6.35349 29.4277 4.71472 29.4343 4.71479C29.4409 4.71479 29.4836 4.83357 29.5292 4.97867C29.5969 5.19457 32.1413 11.0112 32.515 11.8046C32.6033 11.992 32.6629 12.0333 32.8449 12.0333H33.067L34.6112 8.52616C35.4605 6.59718 36.1553 4.96826 36.1553 4.90626C36.1553 4.8442 36.1788 4.77875 36.2076 4.76081C36.2365 4.74286 36.251 6.37327 36.2402 8.38395L36.2203 12.0398L36.6937 12.0189L37.167 11.9981L37.185 7.7231L37.2029 3.44813H36.5701H35.9373L35.7264 3.92312C35.4663 4.50874 34.5328 6.59831 33.8165 8.1981C33.5219 8.85606 33.2008 9.60022 33.1029 9.85179C32.8902 10.3988 32.8265 10.4837 32.7644 10.3034C32.6884 10.0828 31.5464 7.42164 30.6529 5.3833L29.8201 3.48331L29.1502 3.46319L28.4804 3.44306V7.74133ZM75.2127 4.23282L74.8138 4.37314L74.7941 5.12448L74.7743 5.87589L74.2685 5.89658L73.7626 5.91727V6.30121V6.68515H74.2859H74.8092V8.75838C74.8092 10.676 74.82 10.8606 74.9522 11.2171C75.1415 11.7276 75.4508 11.9968 75.9737 12.1067C76.4253 12.2015 77.1595 12.1107 77.2623 11.9473C77.2934 11.8978 77.3194 11.7035 77.32 11.5156C77.3209 11.2168 77.3057 11.1804 77.1989 11.2263C77.1317 11.2551 76.9007 11.2937 76.6853 11.3119C76.3257 11.3424 76.2747 11.3277 76.0574 11.132L75.8209 10.9191L75.8006 8.80208L75.7802 6.68515H76.5499H77.3197L77.3029 6.3157L77.2861 5.94626L76.5279 5.91108L75.7697 5.87589L75.7814 4.97867C75.7945 3.96704 75.8313 4.01531 75.2127 4.23282ZM8.04876 5.17944C7.47028 5.47021 7.13 6.02789 7.13 6.68515C7.13 7.11722 7.24736 7.41903 7.55073 7.76758C8.35227 8.68823 9.72581 8.4983 10.2928 7.38835C10.4625 7.05621 10.4858 6.94193 10.459 6.57642C10.4232 6.08975 10.3004 5.81207 9.97678 5.48569C9.46507 4.9696 8.70616 4.84905 8.04876 5.17944ZM43.6674 5.91628C42.5438 6.30606 41.8473 7.2011 41.6662 8.48753C41.3583 10.6751 42.7291 12.3065 44.7441 12.1507C45.2667 12.1102 46.0172 11.8834 46.1057 11.739C46.1548 11.6588 46.1856 10.9073 46.1397 10.9073C46.1243 10.9073 45.9359 10.9943 45.7211 11.1007C45.2206 11.3484 44.4348 11.4031 43.9088 11.227C43.5114 11.0938 43.0672 10.6965 42.8619 10.2907C42.6679 9.90717 42.5528 9.18764 42.6072 8.69871C42.7069 7.8022 43.1227 7.12221 43.7858 6.77128C44.0927 6.60886 44.2295 6.58142 44.7373 6.58058C45.2398 6.57973 45.393 6.60915 45.74 6.77311C45.9653 6.87958 46.163 6.96663 46.1793 6.96663C46.1956 6.96663 46.1996 6.75291 46.1883 6.49163L46.1677 6.01663L45.8188 5.89658C45.309 5.72108 44.2007 5.73128 43.6674 5.91628ZM49.5865 5.9065C49.1758 6.10227 48.9508 6.3219 48.7166 6.75552L48.5075 7.14255L48.5063 6.52681L48.505 5.91108H48.0166H47.5282V8.97217V12.0333H48.0117H48.4953L48.5176 10.0453L48.5399 8.05736L48.7584 7.59228C49.0483 6.97521 49.3512 6.73884 49.9036 6.69852C50.1281 6.68219 50.4076 6.70246 50.5247 6.74369L50.7377 6.81857V6.36728C50.7377 5.99313 50.7147 5.90355 50.6028 5.84317C50.3917 5.72924 49.8931 5.76034 49.5865 5.9065ZM53.2263 5.91262C52.2378 6.2644 51.6088 6.97535 51.3657 8.01549C51.2241 8.62123 51.2577 9.6713 51.4355 10.2039C51.8974 11.5867 53.1721 12.3451 54.6688 12.1276C56.2874 11.8925 57.229 10.6967 57.2255 8.88076C57.2229 7.4773 56.6739 6.48171 55.634 5.99439C55.2912 5.83374 55.1304 5.80608 54.4357 5.78828C53.7685 5.77125 53.5647 5.79222 53.2263 5.91262ZM59.7733 5.86899C58.5436 6.26222 58.0313 7.22305 58.5218 8.21576C58.7242 8.6256 59.0486 8.87569 59.7901 9.19376C61.1019 9.75651 61.3622 9.97037 61.3622 10.4851C61.3622 11.1118 60.932 11.358 59.9128 11.3145C59.3018 11.2884 59.1649 11.2467 58.3953 10.8521C58.3665 10.8373 58.3429 11.0473 58.3429 11.3187V11.812L58.7441 11.9688C59.3158 12.1922 60.5004 12.1974 61.0888 11.9791C61.9359 11.6649 62.3287 11.1583 62.3287 10.3796C62.3287 9.468 61.9484 9.10242 60.323 8.45164C59.6346 8.176 59.3867 7.93914 59.3389 7.51115C59.3084 7.23853 59.3306 7.17021 59.5203 6.95227C59.9098 6.50479 60.7715 6.42295 61.6295 6.75186C61.8366 6.83123 62.0217 6.89618 62.0409 6.89626C62.0601 6.89633 62.0719 6.69837 62.0672 6.45651L62.0588 6.01663L61.7184 5.89658C61.3074 5.75162 60.19 5.73578 59.7733 5.86899ZM65.4522 5.8723C64.1094 6.24583 63.3666 7.34993 63.3666 8.97217C63.3666 9.99253 63.5847 10.6496 64.1306 11.2742C65.149 12.4393 67.3686 12.4515 68.4503 11.298C69.0547 10.6535 69.2972 9.96741 69.2972 8.9018C69.2972 7.60755 68.8409 6.64897 67.9661 6.10579C67.4506 5.78568 66.1861 5.66823 65.4522 5.8723ZM39.2253 8.97217V12.0333H39.6788H40.1323V8.97217V5.91108H39.6788H39.2253V8.97217ZM53.5963 6.65249C52.143 7.10434 51.7247 9.67777 52.9151 10.8429C53.2569 11.1775 53.699 11.3298 54.326 11.3289C55.6277 11.327 56.3084 10.4148 56.2359 8.76971C56.1988 7.92929 56.016 7.43592 55.5853 7.01405C55.1407 6.57854 54.3162 6.42865 53.5963 6.65249ZM65.6439 6.65925C65.4144 6.73032 65.196 6.87409 64.968 7.10406C64.4954 7.58067 64.3157 8.17769 64.3568 9.13437C64.4023 10.1946 64.7437 10.8029 65.4946 11.1616C65.8906 11.3507 66.6066 11.3892 67.078 11.2468C67.467 11.1292 67.9227 10.6969 68.1188 10.2591C68.2682 9.92561 68.2854 9.78832 68.2852 8.93698C68.2847 8.03899 68.274 7.96489 68.0889 7.58384C67.9812 7.3621 67.7772 7.08414 67.6357 6.96606C67.1569 6.56664 66.3462 6.44174 65.6439 6.65925ZM30.0385 16.3857C29.5412 16.559 29.2455 16.8058 29.0028 17.2498C28.8115 17.5998 28.7943 17.6913 28.7707 18.4897L28.7451 19.3517H28.229H27.7129V19.774V20.1962H28.2361H28.7594V22.835V25.4739H29.213H29.6665V22.8375V20.2011L30.3817 20.181L31.0968 20.161V19.774V19.3869L30.3728 19.3668L29.6488 19.3466L29.6805 18.5927C29.7136 17.8048 29.7949 17.5405 30.0855 17.2757C30.2122 17.1601 30.3379 17.1351 30.7904 17.1351H31.341V16.7397V16.3443L31.0794 16.3006C30.6644 16.2315 30.425 16.251 30.0385 16.3857ZM48.3897 16.8202C47.7749 16.9321 47.2727 17.1626 46.893 17.5068C46.4123 17.9428 46.2041 18.3955 46.2032 19.007C46.2016 20.1317 46.6602 20.6473 48.5193 21.611C49.6726 22.2088 50.1197 22.5873 50.2485 23.0749C50.3849 23.5914 50.2171 24.1409 49.8403 24.4115C49.5923 24.5896 48.9287 24.7702 48.5223 24.7702C48.0275 24.7702 47.1755 24.563 46.6909 24.3247C46.4415 24.2021 46.2122 24.0906 46.1813 24.0769C46.1504 24.0634 46.1347 24.3009 46.1464 24.6047L46.1677 25.1573L46.421 25.2822C47.0166 25.576 48.5453 25.7083 49.3563 25.5362C50.1712 25.3634 50.8422 24.8965 51.1179 24.3105C51.1917 24.1539 51.2633 23.8114 51.2812 23.5302C51.3236 22.8638 51.176 22.4228 50.7503 21.9449C50.364 21.5111 49.9354 21.2246 48.8189 20.6536C47.8331 20.1494 47.3712 19.7469 47.2495 19.286C47.1497 18.9082 47.1974 18.6283 47.4192 18.2903C47.6683 17.9107 48.1246 17.7211 48.8888 17.6796C49.5963 17.6413 50.1241 17.7308 50.6156 17.9726L50.9471 18.1356V17.5853V17.0349L50.5808 16.9246C50.1348 16.7903 48.8817 16.7306 48.3897 16.8202ZM53.11 17.7223L52.7263 17.8435L52.7065 18.5946L52.6867 19.3457L52.1832 19.3663L51.6797 19.3869V19.774V20.161L52.1802 20.1815L52.6806 20.2022L52.7046 22.3278C52.7303 24.6144 52.7534 24.7692 53.1308 25.1832C53.4832 25.5698 54.3954 25.7441 54.9835 25.5374C55.194 25.4634 55.2032 25.444 55.2032 25.0725C55.2032 24.7654 55.1825 24.6928 55.1035 24.7234C54.8391 24.8257 54.5001 24.8445 54.2322 24.7718C53.9833 24.7042 53.9159 24.6451 53.804 24.3966C53.6839 24.1297 53.6711 23.9162 53.6697 22.1489L53.6682 20.1962H54.4357H55.2032V19.774V19.3517H54.4357H53.6682V18.4721C53.6682 17.4871 53.7036 17.5348 53.11 17.7223ZM67.3087 17.727L66.9598 17.8507L66.94 18.6012L66.9202 19.3517H66.3958H65.8714L65.8923 19.7564L65.9132 20.161L66.4145 20.1815L66.9158 20.2022L66.9378 22.3278C66.9584 24.3215 66.969 24.4732 67.1077 24.7702C67.2841 25.1476 67.5697 25.4252 67.8947 25.5347C68.1907 25.6345 68.8295 25.6374 69.1751 25.5406L69.4368 25.4673V25.0761C69.4368 24.7363 69.4211 24.6908 69.3178 24.7308C69.0158 24.8477 68.6117 24.853 68.3822 24.7432C67.9403 24.5317 67.9388 24.5241 67.9153 22.2545L67.894 20.1962H68.6653H69.4368V19.774V19.3517H68.6693H67.9018V18.4721C67.9018 17.4734 67.9287 17.5073 67.3087 17.727ZM34.1319 19.2596C33.7744 19.32 33.2494 19.5219 32.9223 19.7248C31.5002 20.6073 31.1958 23.2452 32.3519 24.6683C32.9025 25.3458 33.6822 25.6452 34.7864 25.6028C35.4007 25.5793 35.5533 25.547 35.96 25.3542C37.0213 24.8514 37.6205 23.8006 37.6205 22.4428C37.6205 20.6925 36.818 19.5549 35.3906 19.2819C35.0249 19.212 34.4721 19.2022 34.1319 19.2596ZM57.8914 19.2816C57.4623 19.3595 56.9726 19.5416 56.7261 19.715C56.5576 19.8335 56.5401 19.8873 56.5451 20.2697C56.5481 20.5026 56.5693 20.6843 56.5921 20.6734C56.6149 20.6625 56.883 20.5269 57.1879 20.3721C57.7212 20.1013 57.7681 20.0906 58.421 20.0906C58.9971 20.0906 59.1289 20.1125 59.2922 20.2354C59.5495 20.4289 59.7337 20.8042 59.7848 21.2391C59.8341 21.659 59.9228 21.6163 58.6569 21.7811C57.368 21.949 56.9319 22.1027 56.4952 22.5432C56.2056 22.8352 56.1132 22.9867 56.0421 23.2855C55.8343 24.159 56.1134 24.9575 56.7694 25.3665C57.0932 25.5684 57.1493 25.5795 57.8491 25.5795C58.7122 25.5795 58.9631 25.481 59.4465 24.9521C59.6086 24.7747 59.7563 24.6295 59.7747 24.6295C59.7931 24.6295 59.8082 24.8195 59.8082 25.0517V25.4739H60.3024H60.7966L60.7682 23.1693C60.7349 20.4686 60.7048 20.2984 60.1676 19.7734C59.9891 19.5989 59.7175 19.4153 59.564 19.3652C59.1977 19.2459 58.3279 19.2024 57.8914 19.2816ZM79.9724 19.2722C79.5286 19.3699 79.1751 19.5858 78.7688 20.0072L78.3676 20.4233V19.8843V19.3453L77.8967 19.3661L77.4257 19.3869V23.8554V28.3239L77.8967 28.3447L78.3676 28.3655V26.5327C78.3676 25.5247 78.3861 24.6999 78.4087 24.6999C78.4313 24.6999 78.5805 24.8352 78.7401 25.0005C79.1576 25.4328 79.4824 25.5703 80.1624 25.6021C81.7235 25.6752 82.7469 24.6672 82.9727 22.8338C83.1724 21.214 82.5333 19.767 81.4512 19.3885C81.0675 19.2543 80.3206 19.1955 79.9724 19.2722ZM85.7286 19.3128C84.9744 19.5072 84.6122 19.7447 84.3304 20.2298C84.1859 20.4785 84.15 20.6323 84.15 21.0031C84.15 21.839 84.5219 22.249 85.7396 22.7555C86.6001 23.1134 86.8217 23.2454 87.002 23.5074C87.281 23.9129 87.1522 24.4494 86.7217 24.6748C86.1798 24.9585 85.0252 24.8449 84.4218 24.4486C84.2788 24.3545 84.144 24.2776 84.1223 24.2776C84.1006 24.2776 84.0921 24.5072 84.1033 24.7878L84.1238 25.298L84.5774 25.4539C85.1345 25.6453 86.1754 25.6718 86.7207 25.5085C88.1249 25.0879 88.5934 23.6764 87.636 22.7506C87.4279 22.5493 87.1196 22.3878 85.8536 21.8166C85.3368 21.5834 85.1165 21.3303 85.1165 20.9697C85.1165 20.8104 85.1554 20.607 85.2028 20.5176C85.4998 19.958 86.6428 19.8908 87.7346 20.3689C87.8438 20.4167 87.8567 20.3741 87.8567 19.9659C87.8567 19.5341 87.8463 19.5054 87.6648 19.4308C87.1303 19.2117 86.3143 19.1619 85.7286 19.3128ZM41.0324 19.4199C40.7348 19.5804 40.3777 19.9738 40.2145 20.3209L40.0975 20.57L40.0626 19.9785L40.0277 19.3869L39.5567 19.3661L39.0858 19.3453V22.4096V25.4739H39.5702H40.0546L40.076 23.4842L40.0975 21.4945L40.33 21.0184C40.6265 20.4114 40.9646 20.161 41.4877 20.161C41.6825 20.161 41.9295 20.1857 42.0369 20.216L42.232 20.2708L42.2113 19.7937L42.1906 19.3166L41.7371 19.3005C41.3999 19.2885 41.2192 19.3192 41.0324 19.4199ZM64.4307 19.4279C64.1078 19.5908 63.8298 19.8859 63.6591 20.2469C63.5991 20.3739 63.5244 20.4777 63.4932 20.4777C63.4619 20.4777 63.4363 20.2243 63.4363 19.9147V19.3517H62.9828H62.5293V22.4128V25.4739H62.9769H63.4247L63.4543 23.5563C63.4863 21.4874 63.5098 21.3319 63.8743 20.7819C64.257 20.2043 64.814 20.0188 65.5155 20.2352C65.6733 20.2839 65.6755 20.277 65.655 19.8006L65.6342 19.3166L65.1806 19.2975C64.8305 19.2827 64.6595 19.3125 64.4307 19.4279ZM70.5092 19.4557C70.4874 19.5128 70.4835 20.5182 70.5004 21.6899C70.5345 24.0428 70.5669 24.2538 70.9898 24.8798C71.3237 25.374 71.738 25.5667 72.5423 25.6023C73.3617 25.6384 73.7495 25.4862 74.2524 24.9312L74.5999 24.5478V25.0108V25.4739H75.0891H75.5782L75.56 22.4304L75.5418 19.3869L75.0709 19.3661L74.5999 19.3453V21.3061C74.5999 23.6247 74.566 23.814 74.0552 24.3459C73.8245 24.5861 73.6352 24.7116 73.4143 24.771C72.7848 24.9402 72.1119 24.7489 71.8213 24.3182C71.4947 23.8341 71.4602 23.5531 71.4602 21.3813V19.3517H71.0045C70.667 19.3517 70.5385 19.3787 70.5092 19.4557ZM79.9212 20.0586C79.271 20.1895 78.8373 20.5441 78.5523 21.1778C78.3758 21.5702 78.306 22.9039 78.4322 23.4724C78.5349 23.935 78.8504 24.3677 79.2641 24.6129C79.5452 24.7797 79.6633 24.8053 80.1468 24.8044C80.7673 24.8034 80.9826 24.7203 81.3635 24.3355C82.3073 23.382 82.2566 21.046 81.2766 20.3295C80.9145 20.0647 80.4008 19.9621 79.9212 20.0586ZM33.9759 20.1255C33.1079 20.3891 32.6324 21.24 32.6389 22.5184C32.6419 23.0971 32.6689 23.2465 32.8403 23.6308C33.1829 24.399 33.8576 24.8412 34.6854 24.8402C35.4826 24.8392 36.0387 24.4987 36.378 23.8036C36.603 23.3426 36.6088 23.3082 36.6049 22.4495C36.6005 21.4637 36.5197 21.1528 36.1429 20.673C35.8137 20.2538 35.342 20.0555 34.6901 20.0622C34.4023 20.0651 34.0809 20.0936 33.9759 20.1255ZM58.7042 22.5252C57.3239 22.7369 57.013 22.9479 56.9649 23.7057C56.9332 24.2059 57.1038 24.5098 57.5246 24.7024C58.0774 24.9555 58.7357 24.8502 59.1902 24.4361C59.618 24.0463 59.7583 23.7114 59.7943 22.9934C59.8228 22.4254 59.8151 22.3783 59.6946 22.3855C59.6228 22.3898 59.1771 22.4527 58.7042 22.5252Z" fill="#3F3F41"/>
</g>
<defs>
<clipPath id="clip0_3710_17945">
<rect width="87.4248" height="28.5702" fill="white" transform="translate(0.710938)"/>
</clipPath>
</defs>
</svg>
