<svg width="17" height="128" viewBox="0 0 17 128" fill="none" xmlns="http://www.w3.org/2000/svg">
<path d="M3.41402 50.2622H6.39794V46.7518H7.75825V50.2622H10.8738V46.3129H12.2341V51.9297H2.05371V46.3129H3.41402V50.2622Z" fill="#3F3F41"/>
<path d="M10.7422 39.9734L4.17463 37.6916V35.9217L12.2341 38.9934V40.9826L4.17463 44.0397V42.2552L10.7422 39.9734Z" fill="#3F3F41"/>
<path d="M8.00691 26.1044C8.3092 26.1044 8.58224 26.1239 8.82603 26.163V32.3209C9.46961 32.2722 9.98644 32.0333 10.3765 31.6042C10.7665 31.1751 10.9616 30.6486 10.9616 30.0245C10.9616 29.1274 10.5861 28.4935 9.83529 28.123V26.3239C10.5764 26.5676 11.1859 27.0113 11.6637 27.6549C12.1317 28.2887 12.3658 29.0786 12.3658 30.0245C12.3658 30.7948 12.1951 31.4872 11.8538 32.1015C11.5028 32.7061 11.0152 33.1839 10.3911 33.535C9.75728 33.8763 9.02593 34.0469 8.19706 34.0469C7.3682 34.0469 6.64172 33.8811 6.01764 33.5496C5.3838 33.2083 4.89623 32.7354 4.55493 32.1308C4.21364 31.5164 4.04299 30.8143 4.04299 30.0245C4.04299 29.2639 4.20876 28.5862 4.54031 27.9913C4.87185 27.3965 5.33992 26.9333 5.9445 26.6018C6.53933 26.2702 7.2268 26.1044 8.00691 26.1044ZM7.48034 27.8451C6.866 27.8548 6.37356 28.0742 6.00301 28.5033C5.63246 28.9323 5.44718 29.4638 5.44718 30.0976C5.44718 30.673 5.63246 31.1654 6.00301 31.575C6.36381 31.9845 6.85625 32.2283 7.48034 32.3063V27.8451Z" fill="#3F3F41"/>
<path d="M4.04299 19.227C4.04299 18.5932 4.17463 18.0276 4.43792 17.5303C4.7012 17.0232 5.09126 16.6283 5.60808 16.3455C6.1249 16.0627 6.74899 15.9213 7.48034 15.9213H12.2341V17.5741H7.729C7.0074 17.5741 6.45645 17.7545 6.07614 18.1153C5.68609 18.4761 5.49106 18.9686 5.49106 19.5927C5.49106 20.2168 5.68609 20.7141 6.07614 21.0846C6.45645 21.4454 7.0074 21.6258 7.729 21.6258H12.2341V23.2933H4.17463V21.6258H5.09613C4.76459 21.3528 4.50618 21.0066 4.3209 20.5873C4.13563 20.1583 4.04299 19.7048 4.04299 19.227Z" fill="#3F3F41"/>
<path d="M5.53494 10.6788H9.99619C10.2985 10.6788 10.5179 10.6105 10.6544 10.474C10.7812 10.3277 10.8446 10.0839 10.8446 9.74263V8.71874H12.2341V10.0352C12.2341 10.786 12.0586 11.3614 11.7076 11.7612C11.3565 12.161 10.786 12.3609 9.99619 12.3609H5.53494V13.3116H4.17463V12.3609H2.17073V10.6788H4.17463V8.71874H5.53494V10.6788Z" fill="#3F3F41"/>
<path d="M12.3658 3.0863C12.3658 3.72014 12.2536 4.2906 12.0293 4.79767C11.7953 5.29498 11.4833 5.68991 11.0932 5.98245C10.6934 6.275 10.2497 6.43102 9.76215 6.45052V4.72453C10.1035 4.69528 10.3911 4.53438 10.6251 4.24184C10.8494 3.93955 10.9616 3.56412 10.9616 3.11556C10.9616 2.64749 10.8738 2.28669 10.6983 2.03316C10.513 1.76987 10.279 1.63823 9.99619 1.63823C9.6939 1.63823 9.46961 1.7845 9.32334 2.07704C9.17707 2.35983 9.01618 2.81327 8.84065 3.43735C8.67488 4.04194 8.51398 4.53438 8.35796 4.91468C8.20194 5.29498 7.96303 5.62653 7.64124 5.90932C7.31944 6.18236 6.89526 6.31888 6.36868 6.31888C5.93962 6.31888 5.54957 6.19211 5.19852 5.93857C4.83772 5.68504 4.55493 5.32424 4.35015 4.85617C4.14538 4.37836 4.04299 3.83228 4.04299 3.21795C4.04299 2.30132 4.27702 1.56509 4.74508 1.00926C5.2034 0.443687 5.83236 0.141395 6.63197 0.102389V1.76987C6.27117 1.79912 5.98351 1.94539 5.76898 2.20868C5.55445 2.47197 5.44718 2.82789 5.44718 3.27645C5.44718 3.71527 5.53007 4.05169 5.69584 4.28572C5.86161 4.51975 6.08102 4.63677 6.35406 4.63677C6.56859 4.63677 6.74899 4.55876 6.89526 4.40274C7.04153 4.24671 7.15854 4.05656 7.24631 3.83228C7.32432 3.608 7.42671 3.27645 7.55347 2.83764C7.7095 2.25256 7.87039 1.77475 8.03617 1.40419C8.19219 1.02389 8.42622 0.697222 8.73826 0.424184C9.05031 0.151146 9.46474 0.00975152 9.98156 0C10.4399 0 10.8494 0.126768 11.2102 0.380303C11.571 0.633838 11.8538 0.994638 12.0586 1.4627C12.2634 1.92102 12.3658 2.46222 12.3658 3.0863Z" fill="#3F3F41"/>
<path d="M5.28893 123.024V124.541H12.1547V126.762H5.28893V127.747H3.49038V126.762H3.05247C1.98898 126.762 1.20701 126.46 0.706539 125.855C0.206074 125.25 -0.0285194 124.338 0.00275996 123.118H1.84823C1.8378 123.65 1.92642 124.02 2.1141 124.229C2.30177 124.437 2.64063 124.541 3.13067 124.541H3.49038L3.49038 123.024H5.28893Z" fill="#05B851"/>
<path d="M7.79126 122.481C6.91544 122.481 6.13868 122.309 5.46096 121.965C4.78325 121.611 4.26193 121.136 3.89701 120.542C3.53209 119.937 3.34962 119.265 3.34962 118.524C3.34962 117.878 3.47995 117.315 3.74061 116.835C4.00127 116.345 4.3297 115.954 4.7259 115.662H3.49038V113.457H12.1547V115.662H10.8879C11.2945 115.944 11.6334 116.335 11.9045 116.835C12.1651 117.325 12.2954 117.894 12.2954 118.54C12.2954 119.27 12.1078 119.937 11.7324 120.542C11.3571 121.136 10.8305 121.611 10.1528 121.965C9.46469 122.309 8.6775 122.481 7.79126 122.481ZM7.82254 115.662C7.29079 115.662 6.83724 115.767 6.46189 115.975C6.07612 116.184 5.78418 116.465 5.58608 116.82C5.37755 117.174 5.27329 117.555 5.27329 117.961C5.27329 118.368 5.37234 118.743 5.57044 119.087C5.76854 119.431 6.06048 119.713 6.44626 119.932C6.8216 120.14 7.26994 120.245 7.79126 120.245C8.31258 120.245 8.77133 120.14 9.16754 119.932C9.55331 119.713 9.85046 119.431 10.059 119.087C10.2675 118.733 10.3718 118.358 10.3718 117.961C10.3718 117.555 10.2727 117.174 10.0746 116.82C9.8661 116.465 9.57417 116.184 9.19882 115.975C8.81304 115.767 8.35428 115.662 7.82254 115.662Z" fill="#05B851"/>
<path d="M7.79126 101.953C6.91544 101.953 6.13868 101.781 5.46096 101.437C4.78325 101.082 4.26193 100.608 3.89701 100.014C3.53209 99.409 3.34962 98.7365 3.34962 97.9962C3.34962 97.3498 3.47995 96.7868 3.74061 96.3072C4.00127 95.8171 4.3297 95.4261 4.7259 95.1342H3.49038L3.49038 92.929H12.1547V95.1342H10.8879C11.2945 95.4157 11.6334 95.8067 11.9045 96.3072C12.1651 96.7972 12.2954 97.3655 12.2954 98.0119C12.2954 98.7417 12.1078 99.409 11.7324 100.014C11.3571 100.608 10.8305 101.082 10.1528 101.437C9.46469 101.781 8.6775 101.953 7.79126 101.953ZM7.82254 95.1342C7.29079 95.1342 6.83724 95.2385 6.46189 95.447C6.07612 95.6555 5.78418 95.937 5.58608 96.2915C5.37755 96.646 5.27329 97.0266 5.27329 97.4332C5.27329 97.8398 5.37234 98.2152 5.57044 98.5593C5.76854 98.9033 6.06048 99.1849 6.44626 99.4038C6.8216 99.6123 7.26994 99.7166 7.79126 99.7166C8.31258 99.7166 8.77133 99.6123 9.16754 99.4038C9.55331 99.1849 9.85046 98.9033 10.059 98.5593C10.2675 98.2048 10.3718 97.8294 10.3718 97.4332C10.3718 97.0266 10.2727 96.646 10.0746 96.2915C9.8661 95.937 9.57417 95.6555 9.19882 95.447C8.81304 95.2385 8.35428 95.1342 7.82254 95.1342Z" fill="#05B851"/>
<path d="M7.79126 91.6664C6.91544 91.6664 6.13868 91.4943 5.46096 91.1503C4.78325 90.7958 4.26193 90.3162 3.89701 89.7114C3.53209 89.1067 3.34962 88.4342 3.34962 87.6939C3.34962 87.1309 3.47474 86.594 3.72497 86.0831C3.96478 85.5722 4.288 85.1655 4.69462 84.8632H0.581423L0.581423 82.6424H12.1547L12.1547 84.8632H10.8722C11.2997 85.1343 11.6438 85.5148 11.9045 86.0049C12.1651 86.4949 12.2954 87.0631 12.2954 87.7096C12.2954 88.4394 12.1078 89.1067 11.7324 89.7114C11.3571 90.3162 10.8305 90.7958 10.1528 91.1503C9.46469 91.4943 8.6775 91.6664 7.79126 91.6664ZM7.82254 84.8475C7.29079 84.8475 6.83724 84.9518 6.46189 85.1603C6.07612 85.3689 5.78418 85.6504 5.58608 86.0049C5.37755 86.3594 5.27329 86.7399 5.27329 87.1466C5.27329 87.5532 5.37234 87.9285 5.57044 88.2726C5.76854 88.6167 6.06048 88.8982 6.44626 89.1171C6.8216 89.3257 7.26994 89.4299 7.79126 89.4299C8.31258 89.4299 8.77133 89.3257 9.16754 89.1171C9.55331 88.8982 9.85046 88.6167 10.059 88.2726C10.2675 87.9181 10.3718 87.5428 10.3718 87.1466C10.3718 86.7399 10.2727 86.3594 10.0746 86.0049C9.8661 85.6504 9.57417 85.3689 9.19882 85.1603C8.81304 84.9518 8.35428 84.8475 7.82254 84.8475Z" fill="#05B851"/>
<path d="M7.79126 81.3797C6.91544 81.3797 6.13868 81.2077 5.46096 80.8636C4.78325 80.5091 4.26193 80.0347 3.89701 79.4404C3.53209 78.8357 3.34962 78.1632 3.34962 77.4229C3.34962 76.7765 3.47995 76.2134 3.74061 75.7338C4.00127 75.2438 4.3297 74.8528 4.7259 74.5609H3.49038L3.49038 72.3557H12.1547V74.5609H10.8879C11.2945 74.8424 11.6334 75.2334 11.9045 75.7338C12.1651 76.2239 12.2954 76.7921 12.2954 77.4385C12.2954 78.1684 12.1078 78.8357 11.7324 79.4404C11.3571 80.0347 10.8305 80.5091 10.1528 80.8636C9.46469 81.2077 8.6775 81.3797 7.79126 81.3797ZM7.82254 74.5609C7.29079 74.5609 6.83724 74.6651 6.46189 74.8737C6.07612 75.0822 5.78418 75.3637 5.58608 75.7182C5.37755 76.0727 5.27329 76.4533 5.27329 76.8599C5.27329 77.2665 5.37234 77.6419 5.57044 77.9859C5.76854 78.33 6.06048 78.6115 6.44626 78.8305C6.8216 79.039 7.26994 79.1433 7.79126 79.1433C8.31258 79.1433 8.77133 79.039 9.16754 78.8305C9.55331 78.6115 9.85046 78.33 10.059 77.9859C10.2675 77.6314 10.3718 77.2561 10.3718 76.8599C10.3718 76.4533 10.2727 76.0727 10.0746 75.7182C9.8661 75.3637 9.57417 75.0822 9.19882 74.8737C8.81304 74.6651 8.35428 74.5609 7.82254 74.5609Z" fill="#05B851"/>
<path d="M3.49038 62.2411L16.2523 67.6054V69.9357L11.9357 68.059L3.49038 71.5309V69.0755L9.54289 66.8391L3.49038 64.5713V62.2411Z" fill="#05B851"/>
<g clip-path="url(#clip0_69_702)">
<path fill-rule="evenodd" clip-rule="evenodd" d="M4.78307 112.202H10.9592C11.3497 112.202 11.7401 112.046 11.9874 111.753C12.1371 111.578 12.2347 111.363 12.2347 111.096V104.588C12.2347 104.347 12.1371 104.132 12.033 103.996C11.7597 103.625 11.4082 103.488 10.9527 103.482C10.9201 103.482 10.9071 103.475 10.8746 103.475H10.8225C9.63805 103.482 8.44057 103.475 7.24961 103.475C7.35373 103.781 7.48389 104.119 7.58151 104.308C7.58802 104.328 7.59453 104.347 7.60755 104.367H9.67059C9.78773 104.367 9.89186 104.373 10.0025 104.373C10.2238 104.373 10.4515 104.373 10.6793 104.373C11.1154 104.373 11.3431 104.341 11.3627 104.705C11.3627 104.764 11.3562 104.816 11.3627 104.868C11.3822 105.005 11.3692 109.905 11.3692 110.042C11.3692 110.178 11.3627 110.296 11.3627 110.426C11.3627 110.608 11.3822 111.018 11.3171 111.161C11.2781 111.252 11.187 111.304 11.0633 111.304C11.0308 111.304 11.0177 111.311 10.9787 111.311C10.9462 111.311 10.9136 111.311 10.8811 111.311C10.8095 111.311 10.7574 111.317 10.6923 111.317L8.7074 111.324C8.42756 111.324 8.16724 111.317 7.8939 111.317H6.67039C6.52722 111.317 6.41007 111.311 6.2669 111.311H5.04339C4.89371 111.311 4.60735 111.324 4.51624 111.22C4.43164 111.129 4.43164 111.018 4.43164 110.894C4.43164 110.849 4.42513 110.836 4.42513 110.797C4.4056 109.163 4.42513 107.484 4.42513 105.857C4.42513 105.655 4.41211 104.77 4.44465 104.614C4.47068 104.49 4.52926 104.412 4.65291 104.386C4.77656 104.367 4.92625 104.386 5.05641 104.373C5.18657 104.36 5.34276 104.367 5.47943 104.367C5.62911 104.367 5.75276 104.36 5.89594 104.36H6.24737C6.13674 104.087 6.03261 103.801 5.95451 103.521L5.93499 103.475H5.02387C4.69196 103.475 4.34052 103.514 4.0737 103.69C4.03465 103.709 4.00862 103.735 3.96957 103.762C3.72226 103.957 3.54004 104.347 3.54004 104.673L3.54004 110.992C3.54004 111.155 3.5921 111.343 3.65068 111.493C3.83941 111.942 4.28846 112.202 4.78307 112.202Z" fill="#05B851"/>
<path fill-rule="evenodd" clip-rule="evenodd" d="M8.309 107.484C8.27646 107.53 8.1463 107.653 8.09423 107.699C7.99011 107.809 7.88598 107.92 7.80137 108.044L7.75582 108.109C7.7428 108.128 7.72979 108.154 7.71677 108.174C7.69725 108.193 7.68423 108.219 7.67121 108.239C7.53455 108.519 7.43693 108.792 7.35232 109.111C7.28724 109.391 7.20915 109.71 7.24169 110.009C7.24819 110.042 7.2547 110.074 7.26121 110.107C7.37185 110.107 7.45645 110.113 7.56709 110.113C7.66471 110.113 7.77534 110.126 7.87296 110.126C8.08122 110.126 8.28297 110.146 8.49122 110.146C8.49122 110.12 8.48472 110.12 8.48472 110.087C8.48472 109.69 8.49122 109.521 8.62789 109.163C8.70599 108.942 8.83615 108.74 8.98583 108.564C8.99885 108.551 9.00536 108.545 9.01837 108.532C9.06393 108.467 9.13552 108.402 9.19409 108.35L9.26568 108.291C9.45441 108.135 9.62362 108.018 9.83838 107.9C10.0597 107.783 10.2874 107.692 10.5217 107.614C10.5543 107.608 10.5998 107.595 10.6259 107.582C10.6063 107.543 10.5933 107.484 10.5803 107.438L10.4371 106.996C10.4176 106.944 10.4046 106.898 10.3916 106.853L10.2939 106.553C10.2809 106.508 10.2679 106.443 10.2484 106.404C10.2289 106.404 10.2028 106.41 10.1768 106.41C10.0662 106.423 9.94251 106.443 9.82537 106.443C9.79283 106.443 9.78632 106.449 9.75378 106.449C9.38933 106.462 9.07044 106.43 8.72551 106.313C8.50424 106.241 8.309 106.13 8.12027 106L7.99661 105.909C7.9055 105.831 7.7428 105.688 7.67121 105.597C7.59312 105.506 7.51502 105.414 7.43693 105.317L7.34581 105.187C7.28073 105.096 7.22216 105.004 7.1701 104.907C7.092 104.783 6.98136 104.594 6.9293 104.458C6.91628 104.432 6.90327 104.412 6.89025 104.386C6.87724 104.36 6.87073 104.334 6.85771 104.308C6.70152 103.996 6.45422 103.293 6.3631 102.967L6.25898 102.616C6.23945 102.557 6.21993 102.499 6.20691 102.434C6.17437 102.453 5.65373 102.577 5.60167 102.59L5.15261 102.707C5.10706 102.72 5.04198 102.727 5.00293 102.746C5.00944 102.824 5.20468 103.449 5.23071 103.521C5.32833 103.859 5.45849 104.21 5.59516 104.536C5.60817 104.568 5.62119 104.594 5.63421 104.627L5.74484 104.887C5.76437 104.913 5.77738 104.939 5.7904 104.972C5.80992 105.03 5.84246 105.089 5.8685 105.141C5.95961 105.304 6.04421 105.466 6.14834 105.623C6.2785 105.824 6.41517 106.02 6.56485 106.208C6.62342 106.273 6.67549 106.345 6.74057 106.41C6.7666 106.43 6.77962 106.449 6.79914 106.475C6.90327 106.579 7.0074 106.69 7.12454 106.781L7.3328 106.944C7.5801 107.133 7.84042 107.289 8.12027 107.412C8.15931 107.432 8.26344 107.484 8.309 107.484Z" fill="#05B851"/>
</g>
<path d="M0.34409 60.474L0.34409 61.0745H2V61.4065H0.34409L0.34409 62.0016H0.0742772L0.0742772 60.474H0.34409ZM0.0742772 59.7863L1.55031 59.2308L0.0742772 58.6766L0.0742772 58.2441H2L2 58.5774H1.36515L0.51603 58.5443L2 59.1131V59.3524L0.517352 59.9198L1.36515 59.8868H2V60.2201H0.0742772L0.0742772 59.7863Z" fill="#05B851"/>
<defs>
<clipPath id="clip0_69_702">
<rect width="9.76852" height="8.6959" fill="white" transform="translate(3.53711 112.202) rotate(-90)"/>
</clipPath>
</defs>
</svg>
