<svg xmlns="http://www.w3.org/2000/svg" viewBox="0 0 841.9 595.3"><g fill="#61DAFB"><path d="M666.3 296.5c0-32.5-40.7-63.3-103.1-82.4 14.4-63.6 8-114.2-20.2-130.4-6.5-3.8-14.1-5.6-22.4-5.6v22.3c4.6 0 8.3.9 11.4 2.6 13.6 7.8 19.5 37.5 14.9 75.7-1.1 9.4-2.9 19.3-5.1 29.4-19.6-4.8-41-8.5-63.5-10.9-13.5-18.5-27.5-35.3-41.6-50 32.6-30.3 63.2-46.9 84-46.9V78c-27.5 0-63.5 19.6-99.9 53.6-36.4-33.8-72.4-53.2-99.9-53.2v22.3c20.7 0 51.4 16.5 84 46.6-14 14.7-28 31.4-41.3 49.9-22.6 2.4-44 6.1-63.6 11-2.3-10-4-19.7-5.2-29-4.7-38.2 1.1-67.9 14.6-75.8 3-1.8 6.9-2.6 11.5-2.6V78.5c-8.4 0-16 1.8-22.6 5.6-28.1 16.2-34.4 66.7-19.9 130.1-62.2 19.2-102.7 49.9-102.7 82.3 0 32.5 40.7 63.3 103.1 82.4-14.4 63.6-8 114.2 20.2 130.4 6.5 3.8 14.1 5.6 22.5 5.6 27.5 0 63.5-19.6 99.9-53.6 36.4 33.8 72.4 53.2 99.9 53.2 8.4 0 16-1.8 22.6-5.6 28.1-16.2 34.4-66.7 19.9-130.1 62-19.1 102.5-49.9 102.5-82.3zm-130.2-66.7c-3.7 12.9-8.3 26.2-13.5 39.5-4.1-8-8.4-16-13.1-24-4.6-8-9.5-15.8-14.4-23.4 14.2 2.1 27.9 4.7 41 7.9zm-45.8 106.5c-7.8 13.5-15.8 26.3-24.1 38.2-14.9 1.3-30 2-45.2 2-15.1 0-30.2-.7-45-1.9-8.3-11.9-16.4-24.6-24.2-38-7.6-13.1-14.5-26.4-20.8-39.8 6.2-13.4 13.2-26.8 20.7-39.9 7.8-13.5 15.8-26.3 24.1-38.2 14.9-1.3 30-2 45.2-2 15.1 0 30.2.7 45 1.9 8.3 11.9 16.4 24.6 24.2 38 7.6 13.1 14.5 26.4 20.8 39.8-6.3 13.4-13.2 26.8-20.7 39.9zm32.3-13c5.4 13.4 10 26.8 13.8 39.8-13.1 3.2-26.9 5.9-41.2 8 4.9-7.7 9.8-15.6 14.4-23.7 4.6-8 8.9-16.1 13-24.1zM421.2 430c-9.3-9.6-18.6-20.3-27.8-32 9 .4 18.2.7 27.5.7 9.4 0 18.7-.2 27.8-.7-9 11.7-18.3 22.4-27.5 32zm-74.4-58.9c-14.2-2.1-27.9-4.7-41-7.9 3.7-12.9 8.3-26.2 13.5-39.5 4.1 8 8.4 16 13.1 24 4.7 8 9.5 15.8 14.4 23.4zM420.7 163c9.3 9.6 18.6 20.3 27.8 32-9-.4-18.2-.7-27.5-.7-9.4 0-18.7.2-27.8.7 9-11.7 18.3-22.4 27.5-32zm-74 58.9c-4.9 7.7-9.8 15.6-14.4 23.7-4.6 8-8.9 16-13 24-5.4-13.4-10-26.8-13.8-39.8 13.1-3.1 26.9-5.8 41.2-7.9zm-90.5 125.2c-35.4-15.1-58.3-34.9-58.3-50.6 0-15.7 22.9-35.6 58.3-50.6 8.6-3.7 18-7 27.7-10.1 5.7 19.6 13.2 40 22.5 60.9-9.2 20.8-16.6 41.1-22.2 60.6-9.9-3.1-19.3-6.5-28-10.2zM310 490c-13.6-7.8-19.5-37.5-14.9-75.7 1.1-9.4 2.9-19.3 5.1-29.4 19.6 4.8 41 8.5 63.5 10.9 13.5 18.5 27.5 35.3 41.6 50-32.6 30.3-63.2 46.9-84 46.9-4.5-.1-8.3-1-11.3-2.7zm237.<svg xmlns="http://www.w3.org/2000/svg" width="175" height="20" viewBox="0 0 175 20" fill="none">
<path d="M5.8122 6.50868H3.94537V14.9575H1.21248V6.50868H0L0 4.29543H1.21248V3.75655C1.21248 2.44784 1.58456 1.48556 2.32873 0.869696C3.07289 0.253834 4.19556 -0.0348512 5.69672 0.00364049V2.27463C5.04237 2.2618 4.58689 2.37086 4.33028 2.60181C4.07367 2.83276 3.94537 3.24975 3.94537 3.85278V4.29543H5.8122V6.50868Z" fill="#05B851"/>
<path d="M6.48053 9.588C6.48053 8.51024 6.69224 7.55437 7.11564 6.72039C7.55188 5.88641 8.13566 5.24488 8.867 4.79582C9.61117 4.34675 10.4387 4.12222 11.3497 4.12222C12.1452 4.12222 12.838 4.2826 13.4282 4.60336C14.0313 4.92412 14.5124 5.32828 14.8717 5.81584V4.29543H17.5853V14.9575H14.8717V13.3986C14.5252 13.899 14.0441 14.316 13.4282 14.6496C12.8252 14.9704 12.1259 15.1308 11.3304 15.1308C10.4323 15.1308 9.61117 14.8998 8.867 14.4379C8.13566 13.976 7.55188 13.3281 7.11564 12.4941C6.69224 11.6473 6.48053 10.6786 6.48053 9.588ZM14.8717 9.62649C14.8717 8.97213 14.7434 8.41401 14.4867 7.95211C14.2301 7.47738 13.8837 7.11813 13.4475 6.87435C13.0112 6.61774 12.5429 6.48944 12.0425 6.48944C11.5422 6.48944 11.0803 6.61133 10.6568 6.85511C10.2334 7.09889 9.88702 7.45814 9.61758 7.93287C9.36097 8.39476 9.23267 8.94647 9.23267 9.588C9.23267 10.2295 9.36097 10.7941 9.61758 11.2816C9.88702 11.7563 10.2334 12.122 10.6568 12.3786C11.0931 12.6352 11.555 12.7635 12.0425 12.7635C12.5429 12.7635 13.0112 12.6416 13.4475 12.3979C13.8837 12.1413 14.2301 11.782 14.4867 11.3201C14.7434 10.8454 14.8717 10.2808 14.8717 9.62649Z" fill="#05B851"/>
<path d="M31.742 9.588C31.742 8.51024 31.9537 7.55437 32.3771 6.72039C32.8133 5.88641 33.3971 5.24488 34.1285 4.79582C34.8726 4.34675 35.7002 4.12222 36.6112 4.12222C37.4067 4.12222 38.0995 4.2826 38.6897 4.60336C39.2927 4.92412 39.7739 5.32828 40.1331 5.81584V4.29543H42.8468V14.9575H40.1331V13.3986C39.7867 13.899 39.3056 14.316 38.6897 14.6496C38.0867 14.9704 37.3874 15.1308 36.5919 15.1308C35.6938 15.1308 34.8726 14.8998 34.1285 14.4379C33.3971 13.976 32.8133 13.3281 32.3771 12.4941C31.9537 11.6473 31.742 10.6786 31.742 9.588ZM40.1331 9.62649C40.1331 8.97213 40.0048 8.41401 39.7482 7.95211C39.4916 7.47738 39.1452 7.11813 38.7089 6.87435C38.2727 6.61774 37.8044 6.48944 37.304 6.48944C36.8036 6.48944 36.3417 6.61133 35.9183 6.85511C35.4949 7.09889 35.1485 7.45814 34.8791 7.93287C34.6224 8.39476 34.4941 8.94647 34.4941 9.588C34.4941 10.2295 34.6224 10.7941 34.8791 11.2816C35.1485 11.7563 35.4949 12.122 35.9183 12.3786C36.3546 12.6352 36.8165 12.7635 37.304 12.7635C37.8044 12.7635 38.2727 12.6416 38.7089 12.3979C39.1452 12.1413 39.4916 11.782 39.7482 11.3201C40.0048 10.8454 40.1331 10.2808 40.1331 9.62649Z" fill="#05B851"/>
<path d="M44.4006 9.588C44.4006 8.51024 44.6123 7.55437 45.0357 6.72039C45.4719 5.88641 46.0621 5.24488 46.8063 4.79582C47.5504 4.34675 48.378 4.12222 49.289 4.12222C49.9818 4.12222 50.6426 4.27618 51.2713 4.58412C51.9 4.87922 52.4003 5.27696 52.7724 5.77735V0.715731H55.5053V14.9575H52.7724V13.3794C52.4388 13.9054 51.9705 14.3289 51.3675 14.6496C50.7645 14.9704 50.0652 15.1308 49.2697 15.1308C48.3716 15.1308 47.5504 14.8998 46.8063 14.4379C46.0621 13.976 45.4719 13.3281 45.0357 12.4941C44.6123 11.6473 44.4006 10.6786 44.4006 9.588ZM52.7917 9.62649C52.7917 8.97213 52.6634 8.41401 52.4068 7.95211C52.1502 7.47738 51.8037 7.11813 51.3675 6.87435C50.9313 6.61774 50.4629 6.48944 49.9626 6.48944C49.4622 6.48944 49.0003 6.61133 48.5769 6.85511C48.1535 7.09889 47.807 7.45814 47.5376 7.93287C47.281 8.39476 47.1527 8.94647 47.1527 9.588C47.1527 10.2295 47.281 10.7941 47.5376 11.2816C47.807 11.7563 48.1535 12.122 48.5769 12.3786C49.0131 12.6352 49.475 12.7635 49.9626 12.7635C50.4629 12.7635 50.9313 12.6416 51.3675 12.3979C51.8037 12.1413 52.1502 11.782 52.4068 11.3201C52.6634 10.8454 52.7917 10.2808 52.7917 9.62649Z" fill="#05B851"/>
<path d="M57.0591 9.588C57.0591 8.51024 57.2708 7.55437 57.6942 6.72039C58.1305 5.88641 58.7142 5.24488 59.4456 4.79582C60.1897 4.34675 61.0173 4.12222 61.9283 4.12222C62.7238 4.12222 63.4166 4.2826 64.0068 4.60336C64.6098 4.92412 65.091 5.32828 65.4502 5.81584V4.29543H68.1639V14.9575H65.4502V13.3986C65.1038 13.899 64.6227 14.316 64.0068 14.6496C63.4038 14.9704 62.7045 15.1308 61.909 15.1308C61.0109 15.1308 60.1897 14.8998 59.4456 14.4379C58.7142 13.976 58.1305 13.3281 57.6942 12.4941C57.2708 11.6473 57.0591 10.6786 57.0591 9.588ZM65.4502 9.62649C65.4502 8.97213 65.3219 8.41401 65.0653 7.95211C64.8087 7.47738 64.4623 7.11813 64.026 6.87435C63.5898 6.61774 63.1215 6.48944 62.6211 6.48944C62.1207 6.48944 61.6588 6.61133 61.2354 6.85511C60.812 7.09889 60.4656 7.45814 60.1962 7.93287C59.9395 8.39476 59.8112 8.94647 59.8112 9.588C59.8112 10.2295 59.9395 10.7941 60.1962 11.2816C60.4656 11.7563 60.812 12.122 61.2354 12.3786C61.6717 12.6352 62.1336 12.7635 62.6211 12.7635C63.1215 12.7635 63.5898 12.6416 64.026 12.3979C64.4623 12.1413 64.8087 11.782 65.0653 11.3201C65.3219 10.8454 65.4502 10.2808 65.4502 9.62649Z" fill="#05B851"/>
<path d="M80.6107 4.29543L74.0094 19.9999H71.1418L73.4513 14.6881L69.1788 4.29543H72.2003L74.9525 11.7435L77.7431 4.29543H80.6107Z" fill="#05B851"/>
<g clip-path="url(#clip0_313_425)">
<path fill-rule="evenodd" clip-rule="evenodd" d="M19.1289 5.88499V13.4852C19.1289 13.9657 19.3211 14.4462 19.6815 14.7505C19.8977 14.9347 20.162 15.0549 20.4904 15.0549H28.499C28.7953 15.0549 29.0596 14.9347 29.2278 14.8066C29.6843 14.4702 29.8524 14.0378 29.8605 13.4772C29.8605 13.4371 29.8685 13.4211 29.8685 13.3811V13.317C29.8605 11.8594 29.8685 10.3858 29.8685 8.92026C29.4921 9.0484 29.0756 9.20857 28.8434 9.3287C28.8193 9.33671 28.7953 9.34471 28.7713 9.36073V11.8995C28.7713 12.0436 28.7633 12.1718 28.7633 12.3079C28.7633 12.5802 28.7633 12.8605 28.7633 13.1408C28.7633 13.6774 28.8033 13.9577 28.3548 13.9817C28.2828 13.9817 28.2187 13.9737 28.1546 13.9817C27.9864 14.0057 21.9559 13.9897 21.7878 13.9897C21.6196 13.9897 21.4754 13.9817 21.3153 13.9817C21.091 13.9817 20.5865 14.0057 20.4103 13.9256C20.2982 13.8776 20.2341 13.7655 20.2341 13.6133C20.2341 13.5733 20.2261 13.5572 20.2261 13.5092C20.2261 13.4692 20.2261 13.4291 20.2261 13.3891C20.2261 13.301 20.2181 13.2369 20.2181 13.1568L20.2101 10.7142C20.2101 10.3698 20.2181 10.0495 20.2181 9.71311V8.20749C20.2181 8.0313 20.2261 7.88715 20.2261 7.71096V6.20534C20.2261 6.02114 20.2101 5.66876 20.3382 5.55664C20.4503 5.45253 20.5865 5.45253 20.7386 5.45253C20.7947 5.45253 20.8107 5.44452 20.8588 5.44452C22.8689 5.42049 24.9352 5.44452 26.9373 5.44452C27.1856 5.44452 28.2747 5.4285 28.467 5.46854C28.6191 5.50058 28.7152 5.57266 28.7473 5.72482C28.7713 5.87698 28.7473 6.06118 28.7633 6.22135C28.7793 6.38153 28.7713 6.57373 28.7713 6.74191C28.7713 6.92611 28.7793 7.07828 28.7793 7.25447V7.68693C29.1157 7.55078 29.468 7.42265 29.8124 7.32654L29.8685 7.30252V6.18131C29.8685 5.77287 29.8204 5.34041 29.6042 5.01205C29.5802 4.964 29.5481 4.93197 29.5161 4.88392C29.2758 4.57959 28.7953 4.35535 28.3949 4.35535H20.6185C20.4183 4.35535 20.186 4.41942 20.0018 4.49149C19.4493 4.72374 19.1289 5.27634 19.1289 5.88499Z" fill="#05B851"/>
<path fill-rule="evenodd" clip-rule="evenodd" d="M24.9357 10.2243C24.8796 10.1842 24.7275 10.024 24.6714 9.95998C24.5352 9.83184 24.3991 9.7037 24.2469 9.59959L24.1669 9.54353C24.1428 9.52751 24.1108 9.51149 24.0868 9.49548C24.0627 9.47145 24.0307 9.45543 24.0067 9.43942C23.6623 9.27124 23.3259 9.15111 22.9335 9.04699C22.5892 8.96691 22.1967 8.8708 21.8283 8.91085C21.7883 8.91886 21.7483 8.92686 21.7082 8.93487C21.7082 9.07102 21.7002 9.17513 21.7002 9.31128C21.7002 9.43141 21.6842 9.56755 21.6842 9.68768C21.6842 9.94396 21.6602 10.1922 21.6602 10.4485C21.6922 10.4485 21.6922 10.4405 21.7322 10.4405C22.2208 10.4405 22.429 10.4485 22.8695 10.6167C23.1418 10.7128 23.39 10.873 23.6063 11.0572C23.6223 11.0732 23.6303 11.0812 23.6463 11.0972C23.7264 11.1533 23.8065 11.2414 23.8705 11.3134L23.9426 11.4015C24.1348 11.6338 24.279 11.842 24.4231 12.1063C24.5673 12.3786 24.6794 12.6589 24.7755 12.9472C24.7835 12.9872 24.7995 13.0433 24.8156 13.0753C24.8636 13.0513 24.9357 13.0353 24.9917 13.0193L25.5363 12.8431C25.6004 12.8191 25.6565 12.803 25.7125 12.787L26.0809 12.6669C26.137 12.6509 26.2171 12.6349 26.2651 12.6108C26.2651 12.5868 26.2571 12.5548 26.2571 12.5227C26.2411 12.3866 26.2171 12.2344 26.2171 12.0903C26.2171 12.0502 26.2091 12.0422 26.2091 12.0022C26.193 11.5537 26.2331 11.1613 26.3772 10.7368C26.4653 10.4645 26.6015 10.2243 26.7616 9.99201L26.8738 9.83985C26.9699 9.72773 27.1461 9.52751 27.2582 9.43942C27.3703 9.34331 27.4824 9.24721 27.6026 9.15111L27.7627 9.03899C27.8748 8.9589 27.987 8.88682 28.1071 8.82275C28.2593 8.72665 28.4915 8.5905 28.6597 8.52643C28.6917 8.51042 28.7157 8.4944 28.7478 8.47838C28.7798 8.46237 28.8119 8.45436 28.8439 8.43834C29.2283 8.24613 30.0932 7.94181 30.4937 7.82968L30.9261 7.70155C30.9982 7.67752 31.0703 7.65349 31.1504 7.63748C31.1263 7.59743 30.9742 6.95675 30.9582 6.89268L30.814 6.34008C30.798 6.28402 30.79 6.20394 30.766 6.15588C30.6699 6.16389 29.901 6.40415 29.8129 6.43619C29.3965 6.55631 28.964 6.71649 28.5636 6.88467C28.5235 6.90069 28.4915 6.9167 28.4515 6.93272L28.1311 7.06887C28.0991 7.09289 28.067 7.10891 28.027 7.12493C27.9549 7.14895 27.8829 7.189 27.8188 7.22103C27.6186 7.33315 27.4184 7.43726 27.2261 7.5654C26.9779 7.72557 26.7376 7.89375 26.5054 8.07795C26.4253 8.15003 26.3372 8.2141 26.2571 8.29418C26.2331 8.32622 26.2091 8.34224 26.177 8.36626C26.0489 8.4944 25.9127 8.62254 25.8006 8.76669L25.6004 9.02297C25.3681 9.3273 25.1759 9.64764 25.0238 9.99201C24.9997 10.0401 24.9357 10.1682 24.9357 10.2243Z" fill="#05B851"/>
</g>
<path d="M82.4201 0.34409H81.8197V2H81.4877V0.34409H80.8925V0.0742772H82.4201V0.34409ZM83.1079 0.0742772L83.6634 1.55031L84.2176 0.0742772H84.6501V2H84.3168V1.36515L84.3498 0.51603L83.7811 2H83.5417L82.9743 0.517352L83.0074 1.36515V2H82.6741V0.0742772H83.1079Z" fill="#05B851"/>
<path d="M96.2245 12.1325H98.2642C98.199 12.9104 97.9814 13.6039 97.6115 14.2131C97.2416 14.8169 96.7222 15.2929 96.0531 15.641C95.3841 15.9891 94.5709 16.1632 93.6135 16.1632C92.8792 16.1632 92.2183 16.0326 91.6308 15.7715C91.0434 15.505 90.5402 15.1297 90.1214 14.6456C89.7025 14.156 89.3816 13.5658 89.1586 12.875C88.941 12.1842 88.8322 11.4118 88.8322 10.5578V9.57057C88.8322 8.71657 88.9437 7.94417 89.1668 7.25336C89.3952 6.56255 89.7216 5.97237 90.1459 5.48282C90.5701 4.98783 91.0787 4.60979 91.6716 4.34869C92.27 4.0876 92.9417 3.95705 93.6869 3.95705C94.6334 3.95705 95.433 4.13111 96.0857 4.47924C96.7385 4.82736 97.2444 5.30876 97.6034 5.92341C97.9678 6.53807 98.1908 7.24248 98.2724 8.03664H96.2326C96.1782 7.52533 96.0585 7.08746 95.8736 6.72301C95.6941 6.35857 95.4276 6.08116 95.074 5.89078C94.7204 5.69496 94.2581 5.59705 93.6869 5.59705C93.2192 5.59705 92.8112 5.68408 92.4631 5.85814C92.1149 6.0322 91.8239 6.28786 91.59 6.6251C91.3561 6.96235 91.1794 7.37847 91.0597 7.87346C90.9455 8.36301 90.8883 8.92327 90.8883 9.55425V10.5578C90.8883 11.1562 90.94 11.7001 91.0434 12.1897C91.1522 12.6738 91.3153 13.0899 91.5329 13.438C91.7559 13.7861 92.0388 14.0554 92.3815 14.2458C92.7242 14.4362 93.1348 14.5313 93.6135 14.5313C94.1955 14.5313 94.666 14.4389 95.0251 14.2539C95.3895 14.069 95.6642 13.7997 95.8491 13.4462C96.0395 13.0872 96.1646 12.6493 96.2245 12.1325ZM99.5534 11.6838V11.4961C99.5534 10.8597 99.6459 10.2695 99.8308 9.72559C100.016 9.17621 100.282 8.70025 100.63 8.29773C100.984 7.88978 101.414 7.57429 101.92 7.35127C102.431 7.12281 103.007 7.00858 103.649 7.00858C104.297 7.00858 104.873 7.12281 105.379 7.35127C105.89 7.57429 106.323 7.88978 106.676 8.29773C107.03 8.70025 107.299 9.17621 107.484 9.72559C107.669 10.2695 107.762 10.8597 107.762 11.4961V11.6838C107.762 12.3202 107.669 12.9104 107.484 13.4543C107.299 13.9983 107.03 14.4742 106.676 14.8822C106.323 15.2847 105.893 15.6002 105.387 15.8287C104.881 16.0517 104.307 16.1632 103.666 16.1632C103.018 16.1632 102.439 16.0517 101.928 15.8287C101.422 15.6002 100.992 15.2847 100.639 14.8822C100.285 14.4742 100.016 13.9983 99.8308 13.4543C99.6459 12.9104 99.5534 12.3202 99.5534 11.6838ZM101.52 11.4961V11.6838C101.52 12.0809 101.561 12.4562 101.642 12.8098C101.724 13.1633 101.852 13.4734 102.026 13.7399C102.2 14.0064 102.423 14.2159 102.695 14.3682C102.967 14.5205 103.29 14.5966 103.666 14.5966C104.03 14.5966 104.346 14.5205 104.612 14.3682C104.884 14.2159 105.107 14.0064 105.281 13.7399C105.455 13.4734 105.583 13.1633 105.665 12.8098C105.752 12.4562 105.795 12.0809 105.795 11.6838V11.4961C105.795 11.1045 105.752 10.7346 105.665 10.3865C105.583 10.0329 105.452 9.72015 105.273 9.44818C105.099 9.17621 104.876 8.96407 104.604 8.81176C104.337 8.65402 104.019 8.57515 103.649 8.57515C103.279 8.57515 102.958 8.65402 102.687 8.81176C102.42 8.96407 102.2 9.17621 102.026 9.44818C101.852 9.72015 101.724 10.0329 101.642 10.3865C101.561 10.7346 101.52 11.1045 101.52 11.4961ZM111.376 8.96679V16H109.41V7.17177H111.262L111.376 8.96679ZM111.058 11.2595L110.389 11.2514C110.389 10.6421 110.465 10.0792 110.617 9.56241C110.77 9.04566 110.993 8.5969 111.286 8.21614C111.58 7.82994 111.944 7.53349 112.38 7.32679C112.82 7.11465 113.329 7.00858 113.905 7.00858C114.308 7.00858 114.675 7.06842 115.007 7.18809C115.344 7.30231 115.635 7.48454 115.88 7.73475C116.13 7.98497 116.321 8.30589 116.451 8.69753C116.587 9.08918 116.655 9.56241 116.655 10.1172V16H114.689V10.2886C114.689 9.85886 114.623 9.52161 114.493 9.27684C114.368 9.03206 114.186 8.858 113.946 8.75465C113.712 8.64586 113.432 8.59147 113.106 8.59147C112.736 8.59147 112.42 8.66218 112.159 8.8036C111.904 8.94503 111.694 9.13813 111.531 9.38291C111.368 9.62768 111.248 9.91053 111.172 10.2315C111.096 10.5524 111.058 10.8951 111.058 11.2595ZM116.533 10.7373L115.611 10.9413C115.611 10.4082 115.684 9.90509 115.831 9.43186C115.983 8.95319 116.204 8.53435 116.492 8.17535C116.786 7.8109 117.147 7.52533 117.577 7.31863C118.007 7.11193 118.499 7.00858 119.054 7.00858C119.505 7.00858 119.908 7.07114 120.261 7.19625C120.62 7.31591 120.925 7.50629 121.175 7.76739C121.425 8.02848 121.616 8.36845 121.746 8.78729C121.877 9.20068 121.942 9.70111 121.942 10.2886V16H119.968V10.2804C119.968 9.83438 119.902 9.48897 119.772 9.2442C119.647 8.99942 119.467 8.8308 119.233 8.73833C118.999 8.64042 118.719 8.59147 118.393 8.59147C118.088 8.59147 117.819 8.64858 117.585 8.76281C117.357 8.8716 117.164 9.02662 117.006 9.22788C116.848 9.4237 116.728 9.64944 116.647 9.90509C116.571 10.1607 116.533 10.4382 116.533 10.7373ZM125.932 8.96679V16H123.966V7.17177H125.818L125.932 8.96679ZM125.614 11.2595L124.945 11.2514C124.945 10.6421 125.021 10.0792 125.173 9.56241C125.326 9.04566 125.549 8.5969 125.842 8.21614C126.136 7.82994 126.5 7.53349 126.936 7.32679C127.376 7.11465 127.885 7.00858 128.461 7.00858C128.864 7.00858 129.231 7.06842 129.563 7.18809C129.9 7.30231 130.191 7.48454 130.436 7.73475C130.686 7.98497 130.876 8.30589 131.007 8.69753C131.143 9.08918 131.211 9.56241 131.211 10.1172V16H129.245V10.2886C129.245 9.85886 129.179 9.52161 129.049 9.27684C128.924 9.03206 128.742 8.858 128.502 8.75465C128.268 8.64586 127.988 8.59147 127.662 8.59147C127.292 8.59147 126.976 8.66218 126.715 8.8036C126.46 8.94503 126.25 9.13813 126.087 9.38291C125.924 9.62768 125.804 9.91053 125.728 10.2315C125.652 10.5524 125.614 10.8951 125.614 11.2595ZM131.089 10.7373L130.167 10.9413C130.167 10.4082 130.24 9.90509 130.387 9.43186C130.539 8.95319 130.76 8.53435 131.048 8.17535C131.342 7.8109 131.703 7.52533 132.133 7.31863C132.563 7.11193 133.055 7.00858 133.61 7.00858C134.061 7.00858 134.464 7.07114 134.817 7.19625C135.176 7.31591 135.481 7.50629 135.731 7.76739C135.981 8.02848 136.172 8.36845 136.302 8.78729C136.433 9.20068 136.498 9.70111 136.498 10.2886V16H134.524V10.2804C134.524 9.83438 134.458 9.48897 134.328 9.2442C134.203 8.99942 134.023 8.8308 133.789 8.73833C133.555 8.64042 133.275 8.59147 132.949 8.59147C132.644 8.59147 132.375 8.64858 132.141 8.76281C131.913 8.8716 131.72 9.02662 131.562 9.22788C131.404 9.4237 131.284 9.64944 131.203 9.90509C131.127 10.1607 131.089 10.4382 131.089 10.7373ZM143.833 13.9194V7.17177H145.808V16H143.947L143.833 13.9194ZM144.111 12.0836L144.772 12.0673C144.772 12.6602 144.706 13.2068 144.576 13.7073C144.445 14.2023 144.244 14.6347 143.972 15.0046C143.7 15.369 143.352 15.6546 142.928 15.8613C142.503 16.0626 141.995 16.1632 141.402 16.1632C140.972 16.1632 140.578 16.1006 140.219 15.9755C139.86 15.8504 139.55 15.6573 139.289 15.3962C139.033 15.1351 138.834 14.7952 138.693 14.3763C138.552 13.9575 138.481 13.4571 138.481 12.875V7.17177H140.447V12.8914C140.447 13.2123 140.485 13.4815 140.561 13.6991C140.638 13.9113 140.741 14.0826 140.871 14.2131C141.002 14.3437 141.154 14.4362 141.328 14.4906C141.502 14.5449 141.687 14.5721 141.883 14.5721C142.443 14.5721 142.884 14.4634 143.205 14.2458C143.531 14.0228 143.763 13.7236 143.899 13.3483C144.04 12.9729 144.111 12.5514 144.111 12.0836ZM149.773 9.05654V16H147.807V7.17177H149.659L149.773 9.05654ZM149.422 11.2595L148.786 11.2514C148.791 10.6258 148.878 10.052 149.047 9.52977C149.221 9.00758 149.46 8.55883 149.765 8.18351C150.075 7.80818 150.445 7.51989 150.875 7.31863C151.304 7.11193 151.783 7.00858 152.311 7.00858C152.735 7.00858 153.118 7.06842 153.461 7.18809C153.809 7.30231 154.106 7.48998 154.35 7.75107C154.601 8.01216 154.791 8.35213 154.922 8.77097C155.052 9.18437 155.117 9.69295 155.117 10.2967V16H153.143V10.2886C153.143 9.8643 153.08 9.52977 152.955 9.285C152.836 9.03478 152.659 8.858 152.425 8.75465C152.196 8.64586 151.911 8.59147 151.568 8.59147C151.231 8.59147 150.929 8.66218 150.662 8.8036C150.396 8.94503 150.17 9.13813 149.985 9.38291C149.806 9.62768 149.667 9.91053 149.569 10.2315C149.471 10.5524 149.422 10.8951 149.422 11.2595ZM159.23 7.17177V16H157.255V7.17177H159.23ZM157.125 4.85456C157.125 4.55539 157.222 4.3079 157.418 4.11208C157.62 3.91082 157.897 3.81019 158.251 3.81019C158.599 3.81019 158.873 3.91082 159.075 4.11208C159.276 4.3079 159.377 4.55539 159.377 4.85456C159.377 5.14829 159.276 5.39307 159.075 5.58889C158.873 5.78471 158.599 5.88262 158.251 5.88262C157.897 5.88262 157.62 5.78471 157.418 5.58889C157.222 5.39307 157.125 5.14829 157.125 4.85456ZM165.431 7.17177V8.60778H160.454V7.17177H165.431ZM161.89 5.00959H163.856V13.5604C163.856 13.8324 163.894 14.0418 163.97 14.1887C164.052 14.3301 164.163 14.4253 164.305 14.4742C164.446 14.5232 164.612 14.5477 164.802 14.5477C164.938 14.5477 165.069 14.5395 165.194 14.5232C165.319 14.5069 165.42 14.4906 165.496 14.4742L165.504 15.9755C165.341 16.0245 165.15 16.068 164.933 16.1061C164.721 16.1441 164.476 16.1632 164.199 16.1632C163.747 16.1632 163.347 16.0843 162.999 15.9266C162.651 15.7634 162.379 15.4996 162.183 15.1351C161.987 14.7707 161.89 14.2866 161.89 13.6828V5.00959ZM169.51 15.0372L171.909 7.17177H174.014L170.473 17.3463C170.391 17.5638 170.285 17.8005 170.155 18.0561C170.024 18.3118 169.853 18.5538 169.641 18.7823C169.434 19.0162 169.176 19.2038 168.866 19.3453C168.556 19.4921 168.18 19.5656 167.74 19.5656C167.566 19.5656 167.397 19.5492 167.234 19.5166C167.076 19.4894 166.926 19.4595 166.785 19.4269L166.777 17.9256C166.831 17.931 166.897 17.9364 166.973 17.9419C167.054 17.9473 167.12 17.95 167.169 17.95C167.495 17.95 167.767 17.9092 167.984 17.8277C168.202 17.7515 168.379 17.6264 168.515 17.4523C168.656 17.2783 168.776 17.0444 168.874 16.7506L169.51 15.0372ZM168.156 7.17177L170.253 13.7807L170.604 15.8531L169.241 16.204L166.034 7.17177H168.156Z" fill="#3F3F41"/>
<defs>
<clipPath id="clip0_313_425">
<rect width="12.0209" height="10.701" fill="white" transform="translate(19.1299 4.35315)"/>
</clipPath>
</defs>
</svg>2-76.2c4.7 38.2-1.1 67.9-14.6 75.8-3 1.8-6.9 2.6-11.5 2.6-20.7 0-51.4-16.5-84-46.6 14-14.7 28-31.4 41.3-49.9 22.6-2.4 44-6.1 63.6-11 2.3 10.1 4.1 19.8 5.2 29.1zm38.5-66.7c-8.6 3.7-18 7-27.7 10.1-5.7-19.6-13.2-40-22.5-60.9 9.2-20.8 16.6-41.1 22.2-60.6 9.9 3.1 19.3 6.5 28.1 10.2 35.4 15.1 58.3 34.9 58.3 50.6-.1 15.7-23 35.6-58.4 50.6zM320.8 78.4z"/><circle cx="420.9" cy="296.5" r="45.7"/><path d="M520.5 78.1z"/></g></svg>